<ttFont>
    <TTGlyph name=".notdef" xMin="4" yMin="0" xMax="514" yMax="701">
      <contour>
        <pt x="259" y="302" on="1"/>
        <pt x="255" y="302" on="1"/>
        <pt x="155" y="93" on="1"/>
        <pt x="95" y="93" on="1"/>
        <pt x="229" y="353" on="1"/>
        <pt x="95" y="608" on="1"/>
        <pt x="155" y="608" on="1"/>
        <pt x="260" y="402" on="1"/>
        <pt x="264" y="402" on="1"/>
        <pt x="364" y="608" on="1"/>
        <pt x="424" y="608" on="1"/>
        <pt x="289" y="347" on="1"/>
        <pt x="424" y="93" on="1"/>
        <pt x="364" y="93" on="1"/>
      </contour>
      <contour>
        <pt x="59" y="649" on="1"/>
        <pt x="59" y="52" on="1"/>
        <pt x="459" y="52" on="1"/>
        <pt x="459" y="649" on="1"/>
      </contour>
      <contour>
        <pt x="4" y="0" on="1"/>
        <pt x="4" y="701" on="1"/>
        <pt x="514" y="701" on="1"/>
        <pt x="514" y="0" on="1"/>
      </contour>
    </TTGlyph>
    <TTGlyph name="A" xMin="13" yMin="0" xMax="645" yMax="685">
      <contour>
        <pt x="600" y="0" on="1"/>
        <pt x="366" y="0" on="1"/>
        <pt x="366" y="8" on="1"/>
        <pt x="366" y="63" on="0"/>
        <pt x="410" y="67" on="1"/>
        <pt x="439" y="69" on="1"/>
        <pt x="440" y="69" on="1"/>
        <pt x="400" y="214" on="1"/>
        <pt x="220" y="214" on="1"/>
        <pt x="178" y="71" on="1"/>
        <pt x="259" y="65" on="1"/>
        <pt x="262" y="59" on="0"/>
        <pt x="258" y="38" on="1"/>
        <pt x="249" y="0" on="0"/>
        <pt x="214" y="0" on="1"/>
        <pt x="13" y="0" on="1"/>
        <pt x="13" y="8" on="1"/>
        <pt x="13" y="63" on="0"/>
        <pt x="57" y="67" on="1"/>
        <pt x="94" y="69" on="1"/>
        <pt x="286" y="685" on="1"/>
        <pt x="329" y="689" on="0"/>
        <pt x="387" y="685" on="1"/>
        <pt x="575" y="71" on="1"/>
        <pt x="645" y="65" on="1"/>
        <pt x="648" y="59" on="0"/>
        <pt x="644" y="38" on="1"/>
        <pt x="635" y="0" on="0"/>
      </contour>
      <contour>
        <pt x="239" y="281" on="1"/>
        <pt x="382" y="281" on="1"/>
        <pt x="313" y="534" on="1"/>
      </contour>
    </TTGlyph>
    <TTGlyph name="AE" xMin="13" yMin="0" xMax="873" yMax="685">
      <contour>
        <pt x="873" y="163" on="1"/>
        <pt x="873" y="0" on="1"/>
        <pt x="369" y="0" on="1"/>
        <pt x="369" y="64" on="0"/>
        <pt x="413" y="67" on="1"/>
        <pt x="442" y="69" on="1"/>
        <pt x="442" y="291" on="1"/>
        <pt x="284" y="291" on="1"/>
        <pt x="180" y="71" on="1"/>
        <pt x="259" y="65" on="1"/>
        <pt x="262" y="59" on="0"/>
        <pt x="258" y="38" on="1"/>
        <pt x="249" y="0" on="0"/>
        <pt x="214" y="0" on="1"/>
        <pt x="13" y="0" on="1"/>
        <pt x="13" y="8" on="1"/>
        <pt x="13" y="63" on="0"/>
        <pt x="57" y="67" on="1"/>
        <pt x="96" y="69" on="1"/>
        <pt x="395" y="685" on="1"/>
        <pt x="853" y="685" on="1"/>
        <pt x="853" y="534" on="1"/>
        <pt x="853" y="489" on="0"/>
        <pt x="789" y="495" on="1"/>
        <pt x="780" y="613" on="1"/>
        <pt x="567" y="616" on="1"/>
        <pt x="567" y="368" on="1"/>
        <pt x="746" y="389" on="1"/>
        <pt x="757" y="341" on="0"/>
        <pt x="747" y="290" on="1"/>
        <pt x="567" y="300" on="1"/>
        <pt x="567" y="71" on="1"/>
        <pt x="801" y="79" on="1"/>
        <pt x="809" y="202" on="1"/>
        <pt x="873" y="208" on="0"/>
      </contour>
      <contour>
        <pt x="442" y="358" on="1"/>
        <pt x="442" y="614" on="1"/>
        <pt x="436" y="615" on="1"/>
        <pt x="315" y="358" on="1"/>
      </contour>
    </TTGlyph>
    <TTGlyph name="Aacute" xMin="13" yMin="0" xMax="645" yMax="910">
      <contour>
        <pt x="600" y="0" on="1"/>
        <pt x="366" y="0" on="1"/>
        <pt x="366" y="8" on="1"/>
        <pt x="366" y="63" on="0"/>
        <pt x="410" y="67" on="1"/>
        <pt x="439" y="69" on="1"/>
        <pt x="440" y="69" on="1"/>
        <pt x="400" y="214" on="1"/>
        <pt x="220" y="214" on="1"/>
        <pt x="178" y="71" on="1"/>
        <pt x="259" y="65" on="1"/>
        <pt x="262" y="59" on="0"/>
        <pt x="258" y="38" on="1"/>
        <pt x="249" y="0" on="0"/>
        <pt x="214" y="0" on="1"/>
        <pt x="13" y="0" on="1"/>
        <pt x="13" y="8" on="1"/>
        <pt x="13" y="63" on="0"/>
        <pt x="57" y="67" on="1"/>
        <pt x="94" y="69" on="1"/>
        <pt x="286" y="685" on="1"/>
        <pt x="329" y="689" on="0"/>
        <pt x="387" y="685" on="1"/>
        <pt x="575" y="71" on="1"/>
        <pt x="645" y="65" on="1"/>
        <pt x="648" y="59" on="0"/>
        <pt x="644" y="38" on="1"/>
        <pt x="635" y="0" on="0"/>
      </contour>
      <contour>
        <pt x="239" y="281" on="1"/>
        <pt x="382" y="281" on="1"/>
        <pt x="313" y="534" on="1"/>
      </contour>
      <contour>
        <pt x="503" y="842" on="1"/>
        <pt x="296" y="732" on="1"/>
        <pt x="265" y="748" on="0"/>
        <pt x="254" y="773" on="1"/>
        <pt x="421" y="910" on="1"/>
        <pt x="444" y="905" on="0"/>
        <pt x="494" y="860" on="0"/>
      </contour>
    </TTGlyph>
    <TTGlyph name="Abreve" xMin="13" yMin="0" xMax="645" yMax="906">
      <contour>
        <pt x="600" y="0" on="1"/>
        <pt x="366" y="0" on="1"/>
        <pt x="366" y="8" on="1"/>
        <pt x="366" y="63" on="0"/>
        <pt x="410" y="67" on="1"/>
        <pt x="439" y="69" on="1"/>
        <pt x="440" y="69" on="1"/>
        <pt x="400" y="214" on="1"/>
        <pt x="220" y="214" on="1"/>
        <pt x="178" y="71" on="1"/>
        <pt x="259" y="65" on="1"/>
        <pt x="262" y="59" on="0"/>
        <pt x="258" y="38" on="1"/>
        <pt x="249" y="0" on="0"/>
        <pt x="214" y="0" on="1"/>
        <pt x="13" y="0" on="1"/>
        <pt x="13" y="8" on="1"/>
        <pt x="13" y="63" on="0"/>
        <pt x="57" y="67" on="1"/>
        <pt x="94" y="69" on="1"/>
        <pt x="286" y="685" on="1"/>
        <pt x="329" y="689" on="0"/>
        <pt x="387" y="685" on="1"/>
        <pt x="575" y="71" on="1"/>
        <pt x="645" y="65" on="1"/>
        <pt x="648" y="59" on="0"/>
        <pt x="644" y="38" on="1"/>
        <pt x="635" y="0" on="0"/>
      </contour>
      <contour>
        <pt x="239" y="281" on="1"/>
        <pt x="382" y="281" on="1"/>
        <pt x="313" y="534" on="1"/>
      </contour>
      <contour>
        <pt x="410" y="739" on="0"/>
        <pt x="264" y="739" on="0"/>
        <pt x="180" y="826" on="0"/>
        <pt x="172" y="886" on="1"/>
        <pt x="208" y="906" on="1"/>
        <pt x="221" y="876" on="0"/>
        <pt x="285" y="824" on="0"/>
        <pt x="338" y="824" on="1"/>
        <pt x="431" y="824" on="0"/>
        <pt x="466" y="906" on="1"/>
        <pt x="502" y="886" on="1"/>
        <pt x="494" y="826" on="0"/>
      </contour>
    </TTGlyph>
    <TTGlyph name="Acircumflex" xMin="13" yMin="0" xMax="645" yMax="887">
      <contour>
        <pt x="600" y="0" on="1"/>
        <pt x="366" y="0" on="1"/>
        <pt x="366" y="8" on="1"/>
        <pt x="366" y="63" on="0"/>
        <pt x="410" y="67" on="1"/>
        <pt x="439" y="69" on="1"/>
        <pt x="440" y="69" on="1"/>
        <pt x="400" y="214" on="1"/>
        <pt x="220" y="214" on="1"/>
        <pt x="178" y="71" on="1"/>
        <pt x="259" y="65" on="1"/>
        <pt x="262" y="59" on="0"/>
        <pt x="258" y="38" on="1"/>
        <pt x="249" y="0" on="0"/>
        <pt x="214" y="0" on="1"/>
        <pt x="13" y="0" on="1"/>
        <pt x="13" y="8" on="1"/>
        <pt x="13" y="63" on="0"/>
        <pt x="57" y="67" on="1"/>
        <pt x="94" y="69" on="1"/>
        <pt x="286" y="685" on="1"/>
        <pt x="329" y="689" on="0"/>
        <pt x="387" y="685" on="1"/>
        <pt x="575" y="71" on="1"/>
        <pt x="645" y="65" on="1"/>
        <pt x="648" y="59" on="0"/>
        <pt x="644" y="38" on="1"/>
        <pt x="635" y="0" on="0"/>
      </contour>
      <contour>
        <pt x="239" y="281" on="1"/>
        <pt x="382" y="281" on="1"/>
        <pt x="313" y="534" on="1"/>
      </contour>
      <contour>
        <pt x="336" y="809" on="1"/>
        <pt x="196" y="723" on="1"/>
        <pt x="174" y="736" on="0"/>
        <pt x="161" y="761" on="1"/>
        <pt x="300" y="887" on="1"/>
        <pt x="341" y="896" on="0"/>
        <pt x="376" y="887" on="1"/>
        <pt x="511" y="761" on="1"/>
        <pt x="494" y="734" on="0"/>
        <pt x="474" y="723" on="1"/>
      </contour>
    </TTGlyph>
    <TTGlyph name="Adieresis" xMin="13" yMin="0" xMax="645" yMax="894">
      <contour>
        <pt x="600" y="0" on="1"/>
        <pt x="366" y="0" on="1"/>
        <pt x="366" y="8" on="1"/>
        <pt x="366" y="63" on="0"/>
        <pt x="410" y="67" on="1"/>
        <pt x="439" y="69" on="1"/>
        <pt x="440" y="69" on="1"/>
        <pt x="400" y="214" on="1"/>
        <pt x="220" y="214" on="1"/>
        <pt x="178" y="71" on="1"/>
        <pt x="259" y="65" on="1"/>
        <pt x="262" y="59" on="0"/>
        <pt x="258" y="38" on="1"/>
        <pt x="249" y="0" on="0"/>
        <pt x="214" y="0" on="1"/>
        <pt x="13" y="0" on="1"/>
        <pt x="13" y="8" on="1"/>
        <pt x="13" y="63" on="0"/>
        <pt x="57" y="67" on="1"/>
        <pt x="94" y="69" on="1"/>
        <pt x="286" y="685" on="1"/>
        <pt x="329" y="689" on="0"/>
        <pt x="387" y="685" on="1"/>
        <pt x="575" y="71" on="1"/>
        <pt x="645" y="65" on="1"/>
        <pt x="648" y="59" on="0"/>
        <pt x="644" y="38" on="1"/>
        <pt x="635" y="0" on="0"/>
      </contour>
      <contour>
        <pt x="239" y="281" on="1"/>
        <pt x="382" y="281" on="1"/>
        <pt x="313" y="534" on="1"/>
      </contour>
      <contour>
        <pt x="265" y="754" on="0"/>
        <pt x="207" y="754" on="0"/>
        <pt x="165" y="795" on="0"/>
        <pt x="165" y="853" on="0"/>
        <pt x="207" y="894" on="0"/>
        <pt x="265" y="894" on="0"/>
        <pt x="306" y="853" on="0"/>
        <pt x="306" y="795" on="0"/>
      </contour>
      <contour>
        <pt x="497" y="795" on="0"/>
        <pt x="456" y="754" on="0"/>
        <pt x="397" y="754" on="0"/>
        <pt x="356" y="795" on="0"/>
        <pt x="356" y="852" on="0"/>
        <pt x="398" y="894" on="0"/>
        <pt x="456" y="894" on="0"/>
        <pt x="497" y="853" on="0"/>
      </contour>
    </TTGlyph>
    <TTGlyph name="Agrave" xMin="13" yMin="0" xMax="645" yMax="910">
      <contour>
        <pt x="600" y="0" on="1"/>
        <pt x="366" y="0" on="1"/>
        <pt x="366" y="8" on="1"/>
        <pt x="366" y="63" on="0"/>
        <pt x="410" y="67" on="1"/>
        <pt x="439" y="69" on="1"/>
        <pt x="440" y="69" on="1"/>
        <pt x="400" y="214" on="1"/>
        <pt x="220" y="214" on="1"/>
        <pt x="178" y="71" on="1"/>
        <pt x="259" y="65" on="1"/>
        <pt x="262" y="59" on="0"/>
        <pt x="258" y="38" on="1"/>
        <pt x="249" y="0" on="0"/>
        <pt x="214" y="0" on="1"/>
        <pt x="13" y="0" on="1"/>
        <pt x="13" y="8" on="1"/>
        <pt x="13" y="63" on="0"/>
        <pt x="57" y="67" on="1"/>
        <pt x="94" y="69" on="1"/>
        <pt x="286" y="685" on="1"/>
        <pt x="329" y="689" on="0"/>
        <pt x="387" y="685" on="1"/>
        <pt x="575" y="71" on="1"/>
        <pt x="645" y="65" on="1"/>
        <pt x="648" y="59" on="0"/>
        <pt x="644" y="38" on="1"/>
        <pt x="635" y="0" on="0"/>
      </contour>
      <contour>
        <pt x="239" y="281" on="1"/>
        <pt x="382" y="281" on="1"/>
        <pt x="313" y="534" on="1"/>
      </contour>
      <contour>
        <pt x="266" y="910" on="1"/>
        <pt x="433" y="773" on="1"/>
        <pt x="422" y="748" on="0"/>
        <pt x="391" y="732" on="1"/>
        <pt x="184" y="842" on="1"/>
        <pt x="193" y="860" on="0"/>
        <pt x="243" y="905" on="0"/>
      </contour>
    </TTGlyph>
    <TTGlyph name="Amacron" xMin="13" yMin="0" xMax="645" yMax="828">
      <contour>
        <pt x="600" y="0" on="1"/>
        <pt x="366" y="0" on="1"/>
        <pt x="366" y="8" on="1"/>
        <pt x="366" y="63" on="0"/>
        <pt x="410" y="67" on="1"/>
        <pt x="439" y="69" on="1"/>
        <pt x="440" y="69" on="1"/>
        <pt x="400" y="214" on="1"/>
        <pt x="220" y="214" on="1"/>
        <pt x="178" y="71" on="1"/>
        <pt x="259" y="65" on="1"/>
        <pt x="262" y="59" on="0"/>
        <pt x="258" y="38" on="1"/>
        <pt x="249" y="0" on="0"/>
        <pt x="214" y="0" on="1"/>
        <pt x="13" y="0" on="1"/>
        <pt x="13" y="8" on="1"/>
        <pt x="13" y="63" on="0"/>
        <pt x="57" y="67" on="1"/>
        <pt x="94" y="69" on="1"/>
        <pt x="286" y="685" on="1"/>
        <pt x="329" y="689" on="0"/>
        <pt x="387" y="685" on="1"/>
        <pt x="575" y="71" on="1"/>
        <pt x="645" y="65" on="1"/>
        <pt x="648" y="59" on="0"/>
        <pt x="644" y="38" on="1"/>
        <pt x="635" y="0" on="0"/>
      </contour>
      <contour>
        <pt x="239" y="281" on="1"/>
        <pt x="382" y="281" on="1"/>
        <pt x="313" y="534" on="1"/>
      </contour>
      <contour>
        <pt x="483" y="828" on="1"/>
        <pt x="483" y="758" on="1"/>
        <pt x="188" y="758" on="1"/>
        <pt x="188" y="828" on="1"/>
      </contour>
    </TTGlyph>
    <TTGlyph name="Aogonek" xMin="13" yMin="-184" xMax="662" yMax="685">
      <contour>
        <pt x="562" y="-82" on="1"/>
        <pt x="562" y="-106" on="0"/>
        <pt x="585" y="-131" on="0"/>
        <pt x="629" y="-131" on="0"/>
        <pt x="655" y="-110" on="1"/>
        <pt x="659" y="-113" on="0"/>
        <pt x="664" y="-142" on="0"/>
        <pt x="662" y="-151" on="1"/>
        <pt x="639" y="-184" on="0"/>
        <pt x="535" y="-184" on="0"/>
        <pt x="485" y="-138" on="0"/>
        <pt x="485" y="-105" on="1"/>
        <pt x="485" y="-45" on="0"/>
        <pt x="544" y="0" on="1"/>
        <pt x="366" y="0" on="1"/>
        <pt x="366" y="8" on="1"/>
        <pt x="366" y="63" on="0"/>
        <pt x="410" y="67" on="1"/>
        <pt x="439" y="69" on="1"/>
        <pt x="440" y="69" on="1"/>
        <pt x="400" y="214" on="1"/>
        <pt x="220" y="214" on="1"/>
        <pt x="178" y="71" on="1"/>
        <pt x="259" y="65" on="1"/>
        <pt x="262" y="59" on="0"/>
        <pt x="258" y="38" on="1"/>
        <pt x="249" y="0" on="0"/>
        <pt x="214" y="0" on="1"/>
        <pt x="13" y="0" on="1"/>
        <pt x="13" y="8" on="1"/>
        <pt x="13" y="63" on="0"/>
        <pt x="57" y="67" on="1"/>
        <pt x="94" y="69" on="1"/>
        <pt x="286" y="685" on="1"/>
        <pt x="329" y="689" on="0"/>
        <pt x="387" y="685" on="1"/>
        <pt x="575" y="71" on="1"/>
        <pt x="645" y="65" on="1"/>
        <pt x="644" y="59" on="0"/>
        <pt x="646" y="34" on="0"/>
        <pt x="628" y="5" on="0"/>
        <pt x="611" y="1" on="1"/>
        <pt x="562" y="-28" on="0"/>
      </contour>
      <contour>
        <pt x="239" y="281" on="1"/>
        <pt x="382" y="281" on="1"/>
        <pt x="313" y="534" on="1"/>
      </contour>
    </TTGlyph>
    <TTGlyph name="Aring" xMin="13" yMin="0" xMax="645" yMax="909">
      <contour>
        <pt x="600" y="0" on="1"/>
        <pt x="366" y="0" on="1"/>
        <pt x="366" y="8" on="1"/>
        <pt x="366" y="63" on="0"/>
        <pt x="410" y="67" on="1"/>
        <pt x="439" y="69" on="1"/>
        <pt x="440" y="69" on="1"/>
        <pt x="400" y="214" on="1"/>
        <pt x="220" y="214" on="1"/>
        <pt x="178" y="71" on="1"/>
        <pt x="259" y="65" on="1"/>
        <pt x="262" y="59" on="0"/>
        <pt x="258" y="38" on="1"/>
        <pt x="249" y="0" on="0"/>
        <pt x="214" y="0" on="1"/>
        <pt x="13" y="0" on="1"/>
        <pt x="13" y="8" on="1"/>
        <pt x="13" y="63" on="0"/>
        <pt x="57" y="67" on="1"/>
        <pt x="94" y="69" on="1"/>
        <pt x="286" y="685" on="1"/>
        <pt x="329" y="689" on="0"/>
        <pt x="387" y="685" on="1"/>
        <pt x="575" y="71" on="1"/>
        <pt x="645" y="65" on="1"/>
        <pt x="648" y="59" on="0"/>
        <pt x="644" y="38" on="1"/>
        <pt x="635" y="0" on="0"/>
      </contour>
      <contour>
        <pt x="239" y="281" on="1"/>
        <pt x="382" y="281" on="1"/>
        <pt x="313" y="534" on="1"/>
      </contour>
      <contour>
        <pt x="433" y="778" on="0"/>
        <pt x="380" y="727" on="0"/>
        <pt x="295" y="727" on="0"/>
        <pt x="244" y="776" on="0"/>
        <pt x="244" y="858" on="0"/>
        <pt x="297" y="909" on="0"/>
        <pt x="384" y="909" on="0"/>
        <pt x="435" y="860" on="0"/>
      </contour>
      <contour>
        <pt x="382" y="837" on="0"/>
        <pt x="359" y="860" on="0"/>
        <pt x="320" y="860" on="0"/>
        <pt x="297" y="838" on="0"/>
        <pt x="297" y="798" on="0"/>
        <pt x="320" y="775" on="0"/>
        <pt x="358" y="775" on="0"/>
        <pt x="382" y="798" on="0"/>
      </contour>
    </TTGlyph>
    <TTGlyph name="Atilde" xMin="13" yMin="0" xMax="645" yMax="890">
      <contour>
        <pt x="600" y="0" on="1"/>
        <pt x="366" y="0" on="1"/>
        <pt x="366" y="8" on="1"/>
        <pt x="366" y="63" on="0"/>
        <pt x="410" y="67" on="1"/>
        <pt x="439" y="69" on="1"/>
        <pt x="440" y="69" on="1"/>
        <pt x="400" y="214" on="1"/>
        <pt x="220" y="214" on="1"/>
        <pt x="178" y="71" on="1"/>
        <pt x="259" y="65" on="1"/>
        <pt x="262" y="59" on="0"/>
        <pt x="258" y="38" on="1"/>
        <pt x="249" y="0" on="0"/>
        <pt x="214" y="0" on="1"/>
        <pt x="13" y="0" on="1"/>
        <pt x="13" y="8" on="1"/>
        <pt x="13" y="63" on="0"/>
        <pt x="57" y="67" on="1"/>
        <pt x="94" y="69" on="1"/>
        <pt x="286" y="685" on="1"/>
        <pt x="329" y="689" on="0"/>
        <pt x="387" y="685" on="1"/>
        <pt x="575" y="71" on="1"/>
        <pt x="645" y="65" on="1"/>
        <pt x="648" y="59" on="0"/>
        <pt x="644" y="38" on="1"/>
        <pt x="635" y="0" on="0"/>
      </contour>
      <contour>
        <pt x="239" y="281" on="1"/>
        <pt x="382" y="281" on="1"/>
        <pt x="313" y="534" on="1"/>
      </contour>
      <contour>
        <pt x="400" y="742" on="1"/>
        <pt x="360" y="742" on="0"/>
        <pt x="272" y="794" on="0"/>
        <pt x="236" y="794" on="0"/>
        <pt x="206" y="770" on="0"/>
        <pt x="200" y="750" on="1"/>
        <pt x="166" y="762" on="1"/>
        <pt x="174" y="819" on="0"/>
        <pt x="230" y="890" on="0"/>
        <pt x="304" y="890" on="0"/>
        <pt x="387" y="831" on="0"/>
        <pt x="439" y="831" on="0"/>
        <pt x="474" y="859" on="0"/>
        <pt x="479" y="882" on="1"/>
        <pt x="511" y="873" on="1"/>
        <pt x="494" y="742" on="0"/>
      </contour>
    </TTGlyph>
    <TTGlyph name="B" xMin="41" yMin="0" xMax="570" yMax="685">
      <contour>
        <pt x="80" y="685" on="1"/>
        <pt x="307" y="685" on="1"/>
        <pt x="429" y="685" on="0"/>
        <pt x="540" y="591" on="0"/>
        <pt x="540" y="525" on="1"/>
        <pt x="540" y="403" on="0"/>
        <pt x="415" y="360" on="1"/>
        <pt x="485" y="350" on="0"/>
        <pt x="570" y="275" on="0"/>
        <pt x="570" y="209" on="1"/>
        <pt x="570" y="111" on="0"/>
        <pt x="438" y="0" on="0"/>
        <pt x="312" y="0" on="1"/>
        <pt x="42" y="0" on="1"/>
        <pt x="43" y="62" on="0"/>
        <pt x="82" y="66" on="1"/>
        <pt x="114" y="70" on="1"/>
        <pt x="114" y="615" on="1"/>
        <pt x="41" y="621" on="1"/>
        <pt x="38" y="647" on="0"/>
        <pt x="63" y="685" on="0"/>
      </contour>
      <contour>
        <pt x="239" y="621" on="1"/>
        <pt x="239" y="382" on="1"/>
        <pt x="260" y="382" on="1"/>
        <pt x="340" y="382" on="0"/>
        <pt x="410" y="446" on="0"/>
        <pt x="410" y="572" on="0"/>
        <pt x="338" y="627" on="0"/>
        <pt x="280" y="623" on="1"/>
        <pt x="242" y="621" on="1"/>
      </contour>
      <contour>
        <pt x="442" y="195" on="1"/>
        <pt x="442" y="324" on="0"/>
        <pt x="272" y="322" on="1"/>
        <pt x="239" y="322" on="1"/>
        <pt x="239" y="72" on="1"/>
        <pt x="287" y="71" on="1"/>
        <pt x="442" y="70" on="0"/>
      </contour>
    </TTGlyph>
    <TTGlyph name="C" xMin="35" yMin="-15" xMax="572" yMax="700">
      <contour>
        <pt x="370" y="700" on="1"/>
        <pt x="457" y="700" on="0"/>
        <pt x="566" y="623" on="0"/>
        <pt x="566" y="569" on="1"/>
        <pt x="566" y="529" on="0"/>
        <pt x="512" y="485" on="0"/>
        <pt x="466" y="485" on="1"/>
        <pt x="466" y="614" on="0"/>
        <pt x="358" y="614" on="1"/>
        <pt x="266" y="614" on="0"/>
        <pt x="165" y="465" on="0"/>
        <pt x="165" y="210" on="0"/>
        <pt x="263" y="74" on="0"/>
        <pt x="475" y="74" on="0"/>
        <pt x="556" y="135" on="1"/>
        <pt x="572" y="125" on="0"/>
        <pt x="572" y="103" on="1"/>
        <pt x="572" y="62" on="0"/>
        <pt x="430" y="-15" on="0"/>
        <pt x="334" y="-15" on="1"/>
        <pt x="186" y="-15" on="0"/>
        <pt x="35" y="168" on="0"/>
        <pt x="35" y="500" on="0"/>
        <pt x="206" y="700" on="0"/>
      </contour>
    </TTGlyph>
    <TTGlyph name="Cacute" xMin="35" yMin="-15" xMax="572" yMax="910">
      <contour>
        <pt x="514" y="842" on="1"/>
        <pt x="307" y="732" on="1"/>
        <pt x="276" y="748" on="0"/>
        <pt x="265" y="773" on="1"/>
        <pt x="432" y="910" on="1"/>
        <pt x="455" y="905" on="0"/>
        <pt x="505" y="860" on="0"/>
      </contour>
      <contour>
        <pt x="370" y="700" on="1"/>
        <pt x="457" y="700" on="0"/>
        <pt x="566" y="623" on="0"/>
        <pt x="566" y="569" on="1"/>
        <pt x="566" y="529" on="0"/>
        <pt x="512" y="485" on="0"/>
        <pt x="466" y="485" on="1"/>
        <pt x="466" y="614" on="0"/>
        <pt x="358" y="614" on="1"/>
        <pt x="266" y="614" on="0"/>
        <pt x="165" y="465" on="0"/>
        <pt x="165" y="210" on="0"/>
        <pt x="263" y="74" on="0"/>
        <pt x="475" y="74" on="0"/>
        <pt x="556" y="135" on="1"/>
        <pt x="572" y="125" on="0"/>
        <pt x="572" y="103" on="1"/>
        <pt x="572" y="62" on="0"/>
        <pt x="430" y="-15" on="0"/>
        <pt x="334" y="-15" on="1"/>
        <pt x="186" y="-15" on="0"/>
        <pt x="35" y="168" on="0"/>
        <pt x="35" y="500" on="0"/>
        <pt x="206" y="700" on="0"/>
      </contour>
    </TTGlyph>
    <TTGlyph name="Ccaron" xMin="35" yMin="-15" xMax="572" yMax="905">
      <contour>
        <pt x="572" y="103" on="1"/>
        <pt x="572" y="62" on="0"/>
        <pt x="430" y="-15" on="0"/>
        <pt x="334" y="-15" on="1"/>
        <pt x="186" y="-15" on="0"/>
        <pt x="35" y="168" on="0"/>
        <pt x="35" y="500" on="0"/>
        <pt x="206" y="700" on="0"/>
        <pt x="370" y="700" on="1"/>
        <pt x="457" y="700" on="0"/>
        <pt x="566" y="623" on="0"/>
        <pt x="566" y="569" on="1"/>
        <pt x="566" y="529" on="0"/>
        <pt x="512" y="485" on="0"/>
        <pt x="466" y="485" on="1"/>
        <pt x="466" y="614" on="0"/>
        <pt x="358" y="614" on="1"/>
        <pt x="266" y="614" on="0"/>
        <pt x="165" y="465" on="0"/>
        <pt x="165" y="210" on="0"/>
        <pt x="263" y="74" on="0"/>
        <pt x="475" y="74" on="0"/>
        <pt x="556" y="135" on="1"/>
        <pt x="572" y="125" on="0"/>
      </contour>
      <contour>
        <pt x="520" y="867" on="1"/>
        <pt x="385" y="741" on="1"/>
        <pt x="350" y="732" on="0"/>
        <pt x="309" y="741" on="1"/>
        <pt x="170" y="867" on="1"/>
        <pt x="183" y="892" on="0"/>
        <pt x="205" y="905" on="1"/>
        <pt x="345" y="819" on="1"/>
        <pt x="483" y="905" on="1"/>
        <pt x="503" y="894" on="0"/>
      </contour>
    </TTGlyph>
    <TTGlyph name="Ccedilla" xMin="35" yMin="-205" xMax="572" yMax="700">
      <contour>
        <pt x="173" y="-6" on="0"/>
        <pt x="35" y="176" on="0"/>
        <pt x="35" y="500" on="0"/>
        <pt x="206" y="700" on="0"/>
        <pt x="370" y="700" on="1"/>
        <pt x="457" y="700" on="0"/>
        <pt x="566" y="623" on="0"/>
        <pt x="566" y="569" on="1"/>
        <pt x="566" y="529" on="0"/>
        <pt x="512" y="485" on="0"/>
        <pt x="466" y="485" on="1"/>
        <pt x="466" y="614" on="0"/>
        <pt x="358" y="614" on="1"/>
        <pt x="266" y="614" on="0"/>
        <pt x="165" y="465" on="0"/>
        <pt x="165" y="210" on="0"/>
        <pt x="263" y="74" on="0"/>
        <pt x="475" y="74" on="0"/>
        <pt x="556" y="135" on="1"/>
        <pt x="572" y="125" on="0"/>
        <pt x="572" y="103" on="1"/>
        <pt x="572" y="66" on="0"/>
        <pt x="448" y="-8" on="0"/>
        <pt x="362" y="-14" on="1"/>
        <pt x="354" y="-46" on="1"/>
        <pt x="396" y="-46" on="0"/>
        <pt x="438" y="-90" on="0"/>
        <pt x="438" y="-156" on="0"/>
        <pt x="382" y="-205" on="0"/>
        <pt x="289" y="-205" on="0"/>
        <pt x="263" y="-177" on="1"/>
        <pt x="262" y="-166" on="0"/>
        <pt x="270" y="-138" on="0"/>
        <pt x="275" y="-135" on="1"/>
        <pt x="293" y="-150" on="0"/>
        <pt x="358" y="-150" on="0"/>
        <pt x="358" y="-120" on="1"/>
        <pt x="358" y="-103" on="0"/>
        <pt x="330" y="-86" on="0"/>
        <pt x="289" y="-86" on="1"/>
        <pt x="308" y="-14" on="1"/>
      </contour>
    </TTGlyph>
    <TTGlyph name="Ccircumflex" xMin="35" yMin="-15" xMax="572" yMax="887">
      <contour>
        <pt x="572" y="103" on="1"/>
        <pt x="572" y="62" on="0"/>
        <pt x="430" y="-15" on="0"/>
        <pt x="334" y="-15" on="1"/>
        <pt x="186" y="-15" on="0"/>
        <pt x="35" y="168" on="0"/>
        <pt x="35" y="500" on="0"/>
        <pt x="206" y="700" on="0"/>
        <pt x="370" y="700" on="1"/>
        <pt x="457" y="700" on="0"/>
        <pt x="566" y="623" on="0"/>
        <pt x="566" y="569" on="1"/>
        <pt x="566" y="529" on="0"/>
        <pt x="512" y="485" on="0"/>
        <pt x="466" y="485" on="1"/>
        <pt x="466" y="614" on="0"/>
        <pt x="358" y="614" on="1"/>
        <pt x="266" y="614" on="0"/>
        <pt x="165" y="465" on="0"/>
        <pt x="165" y="210" on="0"/>
        <pt x="263" y="74" on="0"/>
        <pt x="475" y="74" on="0"/>
        <pt x="556" y="135" on="1"/>
        <pt x="572" y="125" on="0"/>
      </contour>
      <contour>
        <pt x="347" y="809" on="1"/>
        <pt x="207" y="723" on="1"/>
        <pt x="185" y="736" on="0"/>
        <pt x="172" y="761" on="1"/>
        <pt x="311" y="887" on="1"/>
        <pt x="352" y="896" on="0"/>
        <pt x="387" y="887" on="1"/>
        <pt x="522" y="761" on="1"/>
        <pt x="505" y="734" on="0"/>
        <pt x="485" y="723" on="1"/>
      </contour>
    </TTGlyph>
    <TTGlyph name="Cdotaccent" xMin="35" yMin="-15" xMax="572" yMax="894">
      <contour>
        <pt x="370" y="700" on="1"/>
        <pt x="457" y="700" on="0"/>
        <pt x="566" y="623" on="0"/>
        <pt x="566" y="569" on="1"/>
        <pt x="566" y="529" on="0"/>
        <pt x="512" y="485" on="0"/>
        <pt x="466" y="485" on="1"/>
        <pt x="466" y="614" on="0"/>
        <pt x="358" y="614" on="1"/>
        <pt x="266" y="614" on="0"/>
        <pt x="165" y="465" on="0"/>
        <pt x="165" y="210" on="0"/>
        <pt x="263" y="74" on="0"/>
        <pt x="475" y="74" on="0"/>
        <pt x="556" y="135" on="1"/>
        <pt x="572" y="125" on="0"/>
        <pt x="572" y="103" on="1"/>
        <pt x="572" y="62" on="0"/>
        <pt x="430" y="-15" on="0"/>
        <pt x="334" y="-15" on="1"/>
        <pt x="186" y="-15" on="0"/>
        <pt x="35" y="168" on="0"/>
        <pt x="35" y="500" on="0"/>
        <pt x="206" y="700" on="0"/>
      </contour>
      <contour>
        <pt x="384" y="746" on="0"/>
        <pt x="322" y="746" on="0"/>
        <pt x="279" y="789" on="0"/>
        <pt x="279" y="851" on="0"/>
        <pt x="322" y="894" on="0"/>
        <pt x="384" y="894" on="0"/>
        <pt x="427" y="851" on="0"/>
        <pt x="427" y="788" on="0"/>
      </contour>
    </TTGlyph>
    <TTGlyph name="D" xMin="41" yMin="0" xMax="677" yMax="685">
      <contour>
        <pt x="93" y="685" on="1"/>
        <pt x="327" y="685" on="1"/>
        <pt x="677" y="685" on="0"/>
        <pt x="677" y="346" on="1"/>
        <pt x="677" y="178" on="0"/>
        <pt x="495" y="0" on="0"/>
        <pt x="332" y="0" on="1"/>
        <pt x="41" y="0" on="1"/>
        <pt x="38" y="24" on="0"/>
        <pt x="55" y="64" on="0"/>
        <pt x="76" y="66" on="1"/>
        <pt x="112" y="70" on="1"/>
        <pt x="112" y="614" on="1"/>
        <pt x="111" y="614" on="1"/>
        <pt x="41" y="620" on="1"/>
        <pt x="40" y="655" on="0"/>
        <pt x="62" y="685" on="0"/>
      </contour>
      <contour>
        <pt x="431" y="61" on="0"/>
        <pt x="547" y="191" on="0"/>
        <pt x="547" y="492" on="0"/>
        <pt x="428" y="621" on="0"/>
        <pt x="293" y="616" on="1"/>
        <pt x="237" y="614" on="1"/>
        <pt x="237" y="73" on="1"/>
        <pt x="302" y="69" on="1"/>
      </contour>
    </TTGlyph>
    <TTGlyph name="Dcaron" xMin="41" yMin="0" xMax="677" yMax="905">
      <contour>
        <pt x="93" y="685" on="1"/>
        <pt x="327" y="685" on="1"/>
        <pt x="677" y="685" on="0"/>
        <pt x="677" y="346" on="1"/>
        <pt x="677" y="178" on="0"/>
        <pt x="495" y="0" on="0"/>
        <pt x="332" y="0" on="1"/>
        <pt x="41" y="0" on="1"/>
        <pt x="38" y="24" on="0"/>
        <pt x="55" y="64" on="0"/>
        <pt x="76" y="66" on="1"/>
        <pt x="112" y="70" on="1"/>
        <pt x="112" y="614" on="1"/>
        <pt x="111" y="614" on="1"/>
        <pt x="41" y="620" on="1"/>
        <pt x="40" y="655" on="0"/>
        <pt x="62" y="685" on="0"/>
      </contour>
      <contour>
        <pt x="431" y="61" on="0"/>
        <pt x="547" y="191" on="0"/>
        <pt x="547" y="492" on="0"/>
        <pt x="428" y="621" on="0"/>
        <pt x="293" y="616" on="1"/>
        <pt x="237" y="614" on="1"/>
        <pt x="237" y="73" on="1"/>
        <pt x="302" y="69" on="1"/>
      </contour>
      <contour>
        <pt x="497" y="867" on="1"/>
        <pt x="362" y="741" on="1"/>
        <pt x="327" y="732" on="0"/>
        <pt x="286" y="741" on="1"/>
        <pt x="147" y="867" on="1"/>
        <pt x="160" y="892" on="0"/>
        <pt x="182" y="905" on="1"/>
        <pt x="322" y="819" on="1"/>
        <pt x="460" y="905" on="1"/>
        <pt x="480" y="894" on="0"/>
      </contour>
    </TTGlyph>
    <TTGlyph name="Dcroat" xMin="41" yMin="0" xMax="677" yMax="685">
      <contour>
        <pt x="93" y="685" on="1"/>
        <pt x="327" y="685" on="1"/>
        <pt x="677" y="685" on="0"/>
        <pt x="677" y="346" on="1"/>
        <pt x="677" y="178" on="0"/>
        <pt x="495" y="0" on="0"/>
        <pt x="332" y="0" on="1"/>
        <pt x="41" y="0" on="1"/>
        <pt x="38" y="24" on="0"/>
        <pt x="55" y="64" on="0"/>
        <pt x="76" y="66" on="1"/>
        <pt x="112" y="70" on="1"/>
        <pt x="112" y="302" on="1"/>
        <pt x="54" y="302" on="1"/>
        <pt x="54" y="372" on="1"/>
        <pt x="112" y="372" on="1"/>
        <pt x="112" y="614" on="1"/>
        <pt x="111" y="614" on="1"/>
        <pt x="41" y="620" on="1"/>
        <pt x="40" y="655" on="0"/>
        <pt x="62" y="685" on="0"/>
      </contour>
      <contour>
        <pt x="431" y="61" on="0"/>
        <pt x="547" y="191" on="0"/>
        <pt x="547" y="492" on="0"/>
        <pt x="428" y="621" on="0"/>
        <pt x="293" y="616" on="1"/>
        <pt x="237" y="614" on="1"/>
        <pt x="237" y="372" on="1"/>
        <pt x="379" y="372" on="1"/>
        <pt x="379" y="302" on="1"/>
        <pt x="237" y="302" on="1"/>
        <pt x="237" y="73" on="1"/>
        <pt x="302" y="69" on="1"/>
      </contour>
    </TTGlyph>
    <TTGlyph name="E" xMin="40" yMin="0" xMax="543" yMax="685">
      <contour>
        <pt x="543" y="163" on="1"/>
        <pt x="543" y="0" on="1"/>
        <pt x="40" y="0" on="1"/>
        <pt x="40" y="64" on="0"/>
        <pt x="84" y="67" on="1"/>
        <pt x="113" y="69" on="1"/>
        <pt x="113" y="614" on="1"/>
        <pt x="41" y="620" on="1"/>
        <pt x="38" y="626" on="0"/>
        <pt x="42" y="647" on="1"/>
        <pt x="51" y="685" on="0"/>
        <pt x="86" y="685" on="1"/>
        <pt x="524" y="685" on="1"/>
        <pt x="524" y="534" on="1"/>
        <pt x="524" y="489" on="0"/>
        <pt x="460" y="495" on="1"/>
        <pt x="451" y="613" on="1"/>
        <pt x="238" y="616" on="1"/>
        <pt x="238" y="368" on="1"/>
        <pt x="417" y="389" on="1"/>
        <pt x="428" y="341" on="0"/>
        <pt x="418" y="290" on="1"/>
        <pt x="238" y="300" on="1"/>
        <pt x="238" y="71" on="1"/>
        <pt x="471" y="79" on="1"/>
        <pt x="479" y="202" on="1"/>
        <pt x="543" y="208" on="0"/>
      </contour>
    </TTGlyph>
    <TTGlyph name="Eacute" xMin="40" yMin="0" xMax="543" yMax="910">
      <contour>
        <pt x="488" y="842" on="1"/>
        <pt x="281" y="732" on="1"/>
        <pt x="250" y="748" on="0"/>
        <pt x="239" y="773" on="1"/>
        <pt x="406" y="910" on="1"/>
        <pt x="429" y="905" on="0"/>
        <pt x="479" y="860" on="0"/>
      </contour>
      <contour>
        <pt x="543" y="163" on="1"/>
        <pt x="543" y="0" on="1"/>
        <pt x="40" y="0" on="1"/>
        <pt x="40" y="64" on="0"/>
        <pt x="84" y="67" on="1"/>
        <pt x="113" y="69" on="1"/>
        <pt x="113" y="614" on="1"/>
        <pt x="41" y="620" on="1"/>
        <pt x="38" y="626" on="0"/>
        <pt x="42" y="647" on="1"/>
        <pt x="51" y="685" on="0"/>
        <pt x="86" y="685" on="1"/>
        <pt x="524" y="685" on="1"/>
        <pt x="524" y="534" on="1"/>
        <pt x="524" y="489" on="0"/>
        <pt x="460" y="495" on="1"/>
        <pt x="451" y="613" on="1"/>
        <pt x="238" y="616" on="1"/>
        <pt x="238" y="368" on="1"/>
        <pt x="417" y="389" on="1"/>
        <pt x="428" y="341" on="0"/>
        <pt x="418" y="290" on="1"/>
        <pt x="238" y="300" on="1"/>
        <pt x="238" y="71" on="1"/>
        <pt x="471" y="79" on="1"/>
        <pt x="479" y="202" on="1"/>
        <pt x="543" y="208" on="0"/>
      </contour>
    </TTGlyph>
    <TTGlyph name="Ebreve" xMin="40" yMin="0" xMax="543" yMax="906">
      <contour>
        <pt x="543" y="163" on="1"/>
        <pt x="543" y="0" on="1"/>
        <pt x="40" y="0" on="1"/>
        <pt x="40" y="64" on="0"/>
        <pt x="84" y="67" on="1"/>
        <pt x="113" y="69" on="1"/>
        <pt x="113" y="614" on="1"/>
        <pt x="41" y="620" on="1"/>
        <pt x="38" y="626" on="0"/>
        <pt x="42" y="647" on="1"/>
        <pt x="51" y="685" on="0"/>
        <pt x="86" y="685" on="1"/>
        <pt x="524" y="685" on="1"/>
        <pt x="524" y="534" on="1"/>
        <pt x="524" y="489" on="0"/>
        <pt x="460" y="495" on="1"/>
        <pt x="451" y="613" on="1"/>
        <pt x="238" y="616" on="1"/>
        <pt x="238" y="368" on="1"/>
        <pt x="417" y="389" on="1"/>
        <pt x="428" y="341" on="0"/>
        <pt x="418" y="290" on="1"/>
        <pt x="238" y="300" on="1"/>
        <pt x="238" y="71" on="1"/>
        <pt x="471" y="79" on="1"/>
        <pt x="479" y="202" on="1"/>
        <pt x="543" y="208" on="0"/>
      </contour>
      <contour>
        <pt x="323" y="824" on="1"/>
        <pt x="416" y="824" on="0"/>
        <pt x="451" y="906" on="1"/>
        <pt x="487" y="886" on="1"/>
        <pt x="479" y="826" on="0"/>
        <pt x="395" y="739" on="0"/>
        <pt x="249" y="739" on="0"/>
        <pt x="165" y="826" on="0"/>
        <pt x="157" y="886" on="1"/>
        <pt x="193" y="906" on="1"/>
        <pt x="206" y="876" on="0"/>
        <pt x="270" y="824" on="0"/>
      </contour>
    </TTGlyph>
    <TTGlyph name="Ecaron" xMin="40" yMin="0" xMax="543" yMax="905">
      <contour>
        <pt x="543" y="163" on="1"/>
        <pt x="543" y="0" on="1"/>
        <pt x="40" y="0" on="1"/>
        <pt x="40" y="64" on="0"/>
        <pt x="84" y="67" on="1"/>
        <pt x="113" y="69" on="1"/>
        <pt x="113" y="614" on="1"/>
        <pt x="41" y="620" on="1"/>
        <pt x="38" y="626" on="0"/>
        <pt x="42" y="647" on="1"/>
        <pt x="51" y="685" on="0"/>
        <pt x="86" y="685" on="1"/>
        <pt x="524" y="685" on="1"/>
        <pt x="524" y="534" on="1"/>
        <pt x="524" y="489" on="0"/>
        <pt x="460" y="495" on="1"/>
        <pt x="451" y="613" on="1"/>
        <pt x="238" y="616" on="1"/>
        <pt x="238" y="368" on="1"/>
        <pt x="417" y="389" on="1"/>
        <pt x="428" y="341" on="0"/>
        <pt x="418" y="290" on="1"/>
        <pt x="238" y="300" on="1"/>
        <pt x="238" y="71" on="1"/>
        <pt x="471" y="79" on="1"/>
        <pt x="479" y="202" on="1"/>
        <pt x="543" y="208" on="0"/>
      </contour>
      <contour>
        <pt x="494" y="867" on="1"/>
        <pt x="359" y="741" on="1"/>
        <pt x="324" y="732" on="0"/>
        <pt x="283" y="741" on="1"/>
        <pt x="144" y="867" on="1"/>
        <pt x="157" y="892" on="0"/>
        <pt x="179" y="905" on="1"/>
        <pt x="319" y="819" on="1"/>
        <pt x="457" y="905" on="1"/>
        <pt x="477" y="894" on="0"/>
      </contour>
    </TTGlyph>
    <TTGlyph name="Ecircumflex" xMin="40" yMin="0" xMax="543" yMax="887">
      <contour>
        <pt x="543" y="163" on="1"/>
        <pt x="543" y="0" on="1"/>
        <pt x="40" y="0" on="1"/>
        <pt x="40" y="64" on="0"/>
        <pt x="84" y="67" on="1"/>
        <pt x="113" y="69" on="1"/>
        <pt x="113" y="614" on="1"/>
        <pt x="41" y="620" on="1"/>
        <pt x="38" y="626" on="0"/>
        <pt x="42" y="647" on="1"/>
        <pt x="51" y="685" on="0"/>
        <pt x="86" y="685" on="1"/>
        <pt x="524" y="685" on="1"/>
        <pt x="524" y="534" on="1"/>
        <pt x="524" y="489" on="0"/>
        <pt x="460" y="495" on="1"/>
        <pt x="451" y="613" on="1"/>
        <pt x="238" y="616" on="1"/>
        <pt x="238" y="368" on="1"/>
        <pt x="417" y="389" on="1"/>
        <pt x="428" y="341" on="0"/>
        <pt x="418" y="290" on="1"/>
        <pt x="238" y="300" on="1"/>
        <pt x="238" y="71" on="1"/>
        <pt x="471" y="79" on="1"/>
        <pt x="479" y="202" on="1"/>
        <pt x="543" y="208" on="0"/>
      </contour>
      <contour>
        <pt x="321" y="809" on="1"/>
        <pt x="181" y="723" on="1"/>
        <pt x="159" y="736" on="0"/>
        <pt x="146" y="761" on="1"/>
        <pt x="285" y="887" on="1"/>
        <pt x="326" y="896" on="0"/>
        <pt x="361" y="887" on="1"/>
        <pt x="496" y="761" on="1"/>
        <pt x="479" y="734" on="0"/>
        <pt x="459" y="723" on="1"/>
      </contour>
    </TTGlyph>
    <TTGlyph name="Edieresis" xMin="40" yMin="0" xMax="543" yMax="894">
      <contour>
        <pt x="482" y="795" on="0"/>
        <pt x="441" y="754" on="0"/>
        <pt x="382" y="754" on="0"/>
        <pt x="341" y="795" on="0"/>
        <pt x="341" y="852" on="0"/>
        <pt x="382" y="894" on="0"/>
        <pt x="441" y="894" on="0"/>
        <pt x="482" y="853" on="0"/>
      </contour>
      <contour>
        <pt x="250" y="754" on="0"/>
        <pt x="192" y="754" on="0"/>
        <pt x="150" y="795" on="0"/>
        <pt x="150" y="853" on="0"/>
        <pt x="192" y="894" on="0"/>
        <pt x="250" y="894" on="0"/>
        <pt x="291" y="853" on="0"/>
        <pt x="291" y="795" on="0"/>
      </contour>
      <contour>
        <pt x="543" y="163" on="1"/>
        <pt x="543" y="0" on="1"/>
        <pt x="40" y="0" on="1"/>
        <pt x="40" y="64" on="0"/>
        <pt x="84" y="67" on="1"/>
        <pt x="113" y="69" on="1"/>
        <pt x="113" y="614" on="1"/>
        <pt x="41" y="620" on="1"/>
        <pt x="38" y="626" on="0"/>
        <pt x="42" y="647" on="1"/>
        <pt x="51" y="685" on="0"/>
        <pt x="86" y="685" on="1"/>
        <pt x="524" y="685" on="1"/>
        <pt x="524" y="534" on="1"/>
        <pt x="524" y="489" on="0"/>
        <pt x="460" y="495" on="1"/>
        <pt x="451" y="613" on="1"/>
        <pt x="238" y="616" on="1"/>
        <pt x="238" y="368" on="1"/>
        <pt x="417" y="389" on="1"/>
        <pt x="428" y="341" on="0"/>
        <pt x="418" y="290" on="1"/>
        <pt x="238" y="300" on="1"/>
        <pt x="238" y="71" on="1"/>
        <pt x="471" y="79" on="1"/>
        <pt x="479" y="202" on="1"/>
        <pt x="543" y="208" on="0"/>
      </contour>
    </TTGlyph>
    <TTGlyph name="Edotaccent" xMin="40" yMin="0" xMax="543" yMax="894">
      <contour>
        <pt x="358" y="746" on="0"/>
        <pt x="296" y="746" on="0"/>
        <pt x="253" y="789" on="0"/>
        <pt x="253" y="851" on="0"/>
        <pt x="296" y="894" on="0"/>
        <pt x="358" y="894" on="0"/>
        <pt x="401" y="851" on="0"/>
        <pt x="401" y="788" on="0"/>
      </contour>
      <contour>
        <pt x="543" y="163" on="1"/>
        <pt x="543" y="0" on="1"/>
        <pt x="40" y="0" on="1"/>
        <pt x="40" y="64" on="0"/>
        <pt x="84" y="67" on="1"/>
        <pt x="113" y="69" on="1"/>
        <pt x="113" y="614" on="1"/>
        <pt x="41" y="620" on="1"/>
        <pt x="38" y="626" on="0"/>
        <pt x="42" y="647" on="1"/>
        <pt x="51" y="685" on="0"/>
        <pt x="86" y="685" on="1"/>
        <pt x="524" y="685" on="1"/>
        <pt x="524" y="534" on="1"/>
        <pt x="524" y="489" on="0"/>
        <pt x="460" y="495" on="1"/>
        <pt x="451" y="613" on="1"/>
        <pt x="238" y="616" on="1"/>
        <pt x="238" y="368" on="1"/>
        <pt x="417" y="389" on="1"/>
        <pt x="428" y="341" on="0"/>
        <pt x="418" y="290" on="1"/>
        <pt x="238" y="300" on="1"/>
        <pt x="238" y="71" on="1"/>
        <pt x="471" y="79" on="1"/>
        <pt x="479" y="202" on="1"/>
        <pt x="543" y="208" on="0"/>
      </contour>
    </TTGlyph>
    <TTGlyph name="Egrave" xMin="40" yMin="0" xMax="543" yMax="910">
      <contour>
        <pt x="376" y="732" on="1"/>
        <pt x="169" y="842" on="1"/>
        <pt x="178" y="860" on="0"/>
        <pt x="228" y="905" on="0"/>
        <pt x="251" y="910" on="1"/>
        <pt x="418" y="773" on="1"/>
        <pt x="407" y="748" on="0"/>
      </contour>
      <contour>
        <pt x="543" y="163" on="1"/>
        <pt x="543" y="0" on="1"/>
        <pt x="40" y="0" on="1"/>
        <pt x="40" y="64" on="0"/>
        <pt x="84" y="67" on="1"/>
        <pt x="113" y="69" on="1"/>
        <pt x="113" y="614" on="1"/>
        <pt x="41" y="620" on="1"/>
        <pt x="38" y="626" on="0"/>
        <pt x="42" y="647" on="1"/>
        <pt x="51" y="685" on="0"/>
        <pt x="86" y="685" on="1"/>
        <pt x="524" y="685" on="1"/>
        <pt x="524" y="534" on="1"/>
        <pt x="524" y="489" on="0"/>
        <pt x="460" y="495" on="1"/>
        <pt x="451" y="613" on="1"/>
        <pt x="238" y="616" on="1"/>
        <pt x="238" y="368" on="1"/>
        <pt x="417" y="389" on="1"/>
        <pt x="428" y="341" on="0"/>
        <pt x="418" y="290" on="1"/>
        <pt x="238" y="300" on="1"/>
        <pt x="238" y="71" on="1"/>
        <pt x="471" y="79" on="1"/>
        <pt x="479" y="202" on="1"/>
        <pt x="543" y="208" on="0"/>
      </contour>
    </TTGlyph>
    <TTGlyph name="Emacron" xMin="40" yMin="0" xMax="543" yMax="828">
      <contour>
        <pt x="173" y="828" on="1"/>
        <pt x="468" y="828" on="1"/>
        <pt x="468" y="758" on="1"/>
        <pt x="173" y="758" on="1"/>
      </contour>
      <contour>
        <pt x="543" y="163" on="1"/>
        <pt x="543" y="0" on="1"/>
        <pt x="40" y="0" on="1"/>
        <pt x="40" y="64" on="0"/>
        <pt x="84" y="67" on="1"/>
        <pt x="113" y="69" on="1"/>
        <pt x="113" y="614" on="1"/>
        <pt x="41" y="620" on="1"/>
        <pt x="38" y="626" on="0"/>
        <pt x="42" y="647" on="1"/>
        <pt x="51" y="685" on="0"/>
        <pt x="86" y="685" on="1"/>
        <pt x="524" y="685" on="1"/>
        <pt x="524" y="534" on="1"/>
        <pt x="524" y="489" on="0"/>
        <pt x="460" y="495" on="1"/>
        <pt x="451" y="613" on="1"/>
        <pt x="238" y="616" on="1"/>
        <pt x="238" y="368" on="1"/>
        <pt x="417" y="389" on="1"/>
        <pt x="428" y="341" on="0"/>
        <pt x="418" y="290" on="1"/>
        <pt x="238" y="300" on="1"/>
        <pt x="238" y="71" on="1"/>
        <pt x="471" y="79" on="1"/>
        <pt x="479" y="202" on="1"/>
        <pt x="543" y="208" on="0"/>
      </contour>
    </TTGlyph>
    <TTGlyph name="Eng" xMin="40" yMin="-187" xMax="680" yMax="685">
      <contour>
        <pt x="503" y="685" on="1"/>
        <pt x="680" y="685" on="1"/>
        <pt x="680" y="685" on="0"/>
        <pt x="680" y="677" on="1"/>
        <pt x="680" y="622" on="0"/>
        <pt x="636" y="618" on="1"/>
        <pt x="607" y="616" on="1"/>
        <pt x="607" y="39" on="1"/>
        <pt x="607" y="-59" on="0"/>
        <pt x="504" y="-187" on="0"/>
        <pt x="417" y="-187" on="1"/>
        <pt x="369" y="-187" on="0"/>
        <pt x="311" y="-138" on="0"/>
        <pt x="311" y="-104" on="1"/>
        <pt x="311" y="-24" on="0"/>
        <pt x="396" y="-24" on="1"/>
        <pt x="396" y="-103" on="0"/>
        <pt x="446" y="-103" on="1"/>
        <pt x="485" y="-103" on="0"/>
        <pt x="522" y="-34" on="0"/>
        <pt x="522" y="9" on="1"/>
        <pt x="190" y="506" on="1"/>
        <pt x="190" y="71" on="1"/>
        <pt x="262" y="65" on="1"/>
        <pt x="268" y="0" on="0"/>
        <pt x="217" y="0" on="1"/>
        <pt x="40" y="0" on="1"/>
        <pt x="40" y="8" on="1"/>
        <pt x="40" y="63" on="0"/>
        <pt x="84" y="67" on="1"/>
        <pt x="113" y="69" on="1"/>
        <pt x="113" y="614" on="1"/>
        <pt x="41" y="620" on="1"/>
        <pt x="38" y="626" on="0"/>
        <pt x="42" y="647" on="1"/>
        <pt x="51" y="685" on="0"/>
        <pt x="86" y="685" on="1"/>
        <pt x="216" y="685" on="1"/>
        <pt x="529" y="218" on="1"/>
        <pt x="529" y="614" on="1"/>
        <pt x="458" y="620" on="1"/>
        <pt x="452" y="685" on="0"/>
      </contour>
    </TTGlyph>
    <TTGlyph name="Eogonek" xMin="40" yMin="-187" xMax="549" yMax="685">
      <contour>
        <pt x="543" y="0" on="1"/>
        <pt x="501" y="0" on="1"/>
        <pt x="449" y="-29" on="0"/>
        <pt x="449" y="-85" on="1"/>
        <pt x="449" y="-109" on="0"/>
        <pt x="472" y="-134" on="0"/>
        <pt x="516" y="-134" on="0"/>
        <pt x="542" y="-113" on="1"/>
        <pt x="546" y="-116" on="0"/>
        <pt x="551" y="-145" on="0"/>
        <pt x="549" y="-154" on="1"/>
        <pt x="526" y="-187" on="0"/>
        <pt x="422" y="-187" on="0"/>
        <pt x="372" y="-141" on="0"/>
        <pt x="372" y="-108" on="1"/>
        <pt x="372" y="-44" on="0"/>
        <pt x="436" y="0" on="1"/>
        <pt x="40" y="0" on="1"/>
        <pt x="40" y="64" on="0"/>
        <pt x="84" y="67" on="1"/>
        <pt x="113" y="69" on="1"/>
        <pt x="113" y="614" on="1"/>
        <pt x="41" y="620" on="1"/>
        <pt x="38" y="626" on="0"/>
        <pt x="42" y="647" on="1"/>
        <pt x="51" y="685" on="0"/>
        <pt x="86" y="685" on="1"/>
        <pt x="524" y="685" on="1"/>
        <pt x="524" y="534" on="1"/>
        <pt x="524" y="489" on="0"/>
        <pt x="460" y="495" on="1"/>
        <pt x="451" y="613" on="1"/>
        <pt x="238" y="616" on="1"/>
        <pt x="238" y="368" on="1"/>
        <pt x="417" y="389" on="1"/>
        <pt x="428" y="341" on="0"/>
        <pt x="418" y="290" on="1"/>
        <pt x="238" y="300" on="1"/>
        <pt x="238" y="71" on="1"/>
        <pt x="471" y="79" on="1"/>
        <pt x="479" y="202" on="1"/>
        <pt x="543" y="208" on="0"/>
        <pt x="543" y="163" on="1"/>
      </contour>
    </TTGlyph>
    <TTGlyph name="Eth" xMin="41" yMin="0" xMax="677" yMax="685">
      <contour>
        <pt x="93" y="685" on="1"/>
        <pt x="327" y="685" on="1"/>
        <pt x="677" y="685" on="0"/>
        <pt x="677" y="346" on="1"/>
        <pt x="677" y="178" on="0"/>
        <pt x="495" y="0" on="0"/>
        <pt x="332" y="0" on="1"/>
        <pt x="41" y="0" on="1"/>
        <pt x="38" y="24" on="0"/>
        <pt x="55" y="64" on="0"/>
        <pt x="76" y="66" on="1"/>
        <pt x="112" y="70" on="1"/>
        <pt x="112" y="302" on="1"/>
        <pt x="54" y="302" on="1"/>
        <pt x="54" y="372" on="1"/>
        <pt x="112" y="372" on="1"/>
        <pt x="112" y="614" on="1"/>
        <pt x="111" y="614" on="1"/>
        <pt x="41" y="620" on="1"/>
        <pt x="40" y="655" on="0"/>
        <pt x="62" y="685" on="0"/>
      </contour>
      <contour>
        <pt x="431" y="61" on="0"/>
        <pt x="547" y="191" on="0"/>
        <pt x="547" y="492" on="0"/>
        <pt x="428" y="621" on="0"/>
        <pt x="293" y="616" on="1"/>
        <pt x="237" y="614" on="1"/>
        <pt x="237" y="372" on="1"/>
        <pt x="379" y="372" on="1"/>
        <pt x="379" y="302" on="1"/>
        <pt x="237" y="302" on="1"/>
        <pt x="237" y="73" on="1"/>
        <pt x="302" y="69" on="1"/>
      </contour>
    </TTGlyph>
    <TTGlyph name="Euro" xMin="32" yMin="-16" xMax="520" yMax="630">
      <contour>
        <pt x="377" y="206" on="1"/>
        <pt x="211" y="206" on="1"/>
        <pt x="245" y="64" on="0"/>
        <pt x="363" y="64" on="1"/>
        <pt x="425" y="64" on="0"/>
        <pt x="499" y="118" on="1"/>
        <pt x="513" y="109" on="0"/>
        <pt x="513" y="87" on="1"/>
        <pt x="513" y="43" on="0"/>
        <pt x="403" y="-16" on="0"/>
        <pt x="331" y="-16" on="1"/>
        <pt x="232" y="-16" on="0"/>
        <pt x="111" y="104" on="0"/>
        <pt x="92" y="206" on="1"/>
        <pt x="32" y="206" on="1"/>
        <pt x="32" y="273" on="1"/>
        <pt x="85" y="273" on="1"/>
        <pt x="84" y="281" on="0"/>
        <pt x="84" y="315" on="0"/>
        <pt x="85" y="324" on="1"/>
        <pt x="32" y="324" on="1"/>
        <pt x="32" y="391" on="1"/>
        <pt x="92" y="391" on="1"/>
        <pt x="113" y="503" on="0"/>
        <pt x="250" y="630" on="0"/>
        <pt x="353" y="630" on="1"/>
        <pt x="428" y="630" on="0"/>
        <pt x="520" y="566" on="0"/>
        <pt x="520" y="515" on="1"/>
        <pt x="520" y="479" on="0"/>
        <pt x="472" y="438" on="0"/>
        <pt x="431" y="438" on="1"/>
        <pt x="431" y="490" on="0"/>
        <pt x="382" y="553" on="0"/>
        <pt x="289" y="553" on="0"/>
        <pt x="219" y="467" on="0"/>
        <pt x="206" y="391" on="1"/>
        <pt x="377" y="391" on="1"/>
        <pt x="377" y="324" on="1"/>
        <pt x="200" y="324" on="1"/>
        <pt x="200" y="310" on="1"/>
        <pt x="200" y="285" on="0"/>
        <pt x="201" y="273" on="1"/>
        <pt x="377" y="273" on="1"/>
      </contour>
    </TTGlyph>
    <TTGlyph name="F" xMin="40" yMin="0" xMax="514" yMax="685">
      <contour>
        <pt x="514" y="685" on="1"/>
        <pt x="514" y="534" on="1"/>
        <pt x="514" y="489" on="0"/>
        <pt x="450" y="495" on="1"/>
        <pt x="441" y="609" on="1"/>
        <pt x="238" y="616" on="1"/>
        <pt x="238" y="374" on="1"/>
        <pt x="417" y="395" on="1"/>
        <pt x="428" y="347" on="0"/>
        <pt x="418" y="296" on="1"/>
        <pt x="238" y="306" on="1"/>
        <pt x="238" y="71" on="1"/>
        <pt x="330" y="65" on="1"/>
        <pt x="336" y="0" on="0"/>
        <pt x="285" y="0" on="1"/>
        <pt x="40" y="0" on="1"/>
        <pt x="40" y="0" on="0"/>
        <pt x="40" y="8" on="1"/>
        <pt x="40" y="63" on="0"/>
        <pt x="84" y="67" on="1"/>
        <pt x="113" y="69" on="1"/>
        <pt x="113" y="614" on="1"/>
        <pt x="41" y="620" on="1"/>
        <pt x="38" y="626" on="0"/>
        <pt x="42" y="647" on="1"/>
        <pt x="51" y="685" on="0"/>
        <pt x="86" y="685" on="1"/>
      </contour>
    </TTGlyph>
    <TTGlyph name="G" xMin="35" yMin="-15" xMax="668" yMax="700">
      <contour>
        <pt x="395" y="316" on="1"/>
        <pt x="668" y="316" on="1"/>
        <pt x="668" y="316" on="0"/>
        <pt x="668" y="308" on="1"/>
        <pt x="668" y="253" on="0"/>
        <pt x="624" y="249" on="1"/>
        <pt x="595" y="247" on="1"/>
        <pt x="589" y="247" on="1"/>
        <pt x="589" y="92" on="1"/>
        <pt x="563" y="44" on="0"/>
        <pt x="421" y="-15" on="0"/>
        <pt x="332" y="-15" on="1"/>
        <pt x="186" y="-15" on="0"/>
        <pt x="35" y="168" on="0"/>
        <pt x="35" y="500" on="0"/>
        <pt x="206" y="700" on="0"/>
        <pt x="368" y="700" on="1"/>
        <pt x="482" y="700" on="0"/>
        <pt x="604" y="625" on="0"/>
        <pt x="604" y="569" on="1"/>
        <pt x="604" y="529" on="0"/>
        <pt x="550" y="485" on="0"/>
        <pt x="504" y="485" on="1"/>
        <pt x="504" y="560" on="0"/>
        <pt x="439" y="628" on="0"/>
        <pt x="356" y="628" on="1"/>
        <pt x="165" y="628" on="0"/>
        <pt x="165" y="347" on="1"/>
        <pt x="165" y="209" on="0"/>
        <pt x="262" y="74" on="0"/>
        <pt x="371" y="74" on="1"/>
        <pt x="455" y="74" on="0"/>
        <pt x="492" y="113" on="1"/>
        <pt x="492" y="245" on="1"/>
        <pt x="350" y="251" on="1"/>
        <pt x="344" y="316" on="0"/>
      </contour>
    </TTGlyph>
    <TTGlyph name="Gbreve" xMin="35" yMin="-15" xMax="668" yMax="906">
      <contour>
        <pt x="395" y="316" on="1"/>
        <pt x="668" y="316" on="1"/>
        <pt x="668" y="316" on="0"/>
        <pt x="668" y="308" on="1"/>
        <pt x="668" y="253" on="0"/>
        <pt x="624" y="249" on="1"/>
        <pt x="595" y="247" on="1"/>
        <pt x="589" y="247" on="1"/>
        <pt x="589" y="92" on="1"/>
        <pt x="563" y="44" on="0"/>
        <pt x="421" y="-15" on="0"/>
        <pt x="332" y="-15" on="1"/>
        <pt x="186" y="-15" on="0"/>
        <pt x="35" y="168" on="0"/>
        <pt x="35" y="500" on="0"/>
        <pt x="206" y="700" on="0"/>
        <pt x="368" y="700" on="1"/>
        <pt x="482" y="700" on="0"/>
        <pt x="604" y="625" on="0"/>
        <pt x="604" y="569" on="1"/>
        <pt x="604" y="529" on="0"/>
        <pt x="550" y="485" on="0"/>
        <pt x="504" y="485" on="1"/>
        <pt x="504" y="560" on="0"/>
        <pt x="439" y="628" on="0"/>
        <pt x="356" y="628" on="1"/>
        <pt x="165" y="628" on="0"/>
        <pt x="165" y="347" on="1"/>
        <pt x="165" y="209" on="0"/>
        <pt x="262" y="74" on="0"/>
        <pt x="371" y="74" on="1"/>
        <pt x="455" y="74" on="0"/>
        <pt x="492" y="113" on="1"/>
        <pt x="492" y="245" on="1"/>
        <pt x="350" y="251" on="1"/>
        <pt x="344" y="316" on="0"/>
      </contour>
      <contour>
        <pt x="435" y="739" on="0"/>
        <pt x="289" y="739" on="0"/>
        <pt x="205" y="826" on="0"/>
        <pt x="197" y="886" on="1"/>
        <pt x="233" y="906" on="1"/>
        <pt x="246" y="876" on="0"/>
        <pt x="310" y="824" on="0"/>
        <pt x="363" y="824" on="1"/>
        <pt x="456" y="824" on="0"/>
        <pt x="491" y="906" on="1"/>
        <pt x="527" y="886" on="1"/>
        <pt x="519" y="826" on="0"/>
      </contour>
    </TTGlyph>
    <TTGlyph name="Gcircumflex" xMin="35" yMin="-15" xMax="668" yMax="887">
      <contour>
        <pt x="395" y="316" on="1"/>
        <pt x="668" y="316" on="1"/>
        <pt x="668" y="316" on="0"/>
        <pt x="668" y="308" on="1"/>
        <pt x="668" y="253" on="0"/>
        <pt x="624" y="249" on="1"/>
        <pt x="595" y="247" on="1"/>
        <pt x="589" y="247" on="1"/>
        <pt x="589" y="92" on="1"/>
        <pt x="563" y="44" on="0"/>
        <pt x="421" y="-15" on="0"/>
        <pt x="332" y="-15" on="1"/>
        <pt x="186" y="-15" on="0"/>
        <pt x="35" y="168" on="0"/>
        <pt x="35" y="500" on="0"/>
        <pt x="206" y="700" on="0"/>
        <pt x="368" y="700" on="1"/>
        <pt x="482" y="700" on="0"/>
        <pt x="604" y="625" on="0"/>
        <pt x="604" y="569" on="1"/>
        <pt x="604" y="529" on="0"/>
        <pt x="550" y="485" on="0"/>
        <pt x="504" y="485" on="1"/>
        <pt x="504" y="560" on="0"/>
        <pt x="439" y="628" on="0"/>
        <pt x="356" y="628" on="1"/>
        <pt x="165" y="628" on="0"/>
        <pt x="165" y="347" on="1"/>
        <pt x="165" y="209" on="0"/>
        <pt x="262" y="74" on="0"/>
        <pt x="371" y="74" on="1"/>
        <pt x="455" y="74" on="0"/>
        <pt x="492" y="113" on="1"/>
        <pt x="492" y="245" on="1"/>
        <pt x="350" y="251" on="1"/>
        <pt x="344" y="316" on="0"/>
      </contour>
      <contour>
        <pt x="361" y="809" on="1"/>
        <pt x="221" y="723" on="1"/>
        <pt x="199" y="736" on="0"/>
        <pt x="186" y="761" on="1"/>
        <pt x="325" y="887" on="1"/>
        <pt x="366" y="896" on="0"/>
        <pt x="401" y="887" on="1"/>
        <pt x="536" y="761" on="1"/>
        <pt x="519" y="734" on="0"/>
        <pt x="499" y="723" on="1"/>
      </contour>
    </TTGlyph>
    <TTGlyph name="Gdotaccent" xMin="35" yMin="-15" xMax="668" yMax="894">
      <contour>
        <pt x="395" y="316" on="1"/>
        <pt x="668" y="316" on="1"/>
        <pt x="668" y="316" on="0"/>
        <pt x="668" y="308" on="1"/>
        <pt x="668" y="253" on="0"/>
        <pt x="624" y="249" on="1"/>
        <pt x="595" y="247" on="1"/>
        <pt x="589" y="247" on="1"/>
        <pt x="589" y="92" on="1"/>
        <pt x="563" y="44" on="0"/>
        <pt x="421" y="-15" on="0"/>
        <pt x="332" y="-15" on="1"/>
        <pt x="186" y="-15" on="0"/>
        <pt x="35" y="168" on="0"/>
        <pt x="35" y="500" on="0"/>
        <pt x="206" y="700" on="0"/>
        <pt x="368" y="700" on="1"/>
        <pt x="482" y="700" on="0"/>
        <pt x="604" y="625" on="0"/>
        <pt x="604" y="569" on="1"/>
        <pt x="604" y="529" on="0"/>
        <pt x="550" y="485" on="0"/>
        <pt x="504" y="485" on="1"/>
        <pt x="504" y="560" on="0"/>
        <pt x="439" y="628" on="0"/>
        <pt x="356" y="628" on="1"/>
        <pt x="165" y="628" on="0"/>
        <pt x="165" y="347" on="1"/>
        <pt x="165" y="209" on="0"/>
        <pt x="262" y="74" on="0"/>
        <pt x="371" y="74" on="1"/>
        <pt x="455" y="74" on="0"/>
        <pt x="492" y="113" on="1"/>
        <pt x="492" y="245" on="1"/>
        <pt x="350" y="251" on="1"/>
        <pt x="344" y="316" on="0"/>
      </contour>
      <contour>
        <pt x="398" y="746" on="0"/>
        <pt x="336" y="746" on="0"/>
        <pt x="293" y="789" on="0"/>
        <pt x="293" y="851" on="0"/>
        <pt x="336" y="894" on="0"/>
        <pt x="398" y="894" on="0"/>
        <pt x="441" y="851" on="0"/>
        <pt x="441" y="788" on="0"/>
      </contour>
    </TTGlyph>
    <TTGlyph name="H" xMin="40" yMin="0" xMax="726" yMax="685">
      <contour>
        <pt x="680" y="0" on="1"/>
        <pt x="455" y="0" on="1"/>
        <pt x="455" y="8" on="1"/>
        <pt x="455" y="63" on="0"/>
        <pt x="499" y="67" on="1"/>
        <pt x="528" y="69" on="1"/>
        <pt x="528" y="305" on="1"/>
        <pt x="238" y="305" on="1"/>
        <pt x="238" y="71" on="1"/>
        <pt x="310" y="65" on="1"/>
        <pt x="316" y="0" on="0"/>
        <pt x="265" y="0" on="1"/>
        <pt x="40" y="0" on="1"/>
        <pt x="40" y="8" on="1"/>
        <pt x="40" y="63" on="0"/>
        <pt x="84" y="67" on="1"/>
        <pt x="113" y="69" on="1"/>
        <pt x="113" y="614" on="1"/>
        <pt x="41" y="620" on="1"/>
        <pt x="38" y="626" on="0"/>
        <pt x="42" y="647" on="1"/>
        <pt x="51" y="685" on="0"/>
        <pt x="86" y="685" on="1"/>
        <pt x="311" y="685" on="1"/>
        <pt x="311" y="677" on="1"/>
        <pt x="311" y="622" on="0"/>
        <pt x="267" y="618" on="1"/>
        <pt x="238" y="616" on="1"/>
        <pt x="238" y="372" on="1"/>
        <pt x="528" y="372" on="1"/>
        <pt x="528" y="614" on="1"/>
        <pt x="456" y="620" on="1"/>
        <pt x="450" y="685" on="0"/>
        <pt x="501" y="685" on="1"/>
        <pt x="726" y="685" on="1"/>
        <pt x="726" y="677" on="1"/>
        <pt x="726" y="622" on="0"/>
        <pt x="682" y="618" on="1"/>
        <pt x="653" y="616" on="1"/>
        <pt x="653" y="71" on="1"/>
        <pt x="725" y="65" on="1"/>
        <pt x="728" y="59" on="0"/>
        <pt x="724" y="38" on="1"/>
        <pt x="715" y="0" on="0"/>
      </contour>
    </TTGlyph>
    <TTGlyph name="Hbar" xMin="40" yMin="0" xMax="726" yMax="685">
      <contour>
        <pt x="680" y="0" on="1"/>
        <pt x="455" y="0" on="1"/>
        <pt x="455" y="8" on="1"/>
        <pt x="455" y="63" on="0"/>
        <pt x="499" y="67" on="1"/>
        <pt x="528" y="69" on="1"/>
        <pt x="528" y="305" on="1"/>
        <pt x="238" y="305" on="1"/>
        <pt x="238" y="71" on="1"/>
        <pt x="310" y="65" on="1"/>
        <pt x="316" y="0" on="0"/>
        <pt x="265" y="0" on="1"/>
        <pt x="40" y="0" on="1"/>
        <pt x="40" y="8" on="1"/>
        <pt x="40" y="63" on="0"/>
        <pt x="84" y="67" on="1"/>
        <pt x="113" y="69" on="1"/>
        <pt x="113" y="452" on="1"/>
        <pt x="49" y="452" on="1"/>
        <pt x="49" y="522" on="1"/>
        <pt x="113" y="522" on="1"/>
        <pt x="113" y="614" on="1"/>
        <pt x="41" y="620" on="1"/>
        <pt x="38" y="626" on="0"/>
        <pt x="42" y="647" on="1"/>
        <pt x="51" y="685" on="0"/>
        <pt x="86" y="685" on="1"/>
        <pt x="311" y="685" on="1"/>
        <pt x="311" y="677" on="1"/>
        <pt x="311" y="622" on="0"/>
        <pt x="267" y="618" on="1"/>
        <pt x="238" y="616" on="1"/>
        <pt x="238" y="522" on="1"/>
        <pt x="528" y="522" on="1"/>
        <pt x="528" y="614" on="1"/>
        <pt x="456" y="620" on="1"/>
        <pt x="450" y="685" on="0"/>
        <pt x="501" y="685" on="1"/>
        <pt x="726" y="685" on="1"/>
        <pt x="726" y="677" on="1"/>
        <pt x="726" y="622" on="0"/>
        <pt x="682" y="618" on="1"/>
        <pt x="653" y="616" on="1"/>
        <pt x="653" y="522" on="1"/>
        <pt x="721" y="522" on="1"/>
        <pt x="721" y="452" on="1"/>
        <pt x="653" y="452" on="1"/>
        <pt x="653" y="71" on="1"/>
        <pt x="725" y="65" on="1"/>
        <pt x="728" y="59" on="0"/>
        <pt x="724" y="38" on="1"/>
        <pt x="715" y="0" on="0"/>
      </contour>
      <contour>
        <pt x="238" y="372" on="1"/>
        <pt x="528" y="372" on="1"/>
        <pt x="528" y="452" on="1"/>
        <pt x="238" y="452" on="1"/>
      </contour>
    </TTGlyph>
    <TTGlyph name="Hcircumflex" xMin="40" yMin="0" xMax="726" yMax="887">
      <contour>
        <pt x="680" y="0" on="1"/>
        <pt x="455" y="0" on="1"/>
        <pt x="455" y="8" on="1"/>
        <pt x="455" y="63" on="0"/>
        <pt x="499" y="67" on="1"/>
        <pt x="528" y="69" on="1"/>
        <pt x="528" y="305" on="1"/>
        <pt x="238" y="305" on="1"/>
        <pt x="238" y="71" on="1"/>
        <pt x="310" y="65" on="1"/>
        <pt x="316" y="0" on="0"/>
        <pt x="265" y="0" on="1"/>
        <pt x="40" y="0" on="1"/>
        <pt x="40" y="8" on="1"/>
        <pt x="40" y="63" on="0"/>
        <pt x="84" y="67" on="1"/>
        <pt x="113" y="69" on="1"/>
        <pt x="113" y="614" on="1"/>
        <pt x="41" y="620" on="1"/>
        <pt x="38" y="626" on="0"/>
        <pt x="42" y="647" on="1"/>
        <pt x="51" y="685" on="0"/>
        <pt x="86" y="685" on="1"/>
        <pt x="311" y="685" on="1"/>
        <pt x="311" y="677" on="1"/>
        <pt x="311" y="622" on="0"/>
        <pt x="267" y="618" on="1"/>
        <pt x="238" y="616" on="1"/>
        <pt x="238" y="372" on="1"/>
        <pt x="528" y="372" on="1"/>
        <pt x="528" y="614" on="1"/>
        <pt x="456" y="620" on="1"/>
        <pt x="450" y="685" on="0"/>
        <pt x="501" y="685" on="1"/>
        <pt x="726" y="685" on="1"/>
        <pt x="726" y="677" on="1"/>
        <pt x="726" y="622" on="0"/>
        <pt x="682" y="618" on="1"/>
        <pt x="653" y="616" on="1"/>
        <pt x="653" y="71" on="1"/>
        <pt x="725" y="65" on="1"/>
        <pt x="728" y="59" on="0"/>
        <pt x="724" y="38" on="1"/>
        <pt x="715" y="0" on="0"/>
      </contour>
      <contour>
        <pt x="383" y="809" on="1"/>
        <pt x="243" y="723" on="1"/>
        <pt x="221" y="736" on="0"/>
        <pt x="208" y="761" on="1"/>
        <pt x="347" y="887" on="1"/>
        <pt x="388" y="896" on="0"/>
        <pt x="423" y="887" on="1"/>
        <pt x="558" y="761" on="1"/>
        <pt x="541" y="734" on="0"/>
        <pt x="521" y="723" on="1"/>
      </contour>
    </TTGlyph>
    <TTGlyph name="I" xMin="40" yMin="0" xMax="311" yMax="685">
      <contour>
        <pt x="265" y="0" on="1"/>
        <pt x="40" y="0" on="1"/>
        <pt x="40" y="8" on="1"/>
        <pt x="40" y="63" on="0"/>
        <pt x="84" y="67" on="1"/>
        <pt x="113" y="69" on="1"/>
        <pt x="113" y="614" on="1"/>
        <pt x="112" y="614" on="1"/>
        <pt x="41" y="620" on="1"/>
        <pt x="38" y="626" on="0"/>
        <pt x="42" y="647" on="1"/>
        <pt x="51" y="685" on="0"/>
        <pt x="86" y="685" on="1"/>
        <pt x="311" y="685" on="1"/>
        <pt x="311" y="677" on="1"/>
        <pt x="311" y="622" on="0"/>
        <pt x="267" y="618" on="1"/>
        <pt x="238" y="616" on="1"/>
        <pt x="238" y="71" on="1"/>
        <pt x="239" y="71" on="1"/>
        <pt x="310" y="65" on="1"/>
        <pt x="316" y="0" on="0"/>
      </contour>
    </TTGlyph>
    <TTGlyph name="IJ" xMin="40" yMin="-155" xMax="645" yMax="685">
      <contour>
        <pt x="418" y="685" on="1"/>
        <pt x="645" y="685" on="1"/>
        <pt x="645" y="685" on="0"/>
        <pt x="645" y="677" on="1"/>
        <pt x="645" y="622" on="0"/>
        <pt x="601" y="618" on="1"/>
        <pt x="572" y="616" on="1"/>
        <pt x="572" y="71" on="1"/>
        <pt x="572" y="-20" on="0"/>
        <pt x="467" y="-155" on="0"/>
        <pt x="382" y="-155" on="1"/>
        <pt x="334" y="-155" on="0"/>
        <pt x="276" y="-106" on="0"/>
        <pt x="276" y="-72" on="1"/>
        <pt x="276" y="8" on="0"/>
        <pt x="361" y="8" on="1"/>
        <pt x="361" y="-71" on="0"/>
        <pt x="411" y="-71" on="1"/>
        <pt x="429" y="-71" on="0"/>
        <pt x="447" y="-24" on="0"/>
        <pt x="447" y="40" on="1"/>
        <pt x="447" y="614" on="1"/>
        <pt x="446" y="614" on="1"/>
        <pt x="373" y="620" on="1"/>
        <pt x="370" y="626" on="0"/>
        <pt x="374" y="647" on="1"/>
        <pt x="383" y="685" on="0"/>
      </contour>
      <contour>
        <pt x="265" y="0" on="1"/>
        <pt x="40" y="0" on="1"/>
        <pt x="40" y="8" on="1"/>
        <pt x="40" y="63" on="0"/>
        <pt x="84" y="67" on="1"/>
        <pt x="113" y="69" on="1"/>
        <pt x="113" y="614" on="1"/>
        <pt x="112" y="614" on="1"/>
        <pt x="41" y="620" on="1"/>
        <pt x="38" y="626" on="0"/>
        <pt x="42" y="647" on="1"/>
        <pt x="51" y="685" on="0"/>
        <pt x="86" y="685" on="1"/>
        <pt x="311" y="685" on="1"/>
        <pt x="311" y="677" on="1"/>
        <pt x="311" y="622" on="0"/>
        <pt x="267" y="618" on="1"/>
        <pt x="238" y="616" on="1"/>
        <pt x="238" y="71" on="1"/>
        <pt x="239" y="71" on="1"/>
        <pt x="310" y="65" on="1"/>
        <pt x="316" y="0" on="0"/>
      </contour>
    </TTGlyph>
    <TTGlyph name="Iacute" xMin="40" yMin="0" xMax="342" yMax="910">
      <contour>
        <pt x="238" y="71" on="1"/>
        <pt x="239" y="71" on="1"/>
        <pt x="310" y="65" on="1"/>
        <pt x="316" y="0" on="0"/>
        <pt x="265" y="0" on="1"/>
        <pt x="40" y="0" on="1"/>
        <pt x="40" y="8" on="1"/>
        <pt x="40" y="63" on="0"/>
        <pt x="84" y="67" on="1"/>
        <pt x="113" y="69" on="1"/>
        <pt x="113" y="614" on="1"/>
        <pt x="112" y="614" on="1"/>
        <pt x="41" y="620" on="1"/>
        <pt x="38" y="626" on="0"/>
        <pt x="42" y="647" on="1"/>
        <pt x="51" y="685" on="0"/>
        <pt x="86" y="685" on="1"/>
        <pt x="311" y="685" on="1"/>
        <pt x="311" y="677" on="1"/>
        <pt x="311" y="622" on="0"/>
        <pt x="267" y="618" on="1"/>
        <pt x="238" y="616" on="1"/>
      </contour>
      <contour>
        <pt x="342" y="842" on="1"/>
        <pt x="135" y="732" on="1"/>
        <pt x="104" y="748" on="0"/>
        <pt x="93" y="773" on="1"/>
        <pt x="260" y="910" on="1"/>
        <pt x="283" y="905" on="0"/>
        <pt x="333" y="860" on="0"/>
      </contour>
    </TTGlyph>
    <TTGlyph name="Ibreve" xMin="11" yMin="0" xMax="341" yMax="906">
      <contour>
        <pt x="238" y="71" on="1"/>
        <pt x="239" y="71" on="1"/>
        <pt x="310" y="65" on="1"/>
        <pt x="316" y="0" on="0"/>
        <pt x="265" y="0" on="1"/>
        <pt x="40" y="0" on="1"/>
        <pt x="40" y="8" on="1"/>
        <pt x="40" y="63" on="0"/>
        <pt x="84" y="67" on="1"/>
        <pt x="113" y="69" on="1"/>
        <pt x="113" y="614" on="1"/>
        <pt x="112" y="614" on="1"/>
        <pt x="41" y="620" on="1"/>
        <pt x="38" y="626" on="0"/>
        <pt x="42" y="647" on="1"/>
        <pt x="51" y="685" on="0"/>
        <pt x="86" y="685" on="1"/>
        <pt x="311" y="685" on="1"/>
        <pt x="311" y="677" on="1"/>
        <pt x="311" y="622" on="0"/>
        <pt x="267" y="618" on="1"/>
        <pt x="238" y="616" on="1"/>
      </contour>
      <contour>
        <pt x="249" y="739" on="0"/>
        <pt x="103" y="739" on="0"/>
        <pt x="19" y="826" on="0"/>
        <pt x="11" y="886" on="1"/>
        <pt x="47" y="906" on="1"/>
        <pt x="60" y="876" on="0"/>
        <pt x="124" y="824" on="0"/>
        <pt x="177" y="824" on="1"/>
        <pt x="270" y="824" on="0"/>
        <pt x="305" y="906" on="1"/>
        <pt x="341" y="886" on="1"/>
        <pt x="333" y="826" on="0"/>
      </contour>
    </TTGlyph>
    <TTGlyph name="Icircumflex" xMin="0" yMin="0" xMax="350" yMax="887">
      <contour>
        <pt x="215" y="887" on="1"/>
        <pt x="350" y="761" on="1"/>
        <pt x="333" y="734" on="0"/>
        <pt x="313" y="723" on="1"/>
        <pt x="175" y="809" on="1"/>
        <pt x="35" y="723" on="1"/>
        <pt x="13" y="736" on="0"/>
        <pt x="0" y="761" on="1"/>
        <pt x="139" y="887" on="1"/>
        <pt x="180" y="896" on="0"/>
      </contour>
      <contour>
        <pt x="238" y="71" on="1"/>
        <pt x="239" y="71" on="1"/>
        <pt x="310" y="65" on="1"/>
        <pt x="316" y="0" on="0"/>
        <pt x="265" y="0" on="1"/>
        <pt x="40" y="0" on="1"/>
        <pt x="40" y="8" on="1"/>
        <pt x="40" y="63" on="0"/>
        <pt x="84" y="67" on="1"/>
        <pt x="113" y="69" on="1"/>
        <pt x="113" y="614" on="1"/>
        <pt x="112" y="614" on="1"/>
        <pt x="41" y="620" on="1"/>
        <pt x="38" y="626" on="0"/>
        <pt x="42" y="647" on="1"/>
        <pt x="51" y="685" on="0"/>
        <pt x="86" y="685" on="1"/>
        <pt x="311" y="685" on="1"/>
        <pt x="311" y="677" on="1"/>
        <pt x="311" y="622" on="0"/>
        <pt x="267" y="618" on="1"/>
        <pt x="238" y="616" on="1"/>
      </contour>
    </TTGlyph>
    <TTGlyph name="Idieresis" xMin="4" yMin="0" xMax="336" yMax="894">
      <contour>
        <pt x="195" y="852" on="0"/>
        <pt x="236" y="894" on="0"/>
        <pt x="295" y="894" on="0"/>
        <pt x="336" y="853" on="0"/>
        <pt x="336" y="795" on="0"/>
        <pt x="295" y="754" on="0"/>
        <pt x="236" y="754" on="0"/>
        <pt x="195" y="795" on="0"/>
      </contour>
      <contour>
        <pt x="238" y="71" on="1"/>
        <pt x="239" y="71" on="1"/>
        <pt x="310" y="65" on="1"/>
        <pt x="316" y="0" on="0"/>
        <pt x="265" y="0" on="1"/>
        <pt x="40" y="0" on="1"/>
        <pt x="40" y="8" on="1"/>
        <pt x="40" y="63" on="0"/>
        <pt x="84" y="67" on="1"/>
        <pt x="113" y="69" on="1"/>
        <pt x="113" y="614" on="1"/>
        <pt x="112" y="614" on="1"/>
        <pt x="41" y="620" on="1"/>
        <pt x="38" y="626" on="0"/>
        <pt x="42" y="647" on="1"/>
        <pt x="51" y="685" on="0"/>
        <pt x="86" y="685" on="1"/>
        <pt x="311" y="685" on="1"/>
        <pt x="311" y="677" on="1"/>
        <pt x="311" y="622" on="0"/>
        <pt x="267" y="618" on="1"/>
        <pt x="238" y="616" on="1"/>
      </contour>
      <contour>
        <pt x="145" y="853" on="0"/>
        <pt x="145" y="795" on="0"/>
        <pt x="104" y="754" on="0"/>
        <pt x="46" y="754" on="0"/>
        <pt x="4" y="795" on="0"/>
        <pt x="4" y="853" on="0"/>
        <pt x="46" y="894" on="0"/>
        <pt x="104" y="894" on="0"/>
      </contour>
    </TTGlyph>
    <TTGlyph name="Idotaccent" xMin="40" yMin="0" xMax="311" yMax="894">
      <contour>
        <pt x="265" y="0" on="1"/>
        <pt x="40" y="0" on="1"/>
        <pt x="40" y="8" on="1"/>
        <pt x="40" y="63" on="0"/>
        <pt x="84" y="67" on="1"/>
        <pt x="113" y="69" on="1"/>
        <pt x="113" y="614" on="1"/>
        <pt x="112" y="614" on="1"/>
        <pt x="41" y="620" on="1"/>
        <pt x="38" y="626" on="0"/>
        <pt x="42" y="647" on="1"/>
        <pt x="51" y="685" on="0"/>
        <pt x="86" y="685" on="1"/>
        <pt x="311" y="685" on="1"/>
        <pt x="311" y="677" on="1"/>
        <pt x="311" y="622" on="0"/>
        <pt x="267" y="618" on="1"/>
        <pt x="238" y="616" on="1"/>
        <pt x="238" y="71" on="1"/>
        <pt x="239" y="71" on="1"/>
        <pt x="310" y="65" on="1"/>
        <pt x="316" y="0" on="0"/>
      </contour>
      <contour>
        <pt x="212" y="746" on="0"/>
        <pt x="150" y="746" on="0"/>
        <pt x="107" y="789" on="0"/>
        <pt x="107" y="851" on="0"/>
        <pt x="150" y="894" on="0"/>
        <pt x="212" y="894" on="0"/>
        <pt x="255" y="851" on="0"/>
        <pt x="255" y="788" on="0"/>
      </contour>
    </TTGlyph>
    <TTGlyph name="Igrave" xMin="23" yMin="0" xMax="311" yMax="910">
      <contour>
        <pt x="265" y="0" on="1"/>
        <pt x="40" y="0" on="1"/>
        <pt x="40" y="8" on="1"/>
        <pt x="40" y="63" on="0"/>
        <pt x="84" y="67" on="1"/>
        <pt x="113" y="69" on="1"/>
        <pt x="113" y="614" on="1"/>
        <pt x="112" y="614" on="1"/>
        <pt x="41" y="620" on="1"/>
        <pt x="38" y="626" on="0"/>
        <pt x="42" y="647" on="1"/>
        <pt x="51" y="685" on="0"/>
        <pt x="86" y="685" on="1"/>
        <pt x="311" y="685" on="1"/>
        <pt x="311" y="677" on="1"/>
        <pt x="311" y="622" on="0"/>
        <pt x="267" y="618" on="1"/>
        <pt x="238" y="616" on="1"/>
        <pt x="238" y="71" on="1"/>
        <pt x="239" y="71" on="1"/>
        <pt x="310" y="65" on="1"/>
        <pt x="316" y="0" on="0"/>
      </contour>
      <contour>
        <pt x="105" y="910" on="1"/>
        <pt x="272" y="773" on="1"/>
        <pt x="261" y="748" on="0"/>
        <pt x="230" y="732" on="1"/>
        <pt x="23" y="842" on="1"/>
        <pt x="32" y="860" on="0"/>
        <pt x="82" y="905" on="0"/>
      </contour>
    </TTGlyph>
    <TTGlyph name="Imacron" xMin="27" yMin="0" xMax="322" yMax="828">
      <contour>
        <pt x="27" y="828" on="1"/>
        <pt x="322" y="828" on="1"/>
        <pt x="322" y="758" on="1"/>
        <pt x="27" y="758" on="1"/>
      </contour>
      <contour>
        <pt x="238" y="71" on="1"/>
        <pt x="239" y="71" on="1"/>
        <pt x="310" y="65" on="1"/>
        <pt x="316" y="0" on="0"/>
        <pt x="265" y="0" on="1"/>
        <pt x="40" y="0" on="1"/>
        <pt x="40" y="8" on="1"/>
        <pt x="40" y="63" on="0"/>
        <pt x="84" y="67" on="1"/>
        <pt x="113" y="69" on="1"/>
        <pt x="113" y="614" on="1"/>
        <pt x="112" y="614" on="1"/>
        <pt x="41" y="620" on="1"/>
        <pt x="38" y="626" on="0"/>
        <pt x="42" y="647" on="1"/>
        <pt x="51" y="685" on="0"/>
        <pt x="86" y="685" on="1"/>
        <pt x="311" y="685" on="1"/>
        <pt x="311" y="677" on="1"/>
        <pt x="311" y="622" on="0"/>
        <pt x="267" y="618" on="1"/>
        <pt x="238" y="616" on="1"/>
      </contour>
    </TTGlyph>
    <TTGlyph name="Iogonek" xMin="40" yMin="-182" xMax="322" yMax="685">
      <contour>
        <pt x="222" y="-80" on="1"/>
        <pt x="222" y="-104" on="0"/>
        <pt x="245" y="-129" on="0"/>
        <pt x="289" y="-129" on="0"/>
        <pt x="315" y="-108" on="1"/>
        <pt x="319" y="-111" on="0"/>
        <pt x="324" y="-140" on="0"/>
        <pt x="322" y="-149" on="1"/>
        <pt x="299" y="-182" on="0"/>
        <pt x="195" y="-182" on="0"/>
        <pt x="145" y="-136" on="0"/>
        <pt x="145" y="-103" on="1"/>
        <pt x="145" y="-41" on="0"/>
        <pt x="202" y="0" on="1"/>
        <pt x="40" y="0" on="1"/>
        <pt x="40" y="8" on="1"/>
        <pt x="40" y="63" on="0"/>
        <pt x="84" y="67" on="1"/>
        <pt x="113" y="69" on="1"/>
        <pt x="113" y="614" on="1"/>
        <pt x="112" y="614" on="1"/>
        <pt x="41" y="620" on="1"/>
        <pt x="38" y="626" on="0"/>
        <pt x="42" y="647" on="1"/>
        <pt x="51" y="685" on="0"/>
        <pt x="86" y="685" on="1"/>
        <pt x="311" y="685" on="1"/>
        <pt x="311" y="677" on="1"/>
        <pt x="311" y="622" on="0"/>
        <pt x="267" y="618" on="1"/>
        <pt x="238" y="616" on="1"/>
        <pt x="238" y="71" on="1"/>
        <pt x="239" y="71" on="1"/>
        <pt x="310" y="65" on="1"/>
        <pt x="316" y="1" on="0"/>
        <pt x="266" y="0" on="1"/>
        <pt x="222" y="-29" on="0"/>
      </contour>
    </TTGlyph>
    <TTGlyph name="Itilde" xMin="5" yMin="0" xMax="350" yMax="890">
      <contour>
        <pt x="238" y="71" on="1"/>
        <pt x="239" y="71" on="1"/>
        <pt x="310" y="65" on="1"/>
        <pt x="316" y="0" on="0"/>
        <pt x="265" y="0" on="1"/>
        <pt x="40" y="0" on="1"/>
        <pt x="40" y="8" on="1"/>
        <pt x="40" y="63" on="0"/>
        <pt x="84" y="67" on="1"/>
        <pt x="113" y="69" on="1"/>
        <pt x="113" y="614" on="1"/>
        <pt x="112" y="614" on="1"/>
        <pt x="41" y="620" on="1"/>
        <pt x="38" y="626" on="0"/>
        <pt x="42" y="647" on="1"/>
        <pt x="51" y="685" on="0"/>
        <pt x="86" y="685" on="1"/>
        <pt x="311" y="685" on="1"/>
        <pt x="311" y="677" on="1"/>
        <pt x="311" y="622" on="0"/>
        <pt x="267" y="618" on="1"/>
        <pt x="238" y="616" on="1"/>
      </contour>
      <contour>
        <pt x="239" y="742" on="1"/>
        <pt x="199" y="742" on="0"/>
        <pt x="111" y="794" on="0"/>
        <pt x="75" y="794" on="0"/>
        <pt x="45" y="770" on="0"/>
        <pt x="39" y="750" on="1"/>
        <pt x="5" y="762" on="1"/>
        <pt x="13" y="819" on="0"/>
        <pt x="69" y="890" on="0"/>
        <pt x="143" y="890" on="0"/>
        <pt x="226" y="831" on="0"/>
        <pt x="278" y="831" on="0"/>
        <pt x="313" y="859" on="0"/>
        <pt x="318" y="882" on="1"/>
        <pt x="350" y="873" on="1"/>
        <pt x="333" y="742" on="0"/>
      </contour>
    </TTGlyph>
    <TTGlyph name="J" xMin="23" yMin="-63" xMax="392" yMax="685">
      <contour>
        <pt x="165" y="685" on="1"/>
        <pt x="392" y="685" on="1"/>
        <pt x="392" y="685" on="0"/>
        <pt x="392" y="677" on="1"/>
        <pt x="392" y="622" on="0"/>
        <pt x="348" y="618" on="1"/>
        <pt x="319" y="616" on="1"/>
        <pt x="319" y="139" on="1"/>
        <pt x="319" y="50" on="0"/>
        <pt x="216" y="-63" on="0"/>
        <pt x="129" y="-63" on="1"/>
        <pt x="81" y="-63" on="0"/>
        <pt x="23" y="-14" on="0"/>
        <pt x="23" y="20" on="1"/>
        <pt x="23" y="100" on="0"/>
        <pt x="108" y="100" on="1"/>
        <pt x="108" y="21" on="0"/>
        <pt x="158" y="21" on="1"/>
        <pt x="176" y="21" on="0"/>
        <pt x="194" y="68" on="0"/>
        <pt x="194" y="132" on="1"/>
        <pt x="194" y="614" on="1"/>
        <pt x="193" y="614" on="1"/>
        <pt x="120" y="620" on="1"/>
        <pt x="114" y="685" on="0"/>
      </contour>
    </TTGlyph>
    <TTGlyph name="Jcircumflex" xMin="23" yMin="-63" xMax="428" yMax="887">
      <contour>
        <pt x="293" y="887" on="1"/>
        <pt x="428" y="761" on="1"/>
        <pt x="411" y="734" on="0"/>
        <pt x="391" y="723" on="1"/>
        <pt x="253" y="809" on="1"/>
        <pt x="113" y="723" on="1"/>
        <pt x="91" y="736" on="0"/>
        <pt x="78" y="761" on="1"/>
        <pt x="217" y="887" on="1"/>
        <pt x="258" y="896" on="0"/>
      </contour>
      <contour>
        <pt x="165" y="685" on="1"/>
        <pt x="392" y="685" on="1"/>
        <pt x="392" y="677" on="1"/>
        <pt x="392" y="622" on="0"/>
        <pt x="348" y="618" on="1"/>
        <pt x="319" y="616" on="1"/>
        <pt x="319" y="139" on="1"/>
        <pt x="319" y="50" on="0"/>
        <pt x="216" y="-63" on="0"/>
        <pt x="129" y="-63" on="1"/>
        <pt x="81" y="-63" on="0"/>
        <pt x="23" y="-14" on="0"/>
        <pt x="23" y="20" on="1"/>
        <pt x="23" y="100" on="0"/>
        <pt x="108" y="100" on="1"/>
        <pt x="108" y="21" on="0"/>
        <pt x="158" y="21" on="1"/>
        <pt x="176" y="21" on="0"/>
        <pt x="194" y="68" on="0"/>
        <pt x="194" y="132" on="1"/>
        <pt x="194" y="614" on="1"/>
        <pt x="193" y="614" on="1"/>
        <pt x="120" y="620" on="1"/>
        <pt x="114" y="685" on="0"/>
      </contour>
    </TTGlyph>
    <TTGlyph name="K" xMin="40" yMin="0" xMax="628" yMax="685">
      <contour>
        <pt x="423" y="685" on="1"/>
        <pt x="619" y="685" on="1"/>
        <pt x="619" y="618" on="0"/>
        <pt x="576" y="618" on="1"/>
        <pt x="536" y="616" on="1"/>
        <pt x="349" y="381" on="1"/>
        <pt x="565" y="71" on="1"/>
        <pt x="628" y="65" on="1"/>
        <pt x="636" y="52" on="0"/>
        <pt x="611" y="0" on="0"/>
        <pt x="583" y="0" on="1"/>
        <pt x="462" y="0" on="1"/>
        <pt x="268" y="279" on="1"/>
        <pt x="238" y="242" on="1"/>
        <pt x="238" y="71" on="1"/>
        <pt x="320" y="65" on="1"/>
        <pt x="326" y="0" on="0"/>
        <pt x="275" y="0" on="1"/>
        <pt x="40" y="0" on="1"/>
        <pt x="40" y="8" on="1"/>
        <pt x="40" y="63" on="0"/>
        <pt x="84" y="67" on="1"/>
        <pt x="113" y="69" on="1"/>
        <pt x="113" y="614" on="1"/>
        <pt x="41" y="620" on="1"/>
        <pt x="38" y="626" on="0"/>
        <pt x="42" y="647" on="1"/>
        <pt x="51" y="685" on="0"/>
        <pt x="86" y="685" on="1"/>
        <pt x="311" y="685" on="1"/>
        <pt x="311" y="677" on="1"/>
        <pt x="311" y="622" on="0"/>
        <pt x="267" y="618" on="1"/>
        <pt x="238" y="616" on="1"/>
        <pt x="238" y="348" on="1"/>
        <pt x="443" y="616" on="1"/>
        <pt x="378" y="620" on="1"/>
        <pt x="372" y="685" on="0"/>
      </contour>
    </TTGlyph>
    <TTGlyph name="L" xMin="40" yMin="0" xMax="534" yMax="685">
      <contour>
        <pt x="534" y="177" on="1"/>
        <pt x="534" y="0" on="1"/>
        <pt x="40" y="0" on="1"/>
        <pt x="40" y="8" on="1"/>
        <pt x="40" y="63" on="0"/>
        <pt x="84" y="67" on="1"/>
        <pt x="113" y="69" on="1"/>
        <pt x="113" y="614" on="1"/>
        <pt x="43" y="620" on="1"/>
        <pt x="40" y="626" on="0"/>
        <pt x="44" y="647" on="1"/>
        <pt x="53" y="685" on="0"/>
        <pt x="88" y="685" on="1"/>
        <pt x="333" y="685" on="1"/>
        <pt x="333" y="676" on="1"/>
        <pt x="333" y="637" on="0"/>
        <pt x="310" y="623" on="1"/>
        <pt x="301" y="618" on="0"/>
        <pt x="289" y="618" on="1"/>
        <pt x="240" y="616" on="1"/>
        <pt x="238" y="616" on="1"/>
        <pt x="238" y="71" on="1"/>
        <pt x="454" y="78" on="1"/>
        <pt x="470" y="216" on="1"/>
        <pt x="534" y="222" on="0"/>
      </contour>
    </TTGlyph>
    <TTGlyph name="Lacute" xMin="40" yMin="0" xMax="534" yMax="910">
      <contour>
        <pt x="534" y="177" on="1"/>
        <pt x="534" y="0" on="1"/>
        <pt x="40" y="0" on="1"/>
        <pt x="40" y="8" on="1"/>
        <pt x="40" y="63" on="0"/>
        <pt x="84" y="67" on="1"/>
        <pt x="113" y="69" on="1"/>
        <pt x="113" y="614" on="1"/>
        <pt x="43" y="620" on="1"/>
        <pt x="40" y="626" on="0"/>
        <pt x="44" y="647" on="1"/>
        <pt x="53" y="685" on="0"/>
        <pt x="88" y="685" on="1"/>
        <pt x="333" y="685" on="1"/>
        <pt x="333" y="676" on="1"/>
        <pt x="333" y="637" on="0"/>
        <pt x="310" y="623" on="1"/>
        <pt x="301" y="618" on="0"/>
        <pt x="289" y="618" on="1"/>
        <pt x="240" y="616" on="1"/>
        <pt x="238" y="616" on="1"/>
        <pt x="238" y="71" on="1"/>
        <pt x="454" y="78" on="1"/>
        <pt x="470" y="216" on="1"/>
        <pt x="534" y="222" on="0"/>
      </contour>
      <contour>
        <pt x="394" y="842" on="1"/>
        <pt x="187" y="732" on="1"/>
        <pt x="156" y="748" on="0"/>
        <pt x="145" y="773" on="1"/>
        <pt x="312" y="910" on="1"/>
        <pt x="335" y="905" on="0"/>
        <pt x="385" y="860" on="0"/>
      </contour>
    </TTGlyph>
    <TTGlyph name="Lcaron" xMin="40" yMin="0" xMax="534" yMax="773">
      <contour>
        <pt x="534" y="177" on="1"/>
        <pt x="534" y="0" on="1"/>
        <pt x="40" y="0" on="1"/>
        <pt x="40" y="8" on="1"/>
        <pt x="40" y="63" on="0"/>
        <pt x="84" y="67" on="1"/>
        <pt x="113" y="69" on="1"/>
        <pt x="113" y="614" on="1"/>
        <pt x="43" y="620" on="1"/>
        <pt x="40" y="626" on="0"/>
        <pt x="44" y="647" on="1"/>
        <pt x="53" y="685" on="0"/>
        <pt x="88" y="685" on="1"/>
        <pt x="333" y="685" on="1"/>
        <pt x="333" y="676" on="1"/>
        <pt x="333" y="637" on="0"/>
        <pt x="310" y="623" on="1"/>
        <pt x="301" y="618" on="0"/>
        <pt x="289" y="618" on="1"/>
        <pt x="240" y="616" on="1"/>
        <pt x="238" y="616" on="1"/>
        <pt x="238" y="71" on="1"/>
        <pt x="454" y="78" on="1"/>
        <pt x="470" y="216" on="1"/>
        <pt x="534" y="222" on="0"/>
      </contour>
      <contour>
        <pt x="434" y="529" on="1"/>
        <pt x="428" y="525" on="0"/>
        <pt x="381" y="549" on="0"/>
        <pt x="381" y="555" on="1"/>
        <pt x="396" y="599" on="0"/>
        <pt x="395" y="722" on="0"/>
        <pt x="383" y="761" on="1"/>
        <pt x="396" y="779" on="0"/>
        <pt x="504" y="767" on="0"/>
        <pt x="513" y="743" on="1"/>
        <pt x="515" y="683" on="0"/>
        <pt x="473" y="566" on="0"/>
      </contour>
    </TTGlyph>
    <TTGlyph name="Ldot" xMin="40" yMin="0" xMax="534" yMax="685">
      <contour>
        <pt x="534" y="177" on="1"/>
        <pt x="534" y="0" on="1"/>
        <pt x="40" y="0" on="1"/>
        <pt x="40" y="8" on="1"/>
        <pt x="40" y="63" on="0"/>
        <pt x="84" y="67" on="1"/>
        <pt x="113" y="69" on="1"/>
        <pt x="113" y="614" on="1"/>
        <pt x="43" y="620" on="1"/>
        <pt x="40" y="626" on="0"/>
        <pt x="44" y="647" on="1"/>
        <pt x="53" y="685" on="0"/>
        <pt x="88" y="685" on="1"/>
        <pt x="333" y="685" on="1"/>
        <pt x="333" y="676" on="1"/>
        <pt x="333" y="637" on="0"/>
        <pt x="310" y="623" on="1"/>
        <pt x="301" y="618" on="0"/>
        <pt x="289" y="618" on="1"/>
        <pt x="240" y="616" on="1"/>
        <pt x="238" y="616" on="1"/>
        <pt x="238" y="71" on="1"/>
        <pt x="454" y="78" on="1"/>
        <pt x="470" y="216" on="1"/>
        <pt x="534" y="222" on="0"/>
      </contour>
      <contour>
        <pt x="482" y="279" on="0"/>
        <pt x="412" y="279" on="0"/>
        <pt x="364" y="327" on="0"/>
        <pt x="364" y="396" on="0"/>
        <pt x="412" y="445" on="0"/>
        <pt x="482" y="445" on="0"/>
        <pt x="530" y="397" on="0"/>
        <pt x="530" y="327" on="0"/>
      </contour>
    </TTGlyph>
    <TTGlyph name="Lslash" xMin="13" yMin="0" xMax="534" yMax="685">
      <contour>
        <pt x="534" y="177" on="1"/>
        <pt x="534" y="0" on="1"/>
        <pt x="40" y="0" on="1"/>
        <pt x="40" y="8" on="1"/>
        <pt x="40" y="63" on="0"/>
        <pt x="84" y="67" on="1"/>
        <pt x="113" y="69" on="1"/>
        <pt x="113" y="217" on="1"/>
        <pt x="59" y="175" on="1"/>
        <pt x="13" y="230" on="1"/>
        <pt x="113" y="308" on="1"/>
        <pt x="113" y="614" on="1"/>
        <pt x="43" y="620" on="1"/>
        <pt x="40" y="626" on="0"/>
        <pt x="44" y="647" on="1"/>
        <pt x="53" y="685" on="0"/>
        <pt x="88" y="685" on="1"/>
        <pt x="333" y="685" on="1"/>
        <pt x="333" y="676" on="1"/>
        <pt x="333" y="637" on="0"/>
        <pt x="310" y="623" on="1"/>
        <pt x="301" y="618" on="0"/>
        <pt x="289" y="618" on="1"/>
        <pt x="240" y="616" on="1"/>
        <pt x="238" y="616" on="1"/>
        <pt x="238" y="406" on="1"/>
        <pt x="337" y="483" on="1"/>
        <pt x="382" y="428" on="1"/>
        <pt x="238" y="315" on="1"/>
        <pt x="238" y="71" on="1"/>
        <pt x="454" y="78" on="1"/>
        <pt x="470" y="216" on="1"/>
        <pt x="534" y="222" on="0"/>
      </contour>
    </TTGlyph>
    <TTGlyph name="M" xMin="10" yMin="0" xMax="879" yMax="685">
      <contour>
        <pt x="834" y="0" on="1"/>
        <pt x="607" y="0" on="1"/>
        <pt x="607" y="8" on="1"/>
        <pt x="607" y="63" on="0"/>
        <pt x="651" y="67" on="1"/>
        <pt x="679" y="69" on="1"/>
        <pt x="643" y="554" on="1"/>
        <pt x="464" y="108" on="1"/>
        <pt x="428" y="97" on="0"/>
        <pt x="400" y="103" on="1"/>
        <pt x="207" y="535" on="1"/>
        <pt x="178" y="71" on="1"/>
        <pt x="259" y="65" on="1"/>
        <pt x="262" y="59" on="0"/>
        <pt x="258" y="38" on="1"/>
        <pt x="249" y="0" on="0"/>
        <pt x="214" y="0" on="1"/>
        <pt x="10" y="0" on="1"/>
        <pt x="10" y="8" on="1"/>
        <pt x="10" y="63" on="0"/>
        <pt x="54" y="67" on="1"/>
        <pt x="94" y="69" on="1"/>
        <pt x="130" y="614" on="1"/>
        <pt x="61" y="620" on="1"/>
        <pt x="58" y="626" on="0"/>
        <pt x="62" y="647" on="1"/>
        <pt x="71" y="685" on="0"/>
        <pt x="106" y="685" on="1"/>
        <pt x="277" y="685" on="1"/>
        <pt x="453" y="287" on="1"/>
        <pt x="607" y="685" on="1"/>
        <pt x="790" y="685" on="1"/>
        <pt x="807" y="685" on="0"/>
        <pt x="829" y="668" on="0"/>
        <pt x="832" y="656" on="1"/>
        <pt x="838" y="626" on="0"/>
        <pt x="835" y="620" on="1"/>
        <pt x="765" y="614" on="1"/>
        <pt x="806" y="71" on="1"/>
        <pt x="879" y="65" on="1"/>
        <pt x="882" y="59" on="0"/>
        <pt x="878" y="38" on="1"/>
        <pt x="869" y="0" on="0"/>
      </contour>
    </TTGlyph>
    <TTGlyph name="N" xMin="40" yMin="-1" xMax="677" yMax="685">
      <contour>
        <pt x="503" y="685" on="1"/>
        <pt x="677" y="685" on="1"/>
        <pt x="677" y="685" on="0"/>
        <pt x="677" y="677" on="1"/>
        <pt x="677" y="622" on="0"/>
        <pt x="633" y="618" on="1"/>
        <pt x="604" y="616" on="1"/>
        <pt x="604" y="13" on="1"/>
        <pt x="574" y="-1" on="0"/>
        <pt x="527" y="-1" on="1"/>
        <pt x="188" y="506" on="1"/>
        <pt x="188" y="71" on="1"/>
        <pt x="260" y="65" on="1"/>
        <pt x="266" y="0" on="0"/>
        <pt x="215" y="0" on="1"/>
        <pt x="40" y="0" on="1"/>
        <pt x="40" y="8" on="1"/>
        <pt x="40" y="63" on="0"/>
        <pt x="84" y="67" on="1"/>
        <pt x="113" y="69" on="1"/>
        <pt x="113" y="614" on="1"/>
        <pt x="41" y="620" on="1"/>
        <pt x="38" y="626" on="0"/>
        <pt x="42" y="647" on="1"/>
        <pt x="51" y="685" on="0"/>
        <pt x="86" y="685" on="1"/>
        <pt x="217" y="685" on="1"/>
        <pt x="529" y="220" on="1"/>
        <pt x="529" y="614" on="1"/>
        <pt x="458" y="620" on="1"/>
        <pt x="452" y="685" on="0"/>
      </contour>
    </TTGlyph>
    <TTGlyph name="Nacute" xMin="40" yMin="-1" xMax="677" yMax="910">
      <contour>
        <pt x="503" y="685" on="1"/>
        <pt x="677" y="685" on="1"/>
        <pt x="677" y="685" on="0"/>
        <pt x="677" y="677" on="1"/>
        <pt x="677" y="622" on="0"/>
        <pt x="633" y="618" on="1"/>
        <pt x="604" y="616" on="1"/>
        <pt x="604" y="13" on="1"/>
        <pt x="574" y="-1" on="0"/>
        <pt x="527" y="-1" on="1"/>
        <pt x="188" y="506" on="1"/>
        <pt x="188" y="71" on="1"/>
        <pt x="260" y="65" on="1"/>
        <pt x="266" y="0" on="0"/>
        <pt x="215" y="0" on="1"/>
        <pt x="40" y="0" on="1"/>
        <pt x="40" y="8" on="1"/>
        <pt x="40" y="63" on="0"/>
        <pt x="84" y="67" on="1"/>
        <pt x="113" y="69" on="1"/>
        <pt x="113" y="614" on="1"/>
        <pt x="41" y="620" on="1"/>
        <pt x="38" y="626" on="0"/>
        <pt x="42" y="647" on="1"/>
        <pt x="51" y="685" on="0"/>
        <pt x="86" y="685" on="1"/>
        <pt x="217" y="685" on="1"/>
        <pt x="529" y="220" on="1"/>
        <pt x="529" y="614" on="1"/>
        <pt x="458" y="620" on="1"/>
        <pt x="452" y="685" on="0"/>
      </contour>
      <contour>
        <pt x="520" y="842" on="1"/>
        <pt x="313" y="732" on="1"/>
        <pt x="282" y="748" on="0"/>
        <pt x="271" y="773" on="1"/>
        <pt x="438" y="910" on="1"/>
        <pt x="461" y="905" on="0"/>
        <pt x="511" y="860" on="0"/>
      </contour>
    </TTGlyph>
    <TTGlyph name="Ncaron" xMin="40" yMin="-1" xMax="677" yMax="905">
      <contour>
        <pt x="503" y="685" on="1"/>
        <pt x="677" y="685" on="1"/>
        <pt x="677" y="685" on="0"/>
        <pt x="677" y="677" on="1"/>
        <pt x="677" y="622" on="0"/>
        <pt x="633" y="618" on="1"/>
        <pt x="604" y="616" on="1"/>
        <pt x="604" y="13" on="1"/>
        <pt x="574" y="-1" on="0"/>
        <pt x="527" y="-1" on="1"/>
        <pt x="188" y="506" on="1"/>
        <pt x="188" y="71" on="1"/>
        <pt x="260" y="65" on="1"/>
        <pt x="266" y="0" on="0"/>
        <pt x="215" y="0" on="1"/>
        <pt x="40" y="0" on="1"/>
        <pt x="40" y="8" on="1"/>
        <pt x="40" y="63" on="0"/>
        <pt x="84" y="67" on="1"/>
        <pt x="113" y="69" on="1"/>
        <pt x="113" y="614" on="1"/>
        <pt x="41" y="620" on="1"/>
        <pt x="38" y="626" on="0"/>
        <pt x="42" y="647" on="1"/>
        <pt x="51" y="685" on="0"/>
        <pt x="86" y="685" on="1"/>
        <pt x="217" y="685" on="1"/>
        <pt x="529" y="220" on="1"/>
        <pt x="529" y="614" on="1"/>
        <pt x="458" y="620" on="1"/>
        <pt x="452" y="685" on="0"/>
      </contour>
      <contour>
        <pt x="526" y="867" on="1"/>
        <pt x="391" y="741" on="1"/>
        <pt x="356" y="732" on="0"/>
        <pt x="315" y="741" on="1"/>
        <pt x="176" y="867" on="1"/>
        <pt x="189" y="892" on="0"/>
        <pt x="211" y="905" on="1"/>
        <pt x="351" y="819" on="1"/>
        <pt x="489" y="905" on="1"/>
        <pt x="509" y="894" on="0"/>
      </contour>
    </TTGlyph>
    <TTGlyph name="Ntilde" xMin="40" yMin="-1" xMax="677" yMax="890">
      <contour>
        <pt x="503" y="685" on="1"/>
        <pt x="677" y="685" on="1"/>
        <pt x="677" y="685" on="0"/>
        <pt x="677" y="677" on="1"/>
        <pt x="677" y="622" on="0"/>
        <pt x="633" y="618" on="1"/>
        <pt x="604" y="616" on="1"/>
        <pt x="604" y="13" on="1"/>
        <pt x="574" y="-1" on="0"/>
        <pt x="527" y="-1" on="1"/>
        <pt x="188" y="506" on="1"/>
        <pt x="188" y="71" on="1"/>
        <pt x="260" y="65" on="1"/>
        <pt x="266" y="0" on="0"/>
        <pt x="215" y="0" on="1"/>
        <pt x="40" y="0" on="1"/>
        <pt x="40" y="8" on="1"/>
        <pt x="40" y="63" on="0"/>
        <pt x="84" y="67" on="1"/>
        <pt x="113" y="69" on="1"/>
        <pt x="113" y="614" on="1"/>
        <pt x="41" y="620" on="1"/>
        <pt x="38" y="626" on="0"/>
        <pt x="42" y="647" on="1"/>
        <pt x="51" y="685" on="0"/>
        <pt x="86" y="685" on="1"/>
        <pt x="217" y="685" on="1"/>
        <pt x="529" y="220" on="1"/>
        <pt x="529" y="614" on="1"/>
        <pt x="458" y="620" on="1"/>
        <pt x="452" y="685" on="0"/>
      </contour>
      <contour>
        <pt x="417" y="742" on="1"/>
        <pt x="377" y="742" on="0"/>
        <pt x="289" y="794" on="0"/>
        <pt x="253" y="794" on="0"/>
        <pt x="223" y="770" on="0"/>
        <pt x="217" y="750" on="1"/>
        <pt x="183" y="762" on="1"/>
        <pt x="191" y="819" on="0"/>
        <pt x="247" y="890" on="0"/>
        <pt x="321" y="890" on="0"/>
        <pt x="404" y="831" on="0"/>
        <pt x="456" y="831" on="0"/>
        <pt x="491" y="859" on="0"/>
        <pt x="496" y="882" on="1"/>
        <pt x="528" y="873" on="1"/>
        <pt x="511" y="742" on="0"/>
      </contour>
    </TTGlyph>
    <TTGlyph name="O" xMin="35" yMin="-15" xMax="654" yMax="700">
      <contour>
        <pt x="344" y="620" on="1"/>
        <pt x="165" y="620" on="0"/>
        <pt x="165" y="347" on="1"/>
        <pt x="165" y="210" on="0"/>
        <pt x="254" y="66" on="0"/>
        <pt x="340" y="65" on="1"/>
        <pt x="431" y="66" on="0"/>
        <pt x="524" y="205" on="0"/>
        <pt x="524" y="477" on="0"/>
        <pt x="433" y="620" on="0"/>
      </contour>
      <contour>
        <pt x="35" y="507" on="0"/>
        <pt x="207" y="700" on="0"/>
        <pt x="499" y="700" on="0"/>
        <pt x="654" y="515" on="0"/>
        <pt x="654" y="178" on="0"/>
        <pt x="481" y="-15" on="0"/>
        <pt x="189" y="-15" on="0"/>
        <pt x="35" y="170" on="0"/>
      </contour>
    </TTGlyph>
    <TTGlyph name="OE" xMin="35" yMin="-15" xMax="894" yMax="700">
      <contour>
        <pt x="340" y="64" on="1"/>
        <pt x="421" y="65" on="0"/>
        <pt x="463" y="112" on="1"/>
        <pt x="463" y="582" on="1"/>
        <pt x="421" y="621" on="0"/>
        <pt x="344" y="621" on="1"/>
        <pt x="247" y="621" on="0"/>
        <pt x="165" y="478" on="0"/>
        <pt x="165" y="208" on="0"/>
        <pt x="233" y="66" on="0"/>
      </contour>
      <contour>
        <pt x="894" y="0" on="1"/>
        <pt x="437" y="0" on="1"/>
        <pt x="388" y="-15" on="0"/>
        <pt x="327" y="-15" on="1"/>
        <pt x="193" y="-15" on="0"/>
        <pt x="35" y="177" on="0"/>
        <pt x="35" y="499" on="0"/>
        <pt x="200" y="700" on="0"/>
        <pt x="360" y="700" on="1"/>
        <pt x="420" y="700" on="0"/>
        <pt x="467" y="685" on="1"/>
        <pt x="874" y="685" on="1"/>
        <pt x="874" y="534" on="1"/>
        <pt x="874" y="489" on="0"/>
        <pt x="810" y="495" on="1"/>
        <pt x="801" y="613" on="1"/>
        <pt x="588" y="616" on="1"/>
        <pt x="588" y="368" on="1"/>
        <pt x="767" y="389" on="1"/>
        <pt x="778" y="341" on="0"/>
        <pt x="768" y="290" on="1"/>
        <pt x="588" y="300" on="1"/>
        <pt x="588" y="71" on="1"/>
        <pt x="822" y="79" on="1"/>
        <pt x="830" y="202" on="1"/>
        <pt x="894" y="208" on="0"/>
        <pt x="894" y="163" on="1"/>
      </contour>
    </TTGlyph>
    <TTGlyph name="Oacute" xMin="35" yMin="-15" xMax="654" yMax="910">
      <contour>
        <pt x="519" y="842" on="1"/>
        <pt x="312" y="732" on="1"/>
        <pt x="281" y="748" on="0"/>
        <pt x="270" y="773" on="1"/>
        <pt x="437" y="910" on="1"/>
        <pt x="460" y="905" on="0"/>
        <pt x="510" y="860" on="0"/>
      </contour>
      <contour>
        <pt x="344" y="620" on="1"/>
        <pt x="165" y="620" on="0"/>
        <pt x="165" y="347" on="1"/>
        <pt x="165" y="210" on="0"/>
        <pt x="254" y="66" on="0"/>
        <pt x="340" y="65" on="1"/>
        <pt x="431" y="66" on="0"/>
        <pt x="524" y="205" on="0"/>
        <pt x="524" y="477" on="0"/>
        <pt x="433" y="620" on="0"/>
      </contour>
      <contour>
        <pt x="35" y="507" on="0"/>
        <pt x="207" y="700" on="0"/>
        <pt x="499" y="700" on="0"/>
        <pt x="654" y="515" on="0"/>
        <pt x="654" y="178" on="0"/>
        <pt x="481" y="-15" on="0"/>
        <pt x="189" y="-15" on="0"/>
        <pt x="35" y="170" on="0"/>
      </contour>
    </TTGlyph>
    <TTGlyph name="Obreve" xMin="35" yMin="-15" xMax="654" yMax="906">
      <contour>
        <pt x="344" y="620" on="1"/>
        <pt x="165" y="620" on="0"/>
        <pt x="165" y="347" on="1"/>
        <pt x="165" y="210" on="0"/>
        <pt x="254" y="66" on="0"/>
        <pt x="340" y="65" on="1"/>
        <pt x="431" y="66" on="0"/>
        <pt x="524" y="205" on="0"/>
        <pt x="524" y="477" on="0"/>
        <pt x="433" y="620" on="0"/>
      </contour>
      <contour>
        <pt x="35" y="507" on="0"/>
        <pt x="207" y="700" on="0"/>
        <pt x="499" y="700" on="0"/>
        <pt x="654" y="515" on="0"/>
        <pt x="654" y="178" on="0"/>
        <pt x="481" y="-15" on="0"/>
        <pt x="189" y="-15" on="0"/>
        <pt x="35" y="170" on="0"/>
      </contour>
      <contour>
        <pt x="354" y="824" on="1"/>
        <pt x="447" y="824" on="0"/>
        <pt x="482" y="906" on="1"/>
        <pt x="518" y="886" on="1"/>
        <pt x="510" y="826" on="0"/>
        <pt x="426" y="739" on="0"/>
        <pt x="280" y="739" on="0"/>
        <pt x="196" y="826" on="0"/>
        <pt x="188" y="886" on="1"/>
        <pt x="224" y="906" on="1"/>
        <pt x="237" y="876" on="0"/>
        <pt x="301" y="824" on="0"/>
      </contour>
    </TTGlyph>
    <TTGlyph name="Ocircumflex" xMin="35" yMin="-15" xMax="654" yMax="887">
      <contour>
        <pt x="35" y="507" on="0"/>
        <pt x="207" y="700" on="0"/>
        <pt x="499" y="700" on="0"/>
        <pt x="654" y="515" on="0"/>
        <pt x="654" y="178" on="0"/>
        <pt x="481" y="-15" on="0"/>
        <pt x="189" y="-15" on="0"/>
        <pt x="35" y="170" on="0"/>
      </contour>
      <contour>
        <pt x="340" y="65" on="1"/>
        <pt x="524" y="67" on="0"/>
        <pt x="524" y="341" on="1"/>
        <pt x="524" y="477" on="0"/>
        <pt x="433" y="620" on="0"/>
        <pt x="344" y="620" on="1"/>
        <pt x="165" y="620" on="0"/>
        <pt x="165" y="347" on="1"/>
        <pt x="165" y="210" on="0"/>
        <pt x="254" y="66" on="0"/>
      </contour>
      <contour>
        <pt x="352" y="809" on="1"/>
        <pt x="212" y="723" on="1"/>
        <pt x="190" y="736" on="0"/>
        <pt x="177" y="761" on="1"/>
        <pt x="316" y="887" on="1"/>
        <pt x="357" y="896" on="0"/>
        <pt x="392" y="887" on="1"/>
        <pt x="527" y="761" on="1"/>
        <pt x="510" y="734" on="0"/>
        <pt x="490" y="723" on="1"/>
      </contour>
    </TTGlyph>
    <TTGlyph name="Odieresis" xMin="35" yMin="-15" xMax="654" yMax="894">
      <contour>
        <pt x="513" y="795" on="0"/>
        <pt x="472" y="754" on="0"/>
        <pt x="413" y="754" on="0"/>
        <pt x="372" y="795" on="0"/>
        <pt x="372" y="852" on="0"/>
        <pt x="414" y="894" on="0"/>
        <pt x="472" y="894" on="0"/>
        <pt x="513" y="853" on="0"/>
      </contour>
      <contour>
        <pt x="281" y="754" on="0"/>
        <pt x="223" y="754" on="0"/>
        <pt x="181" y="795" on="0"/>
        <pt x="181" y="853" on="0"/>
        <pt x="223" y="894" on="0"/>
        <pt x="281" y="894" on="0"/>
        <pt x="322" y="853" on="0"/>
        <pt x="322" y="795" on="0"/>
      </contour>
      <contour>
        <pt x="344" y="620" on="1"/>
        <pt x="165" y="620" on="0"/>
        <pt x="165" y="347" on="1"/>
        <pt x="165" y="210" on="0"/>
        <pt x="254" y="66" on="0"/>
        <pt x="340" y="65" on="1"/>
        <pt x="431" y="66" on="0"/>
        <pt x="524" y="205" on="0"/>
        <pt x="524" y="477" on="0"/>
        <pt x="433" y="620" on="0"/>
      </contour>
      <contour>
        <pt x="35" y="507" on="0"/>
        <pt x="207" y="700" on="0"/>
        <pt x="499" y="700" on="0"/>
        <pt x="654" y="515" on="0"/>
        <pt x="654" y="178" on="0"/>
        <pt x="481" y="-15" on="0"/>
        <pt x="189" y="-15" on="0"/>
        <pt x="35" y="170" on="0"/>
      </contour>
    </TTGlyph>
    <TTGlyph name="Ograve" xMin="35" yMin="-15" xMax="654" yMax="910">
      <contour>
        <pt x="407" y="732" on="1"/>
        <pt x="200" y="842" on="1"/>
        <pt x="209" y="860" on="0"/>
        <pt x="259" y="905" on="0"/>
        <pt x="282" y="910" on="1"/>
        <pt x="449" y="773" on="1"/>
        <pt x="438" y="748" on="0"/>
      </contour>
      <contour>
        <pt x="35" y="507" on="0"/>
        <pt x="207" y="700" on="0"/>
        <pt x="499" y="700" on="0"/>
        <pt x="654" y="515" on="0"/>
        <pt x="654" y="178" on="0"/>
        <pt x="481" y="-15" on="0"/>
        <pt x="189" y="-15" on="0"/>
        <pt x="35" y="170" on="0"/>
      </contour>
      <contour>
        <pt x="344" y="620" on="1"/>
        <pt x="165" y="620" on="0"/>
        <pt x="165" y="347" on="1"/>
        <pt x="165" y="210" on="0"/>
        <pt x="254" y="66" on="0"/>
        <pt x="340" y="65" on="1"/>
        <pt x="431" y="66" on="0"/>
        <pt x="524" y="205" on="0"/>
        <pt x="524" y="477" on="0"/>
        <pt x="433" y="620" on="0"/>
      </contour>
    </TTGlyph>
    <TTGlyph name="Ohungarumlaut" xMin="35" yMin="-15" xMax="654" yMax="879">
      <contour>
        <pt x="344" y="620" on="1"/>
        <pt x="165" y="620" on="0"/>
        <pt x="165" y="347" on="1"/>
        <pt x="165" y="210" on="0"/>
        <pt x="254" y="66" on="0"/>
        <pt x="340" y="65" on="1"/>
        <pt x="431" y="66" on="0"/>
        <pt x="524" y="205" on="0"/>
        <pt x="524" y="477" on="0"/>
        <pt x="433" y="620" on="0"/>
      </contour>
      <contour>
        <pt x="35" y="507" on="0"/>
        <pt x="207" y="700" on="0"/>
        <pt x="499" y="700" on="0"/>
        <pt x="654" y="515" on="0"/>
        <pt x="654" y="178" on="0"/>
        <pt x="481" y="-15" on="0"/>
        <pt x="189" y="-15" on="0"/>
        <pt x="35" y="170" on="0"/>
      </contour>
      <contour>
        <pt x="474" y="811" on="1"/>
        <pt x="267" y="701" on="1"/>
        <pt x="236" y="717" on="0"/>
        <pt x="225" y="742" on="1"/>
        <pt x="392" y="879" on="1"/>
        <pt x="415" y="874" on="0"/>
        <pt x="465" y="829" on="0"/>
      </contour>
      <contour>
        <pt x="653" y="811" on="1"/>
        <pt x="446" y="701" on="1"/>
        <pt x="415" y="717" on="0"/>
        <pt x="404" y="742" on="1"/>
        <pt x="571" y="879" on="1"/>
        <pt x="594" y="874" on="0"/>
        <pt x="644" y="829" on="0"/>
      </contour>
    </TTGlyph>
    <TTGlyph name="Omacron" xMin="35" yMin="-15" xMax="654" yMax="828">
      <contour>
        <pt x="204" y="828" on="1"/>
        <pt x="499" y="828" on="1"/>
        <pt x="499" y="758" on="1"/>
        <pt x="204" y="758" on="1"/>
      </contour>
      <contour>
        <pt x="344" y="620" on="1"/>
        <pt x="165" y="620" on="0"/>
        <pt x="165" y="347" on="1"/>
        <pt x="165" y="210" on="0"/>
        <pt x="254" y="66" on="0"/>
        <pt x="340" y="65" on="1"/>
        <pt x="431" y="66" on="0"/>
        <pt x="524" y="205" on="0"/>
        <pt x="524" y="477" on="0"/>
        <pt x="433" y="620" on="0"/>
      </contour>
      <contour>
        <pt x="35" y="507" on="0"/>
        <pt x="207" y="700" on="0"/>
        <pt x="499" y="700" on="0"/>
        <pt x="654" y="515" on="0"/>
        <pt x="654" y="178" on="0"/>
        <pt x="481" y="-15" on="0"/>
        <pt x="189" y="-15" on="0"/>
        <pt x="35" y="170" on="0"/>
      </contour>
    </TTGlyph>
    <TTGlyph name="Oslash" xMin="35" yMin="-19" xMax="654" yMax="710">
      <contour>
        <pt x="553" y="632" on="1"/>
        <pt x="654" y="540" on="0"/>
        <pt x="654" y="178" on="0"/>
        <pt x="481" y="-15" on="0"/>
        <pt x="327" y="-15" on="1"/>
        <pt x="253" y="-15" on="0"/>
        <pt x="194" y="13" on="1"/>
        <pt x="175" y="-19" on="1"/>
        <pt x="105" y="19" on="1"/>
        <pt x="129" y="60" on="1"/>
        <pt x="35" y="151" on="0"/>
        <pt x="35" y="507" on="0"/>
        <pt x="207" y="700" on="0"/>
        <pt x="360" y="700" on="1"/>
        <pt x="432" y="700" on="0"/>
        <pt x="486" y="675" on="1"/>
        <pt x="506" y="710" on="1"/>
        <pt x="577" y="674" on="1"/>
      </contour>
      <contour>
        <pt x="344" y="620" on="1"/>
        <pt x="165" y="620" on="0"/>
        <pt x="165" y="347" on="1"/>
        <pt x="165" y="236" on="0"/>
        <pt x="193" y="171" on="1"/>
        <pt x="438" y="592" on="1"/>
        <pt x="400" y="620" on="0"/>
      </contour>
      <contour>
        <pt x="431" y="66" on="0"/>
        <pt x="524" y="205" on="0"/>
        <pt x="524" y="456" on="0"/>
        <pt x="491" y="526" on="1"/>
        <pt x="243" y="99" on="1"/>
        <pt x="281" y="67" on="0"/>
        <pt x="340" y="65" on="1"/>
      </contour>
    </TTGlyph>
    <TTGlyph name="Otilde" xMin="35" yMin="-15" xMax="654" yMax="890">
      <contour>
        <pt x="190" y="819" on="0"/>
        <pt x="246" y="890" on="0"/>
        <pt x="320" y="890" on="0"/>
        <pt x="403" y="831" on="0"/>
        <pt x="455" y="831" on="0"/>
        <pt x="490" y="859" on="0"/>
        <pt x="495" y="882" on="1"/>
        <pt x="527" y="873" on="1"/>
        <pt x="510" y="742" on="0"/>
        <pt x="416" y="742" on="1"/>
        <pt x="376" y="742" on="0"/>
        <pt x="288" y="794" on="0"/>
        <pt x="252" y="794" on="0"/>
        <pt x="222" y="770" on="0"/>
        <pt x="216" y="750" on="1"/>
        <pt x="182" y="762" on="1"/>
      </contour>
      <contour>
        <pt x="344" y="620" on="1"/>
        <pt x="165" y="620" on="0"/>
        <pt x="165" y="347" on="1"/>
        <pt x="165" y="210" on="0"/>
        <pt x="254" y="66" on="0"/>
        <pt x="340" y="65" on="1"/>
        <pt x="431" y="66" on="0"/>
        <pt x="524" y="205" on="0"/>
        <pt x="524" y="477" on="0"/>
        <pt x="433" y="620" on="0"/>
      </contour>
      <contour>
        <pt x="35" y="507" on="0"/>
        <pt x="207" y="700" on="0"/>
        <pt x="499" y="700" on="0"/>
        <pt x="654" y="515" on="0"/>
        <pt x="654" y="178" on="0"/>
        <pt x="481" y="-15" on="0"/>
        <pt x="189" y="-15" on="0"/>
        <pt x="35" y="170" on="0"/>
      </contour>
    </TTGlyph>
    <TTGlyph name="P" xMin="40" yMin="0" xMax="571" yMax="685">
      <contour>
        <pt x="283" y="255" on="1"/>
        <pt x="238" y="255" on="1"/>
        <pt x="238" y="71" on="1"/>
        <pt x="323" y="65" on="1"/>
        <pt x="326" y="59" on="0"/>
        <pt x="322" y="38" on="1"/>
        <pt x="313" y="0" on="0"/>
        <pt x="278" y="0" on="1"/>
        <pt x="40" y="0" on="1"/>
        <pt x="40" y="8" on="1"/>
        <pt x="40" y="63" on="0"/>
        <pt x="84" y="67" on="1"/>
        <pt x="113" y="69" on="1"/>
        <pt x="113" y="616" on="1"/>
        <pt x="40" y="622" on="1"/>
        <pt x="39" y="647" on="0"/>
        <pt x="59" y="685" on="0"/>
        <pt x="79" y="685" on="1"/>
        <pt x="313" y="685" on="1"/>
        <pt x="435" y="685" on="0"/>
        <pt x="571" y="582" on="0"/>
        <pt x="571" y="490" on="1"/>
        <pt x="571" y="379" on="0"/>
        <pt x="419" y="255" on="0"/>
      </contour>
      <contour>
        <pt x="238" y="317" on="1"/>
        <pt x="270" y="317" on="1"/>
        <pt x="350" y="317" on="0"/>
        <pt x="441" y="405" on="0"/>
        <pt x="441" y="552" on="0"/>
        <pt x="369" y="626" on="0"/>
        <pt x="304" y="624" on="1"/>
        <pt x="238" y="622" on="1"/>
      </contour>
    </TTGlyph>
    <TTGlyph name="Q" xMin="35" yMin="-141" xMax="654" yMax="700">
      <contour>
        <pt x="592" y="-54" on="1"/>
        <pt x="618" y="-54" on="0"/>
        <pt x="643" y="-38" on="1"/>
        <pt x="651" y="-48" on="0"/>
        <pt x="651" y="-101" on="0"/>
        <pt x="600" y="-141" on="0"/>
        <pt x="524" y="-141" on="0"/>
        <pt x="392" y="-87" on="0"/>
        <pt x="316" y="-45" on="0"/>
        <pt x="250" y="-7" on="1"/>
        <pt x="147" y="18" on="0"/>
        <pt x="35" y="195" on="0"/>
        <pt x="35" y="335" on="1"/>
        <pt x="35" y="507" on="0"/>
        <pt x="207" y="700" on="0"/>
        <pt x="499" y="700" on="0"/>
        <pt x="654" y="515" on="0"/>
        <pt x="654" y="199" on="0"/>
        <pt x="520" y="12" on="0"/>
        <pt x="398" y="-9" on="1"/>
        <pt x="526" y="-54" on="0"/>
      </contour>
      <contour>
        <pt x="165" y="347" on="1"/>
        <pt x="165" y="210" on="0"/>
        <pt x="254" y="66" on="0"/>
        <pt x="340" y="65" on="1"/>
        <pt x="431" y="66" on="0"/>
        <pt x="524" y="205" on="0"/>
        <pt x="524" y="477" on="0"/>
        <pt x="433" y="620" on="0"/>
        <pt x="344" y="620" on="1"/>
        <pt x="165" y="620" on="0"/>
      </contour>
    </TTGlyph>
    <TTGlyph name="R" xMin="40" yMin="-15" xMax="630" yMax="685">
      <contour>
        <pt x="79" y="685" on="1"/>
        <pt x="309" y="685" on="1"/>
        <pt x="557" y="685" on="0"/>
        <pt x="557" y="507" on="1"/>
        <pt x="557" y="432" on="0"/>
        <pt x="468" y="329" on="0"/>
        <pt x="382" y="310" on="1"/>
        <pt x="439" y="198" on="0"/>
        <pt x="569" y="73" on="0"/>
        <pt x="630" y="73" on="1"/>
        <pt x="625" y="35" on="0"/>
        <pt x="572" y="-15" on="0"/>
        <pt x="532" y="-15" on="1"/>
        <pt x="465" y="-15" on="0"/>
        <pt x="319" y="186" on="0"/>
        <pt x="278" y="300" on="1"/>
        <pt x="238" y="300" on="1"/>
        <pt x="238" y="71" on="1"/>
        <pt x="322" y="65" on="1"/>
        <pt x="328" y="0" on="0"/>
        <pt x="277" y="0" on="1"/>
        <pt x="40" y="0" on="1"/>
        <pt x="40" y="0" on="0"/>
        <pt x="40" y="8" on="1"/>
        <pt x="40" y="63" on="0"/>
        <pt x="84" y="67" on="1"/>
        <pt x="113" y="69" on="1"/>
        <pt x="113" y="616" on="1"/>
        <pt x="40" y="622" on="1"/>
        <pt x="39" y="647" on="0"/>
        <pt x="59" y="685" on="0"/>
      </contour>
      <contour>
        <pt x="238" y="622" on="1"/>
        <pt x="238" y="363" on="1"/>
        <pt x="246" y="362" on="0"/>
        <pt x="260" y="362" on="1"/>
        <pt x="427" y="362" on="0"/>
        <pt x="427" y="500" on="1"/>
        <pt x="427" y="561" on="0"/>
        <pt x="362" y="626" on="0"/>
        <pt x="300" y="624" on="1"/>
        <pt x="240" y="622" on="1"/>
      </contour>
    </TTGlyph>
    <TTGlyph name="Racute" xMin="40" yMin="-15" xMax="630" yMax="910">
      <contour>
        <pt x="79" y="685" on="1"/>
        <pt x="309" y="685" on="1"/>
        <pt x="557" y="685" on="0"/>
        <pt x="557" y="507" on="1"/>
        <pt x="557" y="432" on="0"/>
        <pt x="468" y="329" on="0"/>
        <pt x="382" y="310" on="1"/>
        <pt x="439" y="198" on="0"/>
        <pt x="569" y="73" on="0"/>
        <pt x="630" y="73" on="1"/>
        <pt x="625" y="35" on="0"/>
        <pt x="572" y="-15" on="0"/>
        <pt x="532" y="-15" on="1"/>
        <pt x="465" y="-15" on="0"/>
        <pt x="319" y="186" on="0"/>
        <pt x="278" y="300" on="1"/>
        <pt x="238" y="300" on="1"/>
        <pt x="238" y="71" on="1"/>
        <pt x="322" y="65" on="1"/>
        <pt x="328" y="0" on="0"/>
        <pt x="277" y="0" on="1"/>
        <pt x="40" y="0" on="1"/>
        <pt x="40" y="0" on="0"/>
        <pt x="40" y="8" on="1"/>
        <pt x="40" y="63" on="0"/>
        <pt x="84" y="67" on="1"/>
        <pt x="113" y="69" on="1"/>
        <pt x="113" y="616" on="1"/>
        <pt x="40" y="622" on="1"/>
        <pt x="39" y="647" on="0"/>
        <pt x="59" y="685" on="0"/>
      </contour>
      <contour>
        <pt x="238" y="622" on="1"/>
        <pt x="238" y="363" on="1"/>
        <pt x="246" y="362" on="0"/>
        <pt x="260" y="362" on="1"/>
        <pt x="427" y="362" on="0"/>
        <pt x="427" y="500" on="1"/>
        <pt x="427" y="561" on="0"/>
        <pt x="362" y="626" on="0"/>
        <pt x="300" y="624" on="1"/>
        <pt x="240" y="622" on="1"/>
      </contour>
      <contour>
        <pt x="468" y="842" on="1"/>
        <pt x="261" y="732" on="1"/>
        <pt x="230" y="748" on="0"/>
        <pt x="219" y="773" on="1"/>
        <pt x="386" y="910" on="1"/>
        <pt x="409" y="905" on="0"/>
        <pt x="459" y="860" on="0"/>
      </contour>
    </TTGlyph>
    <TTGlyph name="Rcaron" xMin="40" yMin="-15" xMax="630" yMax="905">
      <contour>
        <pt x="79" y="685" on="1"/>
        <pt x="309" y="685" on="1"/>
        <pt x="557" y="685" on="0"/>
        <pt x="557" y="507" on="1"/>
        <pt x="557" y="432" on="0"/>
        <pt x="468" y="329" on="0"/>
        <pt x="382" y="310" on="1"/>
        <pt x="439" y="198" on="0"/>
        <pt x="569" y="73" on="0"/>
        <pt x="630" y="73" on="1"/>
        <pt x="625" y="35" on="0"/>
        <pt x="572" y="-15" on="0"/>
        <pt x="532" y="-15" on="1"/>
        <pt x="465" y="-15" on="0"/>
        <pt x="319" y="186" on="0"/>
        <pt x="278" y="300" on="1"/>
        <pt x="238" y="300" on="1"/>
        <pt x="238" y="71" on="1"/>
        <pt x="322" y="65" on="1"/>
        <pt x="328" y="0" on="0"/>
        <pt x="277" y="0" on="1"/>
        <pt x="40" y="0" on="1"/>
        <pt x="40" y="0" on="0"/>
        <pt x="40" y="8" on="1"/>
        <pt x="40" y="63" on="0"/>
        <pt x="84" y="67" on="1"/>
        <pt x="113" y="69" on="1"/>
        <pt x="113" y="616" on="1"/>
        <pt x="40" y="622" on="1"/>
        <pt x="39" y="647" on="0"/>
        <pt x="59" y="685" on="0"/>
      </contour>
      <contour>
        <pt x="238" y="622" on="1"/>
        <pt x="238" y="363" on="1"/>
        <pt x="246" y="362" on="0"/>
        <pt x="260" y="362" on="1"/>
        <pt x="427" y="362" on="0"/>
        <pt x="427" y="500" on="1"/>
        <pt x="427" y="561" on="0"/>
        <pt x="362" y="626" on="0"/>
        <pt x="300" y="624" on="1"/>
        <pt x="240" y="622" on="1"/>
      </contour>
      <contour>
        <pt x="474" y="867" on="1"/>
        <pt x="339" y="741" on="1"/>
        <pt x="304" y="732" on="0"/>
        <pt x="263" y="741" on="1"/>
        <pt x="124" y="867" on="1"/>
        <pt x="137" y="892" on="0"/>
        <pt x="159" y="905" on="1"/>
        <pt x="299" y="819" on="1"/>
        <pt x="437" y="905" on="1"/>
        <pt x="457" y="894" on="0"/>
      </contour>
    </TTGlyph>
    <TTGlyph name="S" xMin="25" yMin="-15" xMax="504" yMax="700">
      <contour>
        <pt x="444" y="650" on="1"/>
        <pt x="473" y="621" on="0"/>
        <pt x="473" y="535" on="0"/>
        <pt x="421" y="491" on="0"/>
        <pt x="380" y="497" on="1"/>
        <pt x="380" y="624" on="0"/>
        <pt x="269" y="624" on="1"/>
        <pt x="220" y="624" on="0"/>
        <pt x="159" y="579" on="0"/>
        <pt x="159" y="540" on="1"/>
        <pt x="159" y="510" on="0"/>
        <pt x="187" y="481" on="0"/>
        <pt x="201" y="468" on="0"/>
        <pt x="240" y="447" on="0"/>
        <pt x="257" y="439" on="0"/>
        <pt x="310" y="416" on="0"/>
        <pt x="319" y="412" on="1"/>
        <pt x="421" y="367" on="0"/>
        <pt x="504" y="285" on="0"/>
        <pt x="504" y="212" on="1"/>
        <pt x="504" y="111" on="0"/>
        <pt x="362" y="-15" on="0"/>
        <pt x="241" y="-15" on="1"/>
        <pt x="119" y="-15" on="0"/>
        <pt x="58" y="40" on="1"/>
        <pt x="25" y="71" on="0"/>
        <pt x="25" y="154" on="0"/>
        <pt x="78" y="202" on="0"/>
        <pt x="131" y="202" on="1"/>
        <pt x="131" y="129" on="0"/>
        <pt x="192" y="61" on="0"/>
        <pt x="324" y="61" on="0"/>
        <pt x="400" y="122" on="0"/>
        <pt x="400" y="214" on="0"/>
        <pt x="328" y="270" on="0"/>
        <pt x="208" y="322" on="0"/>
        <pt x="170" y="339" on="0"/>
        <pt x="108" y="378" on="0"/>
        <pt x="94" y="396" on="1"/>
        <pt x="55" y="444" on="0"/>
        <pt x="55" y="506" on="1"/>
        <pt x="55" y="601" on="0"/>
        <pt x="195" y="700" on="0"/>
        <pt x="393" y="700" on="0"/>
      </contour>
    </TTGlyph>
    <TTGlyph name="Sacute" xMin="25" yMin="-15" xMax="504" yMax="910">
      <contour>
        <pt x="450" y="842" on="1"/>
        <pt x="243" y="732" on="1"/>
        <pt x="212" y="748" on="0"/>
        <pt x="201" y="773" on="1"/>
        <pt x="368" y="910" on="1"/>
        <pt x="391" y="905" on="0"/>
        <pt x="441" y="860" on="0"/>
      </contour>
      <contour>
        <pt x="444" y="650" on="1"/>
        <pt x="473" y="621" on="0"/>
        <pt x="473" y="535" on="0"/>
        <pt x="421" y="491" on="0"/>
        <pt x="380" y="497" on="1"/>
        <pt x="380" y="624" on="0"/>
        <pt x="269" y="624" on="1"/>
        <pt x="220" y="624" on="0"/>
        <pt x="159" y="579" on="0"/>
        <pt x="159" y="540" on="1"/>
        <pt x="159" y="510" on="0"/>
        <pt x="187" y="481" on="0"/>
        <pt x="201" y="468" on="0"/>
        <pt x="240" y="447" on="0"/>
        <pt x="257" y="439" on="0"/>
        <pt x="310" y="416" on="0"/>
        <pt x="319" y="412" on="1"/>
        <pt x="421" y="367" on="0"/>
        <pt x="504" y="285" on="0"/>
        <pt x="504" y="212" on="1"/>
        <pt x="504" y="111" on="0"/>
        <pt x="362" y="-15" on="0"/>
        <pt x="241" y="-15" on="1"/>
        <pt x="119" y="-15" on="0"/>
        <pt x="58" y="40" on="1"/>
        <pt x="25" y="71" on="0"/>
        <pt x="25" y="154" on="0"/>
        <pt x="78" y="202" on="0"/>
        <pt x="131" y="202" on="1"/>
        <pt x="131" y="129" on="0"/>
        <pt x="192" y="61" on="0"/>
        <pt x="324" y="61" on="0"/>
        <pt x="400" y="122" on="0"/>
        <pt x="400" y="214" on="0"/>
        <pt x="328" y="270" on="0"/>
        <pt x="208" y="322" on="0"/>
        <pt x="170" y="339" on="0"/>
        <pt x="108" y="378" on="0"/>
        <pt x="94" y="396" on="1"/>
        <pt x="55" y="444" on="0"/>
        <pt x="55" y="506" on="1"/>
        <pt x="55" y="601" on="0"/>
        <pt x="195" y="700" on="0"/>
        <pt x="393" y="700" on="0"/>
      </contour>
    </TTGlyph>
    <TTGlyph name="Scaron" xMin="25" yMin="-15" xMax="504" yMax="905">
      <contour>
        <pt x="504" y="212" on="1"/>
        <pt x="504" y="111" on="0"/>
        <pt x="362" y="-15" on="0"/>
        <pt x="241" y="-15" on="1"/>
        <pt x="119" y="-15" on="0"/>
        <pt x="58" y="40" on="1"/>
        <pt x="25" y="71" on="0"/>
        <pt x="25" y="154" on="0"/>
        <pt x="78" y="202" on="0"/>
        <pt x="131" y="202" on="1"/>
        <pt x="131" y="129" on="0"/>
        <pt x="192" y="61" on="0"/>
        <pt x="324" y="61" on="0"/>
        <pt x="400" y="122" on="0"/>
        <pt x="400" y="214" on="0"/>
        <pt x="328" y="270" on="0"/>
        <pt x="208" y="322" on="0"/>
        <pt x="170" y="339" on="0"/>
        <pt x="108" y="378" on="0"/>
        <pt x="94" y="396" on="1"/>
        <pt x="55" y="444" on="0"/>
        <pt x="55" y="506" on="1"/>
        <pt x="55" y="601" on="0"/>
        <pt x="195" y="700" on="0"/>
        <pt x="291" y="700" on="1"/>
        <pt x="393" y="700" on="0"/>
        <pt x="444" y="650" on="1"/>
        <pt x="473" y="621" on="0"/>
        <pt x="473" y="535" on="0"/>
        <pt x="421" y="491" on="0"/>
        <pt x="380" y="497" on="1"/>
        <pt x="380" y="624" on="0"/>
        <pt x="269" y="624" on="1"/>
        <pt x="220" y="624" on="0"/>
        <pt x="159" y="579" on="0"/>
        <pt x="159" y="540" on="1"/>
        <pt x="159" y="510" on="0"/>
        <pt x="187" y="481" on="0"/>
        <pt x="201" y="468" on="0"/>
        <pt x="240" y="447" on="0"/>
        <pt x="257" y="439" on="0"/>
        <pt x="310" y="416" on="0"/>
        <pt x="319" y="412" on="1"/>
        <pt x="421" y="367" on="0"/>
        <pt x="504" y="285" on="0"/>
      </contour>
      <contour>
        <pt x="456" y="867" on="1"/>
        <pt x="321" y="741" on="1"/>
        <pt x="286" y="732" on="0"/>
        <pt x="245" y="741" on="1"/>
        <pt x="106" y="867" on="1"/>
        <pt x="119" y="892" on="0"/>
        <pt x="141" y="905" on="1"/>
        <pt x="281" y="819" on="1"/>
        <pt x="419" y="905" on="1"/>
        <pt x="439" y="894" on="0"/>
      </contour>
    </TTGlyph>
    <TTGlyph name="Scircumflex" xMin="25" yMin="-15" xMax="504" yMax="887">
      <contour>
        <pt x="504" y="212" on="1"/>
        <pt x="504" y="111" on="0"/>
        <pt x="362" y="-15" on="0"/>
        <pt x="241" y="-15" on="1"/>
        <pt x="119" y="-15" on="0"/>
        <pt x="58" y="40" on="1"/>
        <pt x="25" y="71" on="0"/>
        <pt x="25" y="154" on="0"/>
        <pt x="78" y="202" on="0"/>
        <pt x="131" y="202" on="1"/>
        <pt x="131" y="129" on="0"/>
        <pt x="192" y="61" on="0"/>
        <pt x="324" y="61" on="0"/>
        <pt x="400" y="122" on="0"/>
        <pt x="400" y="214" on="0"/>
        <pt x="328" y="270" on="0"/>
        <pt x="208" y="322" on="0"/>
        <pt x="170" y="339" on="0"/>
        <pt x="108" y="378" on="0"/>
        <pt x="94" y="396" on="1"/>
        <pt x="55" y="444" on="0"/>
        <pt x="55" y="506" on="1"/>
        <pt x="55" y="601" on="0"/>
        <pt x="195" y="700" on="0"/>
        <pt x="291" y="700" on="1"/>
        <pt x="393" y="700" on="0"/>
        <pt x="444" y="650" on="1"/>
        <pt x="473" y="621" on="0"/>
        <pt x="473" y="535" on="0"/>
        <pt x="421" y="491" on="0"/>
        <pt x="380" y="497" on="1"/>
        <pt x="380" y="624" on="0"/>
        <pt x="269" y="624" on="1"/>
        <pt x="220" y="624" on="0"/>
        <pt x="159" y="579" on="0"/>
        <pt x="159" y="540" on="1"/>
        <pt x="159" y="510" on="0"/>
        <pt x="187" y="481" on="0"/>
        <pt x="201" y="468" on="0"/>
        <pt x="240" y="447" on="0"/>
        <pt x="257" y="439" on="0"/>
        <pt x="310" y="416" on="0"/>
        <pt x="319" y="412" on="1"/>
        <pt x="421" y="367" on="0"/>
        <pt x="504" y="285" on="0"/>
      </contour>
      <contour>
        <pt x="283" y="809" on="1"/>
        <pt x="143" y="723" on="1"/>
        <pt x="121" y="736" on="0"/>
        <pt x="108" y="761" on="1"/>
        <pt x="247" y="887" on="1"/>
        <pt x="288" y="896" on="0"/>
        <pt x="323" y="887" on="1"/>
        <pt x="458" y="761" on="1"/>
        <pt x="441" y="734" on="0"/>
        <pt x="421" y="723" on="1"/>
      </contour>
    </TTGlyph>
    <TTGlyph name="T" xMin="20" yMin="0" xMax="616" yMax="685">
      <contour>
        <pt x="20" y="685" on="1"/>
        <pt x="616" y="685" on="1"/>
        <pt x="616" y="544" on="1"/>
        <pt x="616" y="523" on="0"/>
        <pt x="590" y="502" on="0"/>
        <pt x="570" y="500" on="0"/>
        <pt x="552" y="500" on="1"/>
        <pt x="542" y="610" on="1"/>
        <pt x="380" y="610" on="1"/>
        <pt x="380" y="71" on="1"/>
        <pt x="462" y="65" on="1"/>
        <pt x="468" y="0" on="0"/>
        <pt x="417" y="0" on="1"/>
        <pt x="172" y="0" on="1"/>
        <pt x="172" y="0" on="0"/>
        <pt x="172" y="8" on="1"/>
        <pt x="172" y="63" on="0"/>
        <pt x="216" y="67" on="1"/>
        <pt x="255" y="69" on="1"/>
        <pt x="255" y="610" on="1"/>
        <pt x="94" y="610" on="1"/>
        <pt x="84" y="500" on="1"/>
        <pt x="66" y="500" on="0"/>
        <pt x="46" y="502" on="0"/>
        <pt x="20" y="523" on="0"/>
        <pt x="20" y="544" on="1"/>
      </contour>
    </TTGlyph>
    <TTGlyph name="Tbar" xMin="20" yMin="0" xMax="616" yMax="828">
      <contour>
        <pt x="20" y="685" on="1"/>
        <pt x="616" y="685" on="1"/>
        <pt x="616" y="544" on="1"/>
        <pt x="616" y="523" on="0"/>
        <pt x="590" y="502" on="0"/>
        <pt x="570" y="500" on="0"/>
        <pt x="552" y="500" on="1"/>
        <pt x="542" y="610" on="1"/>
        <pt x="380" y="610" on="1"/>
        <pt x="380" y="71" on="1"/>
        <pt x="462" y="65" on="1"/>
        <pt x="468" y="0" on="0"/>
        <pt x="417" y="0" on="1"/>
        <pt x="172" y="0" on="1"/>
        <pt x="172" y="0" on="0"/>
        <pt x="172" y="8" on="1"/>
        <pt x="172" y="63" on="0"/>
        <pt x="216" y="67" on="1"/>
        <pt x="255" y="69" on="1"/>
        <pt x="255" y="610" on="1"/>
        <pt x="94" y="610" on="1"/>
        <pt x="84" y="500" on="1"/>
        <pt x="66" y="500" on="0"/>
        <pt x="46" y="502" on="0"/>
        <pt x="20" y="523" on="0"/>
        <pt x="20" y="544" on="1"/>
      </contour>
      <contour>
        <pt x="471" y="828" on="1"/>
        <pt x="471" y="758" on="1"/>
        <pt x="176" y="758" on="1"/>
        <pt x="176" y="828" on="1"/>
      </contour>
    </TTGlyph>
    <TTGlyph name="Tcaron" xMin="20" yMin="0" xMax="616" yMax="905">
      <contour>
        <pt x="20" y="685" on="1"/>
        <pt x="616" y="685" on="1"/>
        <pt x="616" y="544" on="1"/>
        <pt x="616" y="523" on="0"/>
        <pt x="590" y="502" on="0"/>
        <pt x="570" y="500" on="0"/>
        <pt x="552" y="500" on="1"/>
        <pt x="542" y="610" on="1"/>
        <pt x="380" y="610" on="1"/>
        <pt x="380" y="71" on="1"/>
        <pt x="462" y="65" on="1"/>
        <pt x="468" y="0" on="0"/>
        <pt x="417" y="0" on="1"/>
        <pt x="172" y="0" on="1"/>
        <pt x="172" y="0" on="0"/>
        <pt x="172" y="8" on="1"/>
        <pt x="172" y="63" on="0"/>
        <pt x="216" y="67" on="1"/>
        <pt x="255" y="69" on="1"/>
        <pt x="255" y="610" on="1"/>
        <pt x="94" y="610" on="1"/>
        <pt x="84" y="500" on="1"/>
        <pt x="66" y="500" on="0"/>
        <pt x="46" y="502" on="0"/>
        <pt x="20" y="523" on="0"/>
        <pt x="20" y="544" on="1"/>
      </contour>
      <contour>
        <pt x="497" y="867" on="1"/>
        <pt x="362" y="741" on="1"/>
        <pt x="327" y="732" on="0"/>
        <pt x="286" y="741" on="1"/>
        <pt x="147" y="867" on="1"/>
        <pt x="160" y="892" on="0"/>
        <pt x="182" y="905" on="1"/>
        <pt x="322" y="819" on="1"/>
        <pt x="460" y="905" on="1"/>
        <pt x="480" y="894" on="0"/>
      </contour>
    </TTGlyph>
    <TTGlyph name="Thorn" xMin="40" yMin="0" xMax="559" yMax="685">
      <contour>
        <pt x="273" y="144" on="1"/>
        <pt x="238" y="144" on="1"/>
        <pt x="238" y="71" on="1"/>
        <pt x="239" y="71" on="1"/>
        <pt x="310" y="65" on="1"/>
        <pt x="316" y="0" on="0"/>
        <pt x="265" y="0" on="1"/>
        <pt x="40" y="0" on="1"/>
        <pt x="40" y="0" on="0"/>
        <pt x="40" y="8" on="1"/>
        <pt x="40" y="63" on="0"/>
        <pt x="84" y="67" on="1"/>
        <pt x="113" y="69" on="1"/>
        <pt x="113" y="614" on="1"/>
        <pt x="112" y="614" on="1"/>
        <pt x="41" y="620" on="1"/>
        <pt x="38" y="626" on="0"/>
        <pt x="42" y="647" on="1"/>
        <pt x="51" y="685" on="0"/>
        <pt x="86" y="685" on="1"/>
        <pt x="311" y="685" on="1"/>
        <pt x="311" y="677" on="1"/>
        <pt x="311" y="622" on="0"/>
        <pt x="267" y="618" on="1"/>
        <pt x="238" y="616" on="1"/>
        <pt x="238" y="562" on="1"/>
        <pt x="294" y="562" on="1"/>
        <pt x="419" y="562" on="0"/>
        <pt x="559" y="455" on="0"/>
        <pt x="559" y="258" on="0"/>
        <pt x="408" y="144" on="0"/>
      </contour>
      <contour>
        <pt x="287" y="499" on="1"/>
        <pt x="238" y="499" on="1"/>
        <pt x="238" y="206" on="1"/>
        <pt x="253" y="206" on="1"/>
        <pt x="337" y="206" on="0"/>
        <pt x="431" y="286" on="0"/>
        <pt x="431" y="424" on="0"/>
        <pt x="355" y="499" on="0"/>
      </contour>
    </TTGlyph>
    <TTGlyph name="U" xMin="11" yMin="-15" xMax="659" yMax="685">
      <contour>
        <pt x="479" y="685" on="1"/>
        <pt x="659" y="685" on="1"/>
        <pt x="659" y="685" on="0"/>
        <pt x="659" y="677" on="1"/>
        <pt x="659" y="622" on="0"/>
        <pt x="615" y="618" on="1"/>
        <pt x="586" y="616" on="1"/>
        <pt x="586" y="290" on="1"/>
        <pt x="586" y="132" on="0"/>
        <pt x="459" y="-15" on="0"/>
        <pt x="211" y="-15" on="0"/>
        <pt x="83" y="124" on="0"/>
        <pt x="83" y="291" on="1"/>
        <pt x="83" y="614" on="1"/>
        <pt x="11" y="620" on="1"/>
        <pt x="8" y="626" on="0"/>
        <pt x="12" y="647" on="1"/>
        <pt x="21" y="685" on="0"/>
        <pt x="56" y="685" on="1"/>
        <pt x="281" y="685" on="1"/>
        <pt x="281" y="677" on="1"/>
        <pt x="281" y="622" on="0"/>
        <pt x="237" y="618" on="1"/>
        <pt x="208" y="616" on="1"/>
        <pt x="208" y="275" on="1"/>
        <pt x="208" y="165" on="0"/>
        <pt x="270" y="65" on="0"/>
        <pt x="348" y="65" on="1"/>
        <pt x="506" y="65" on="0"/>
        <pt x="506" y="263" on="1"/>
        <pt x="505" y="614" on="1"/>
        <pt x="434" y="620" on="1"/>
        <pt x="428" y="685" on="0"/>
      </contour>
    </TTGlyph>
    <TTGlyph name="Uacute" xMin="11" yMin="-15" xMax="659" yMax="910">
      <contour>
        <pt x="507" y="842" on="1"/>
        <pt x="300" y="732" on="1"/>
        <pt x="269" y="748" on="0"/>
        <pt x="258" y="773" on="1"/>
        <pt x="425" y="910" on="1"/>
        <pt x="448" y="905" on="0"/>
        <pt x="498" y="860" on="0"/>
      </contour>
      <contour>
        <pt x="479" y="685" on="1"/>
        <pt x="659" y="685" on="1"/>
        <pt x="659" y="685" on="0"/>
        <pt x="659" y="677" on="1"/>
        <pt x="659" y="622" on="0"/>
        <pt x="615" y="618" on="1"/>
        <pt x="586" y="616" on="1"/>
        <pt x="586" y="290" on="1"/>
        <pt x="586" y="132" on="0"/>
        <pt x="459" y="-15" on="0"/>
        <pt x="211" y="-15" on="0"/>
        <pt x="83" y="124" on="0"/>
        <pt x="83" y="291" on="1"/>
        <pt x="83" y="614" on="1"/>
        <pt x="11" y="620" on="1"/>
        <pt x="8" y="626" on="0"/>
        <pt x="12" y="647" on="1"/>
        <pt x="21" y="685" on="0"/>
        <pt x="56" y="685" on="1"/>
        <pt x="281" y="685" on="1"/>
        <pt x="281" y="677" on="1"/>
        <pt x="281" y="622" on="0"/>
        <pt x="237" y="618" on="1"/>
        <pt x="208" y="616" on="1"/>
        <pt x="208" y="275" on="1"/>
        <pt x="208" y="165" on="0"/>
        <pt x="270" y="65" on="0"/>
        <pt x="348" y="65" on="1"/>
        <pt x="506" y="65" on="0"/>
        <pt x="506" y="263" on="1"/>
        <pt x="505" y="614" on="1"/>
        <pt x="434" y="620" on="1"/>
        <pt x="428" y="685" on="0"/>
      </contour>
    </TTGlyph>
    <TTGlyph name="Ubreve" xMin="11" yMin="-15" xMax="659" yMax="906">
      <contour>
        <pt x="479" y="685" on="1"/>
        <pt x="659" y="685" on="1"/>
        <pt x="659" y="685" on="0"/>
        <pt x="659" y="677" on="1"/>
        <pt x="659" y="622" on="0"/>
        <pt x="615" y="618" on="1"/>
        <pt x="586" y="616" on="1"/>
        <pt x="586" y="290" on="1"/>
        <pt x="586" y="132" on="0"/>
        <pt x="459" y="-15" on="0"/>
        <pt x="211" y="-15" on="0"/>
        <pt x="83" y="124" on="0"/>
        <pt x="83" y="291" on="1"/>
        <pt x="83" y="614" on="1"/>
        <pt x="11" y="620" on="1"/>
        <pt x="8" y="626" on="0"/>
        <pt x="12" y="647" on="1"/>
        <pt x="21" y="685" on="0"/>
        <pt x="56" y="685" on="1"/>
        <pt x="281" y="685" on="1"/>
        <pt x="281" y="677" on="1"/>
        <pt x="281" y="622" on="0"/>
        <pt x="237" y="618" on="1"/>
        <pt x="208" y="616" on="1"/>
        <pt x="208" y="275" on="1"/>
        <pt x="208" y="165" on="0"/>
        <pt x="270" y="65" on="0"/>
        <pt x="348" y="65" on="1"/>
        <pt x="506" y="65" on="0"/>
        <pt x="506" y="263" on="1"/>
        <pt x="505" y="614" on="1"/>
        <pt x="434" y="620" on="1"/>
        <pt x="428" y="685" on="0"/>
      </contour>
      <contour>
        <pt x="342" y="824" on="1"/>
        <pt x="435" y="824" on="0"/>
        <pt x="470" y="906" on="1"/>
        <pt x="506" y="886" on="1"/>
        <pt x="498" y="826" on="0"/>
        <pt x="414" y="739" on="0"/>
        <pt x="268" y="739" on="0"/>
        <pt x="184" y="826" on="0"/>
        <pt x="176" y="886" on="1"/>
        <pt x="212" y="906" on="1"/>
        <pt x="225" y="876" on="0"/>
        <pt x="289" y="824" on="0"/>
      </contour>
    </TTGlyph>
    <TTGlyph name="Ucircumflex" xMin="11" yMin="-15" xMax="659" yMax="887">
      <contour>
        <pt x="479" y="685" on="1"/>
        <pt x="659" y="685" on="1"/>
        <pt x="659" y="685" on="0"/>
        <pt x="659" y="677" on="1"/>
        <pt x="659" y="622" on="0"/>
        <pt x="615" y="618" on="1"/>
        <pt x="586" y="616" on="1"/>
        <pt x="586" y="290" on="1"/>
        <pt x="586" y="132" on="0"/>
        <pt x="459" y="-15" on="0"/>
        <pt x="211" y="-15" on="0"/>
        <pt x="83" y="124" on="0"/>
        <pt x="83" y="291" on="1"/>
        <pt x="83" y="614" on="1"/>
        <pt x="11" y="620" on="1"/>
        <pt x="8" y="626" on="0"/>
        <pt x="12" y="647" on="1"/>
        <pt x="21" y="685" on="0"/>
        <pt x="56" y="685" on="1"/>
        <pt x="281" y="685" on="1"/>
        <pt x="281" y="677" on="1"/>
        <pt x="281" y="622" on="0"/>
        <pt x="237" y="618" on="1"/>
        <pt x="208" y="616" on="1"/>
        <pt x="208" y="275" on="1"/>
        <pt x="208" y="165" on="0"/>
        <pt x="270" y="65" on="0"/>
        <pt x="348" y="65" on="1"/>
        <pt x="506" y="65" on="0"/>
        <pt x="506" y="263" on="1"/>
        <pt x="505" y="614" on="1"/>
        <pt x="434" y="620" on="1"/>
        <pt x="428" y="685" on="0"/>
      </contour>
      <contour>
        <pt x="340" y="809" on="1"/>
        <pt x="200" y="723" on="1"/>
        <pt x="178" y="736" on="0"/>
        <pt x="165" y="761" on="1"/>
        <pt x="304" y="887" on="1"/>
        <pt x="345" y="896" on="0"/>
        <pt x="380" y="887" on="1"/>
        <pt x="515" y="761" on="1"/>
        <pt x="498" y="734" on="0"/>
        <pt x="478" y="723" on="1"/>
      </contour>
    </TTGlyph>
    <TTGlyph name="Udieresis" xMin="11" yMin="-15" xMax="659" yMax="894">
      <contour>
        <pt x="501" y="795" on="0"/>
        <pt x="460" y="754" on="0"/>
        <pt x="401" y="754" on="0"/>
        <pt x="360" y="795" on="0"/>
        <pt x="360" y="852" on="0"/>
        <pt x="402" y="894" on="0"/>
        <pt x="460" y="894" on="0"/>
        <pt x="501" y="853" on="0"/>
      </contour>
      <contour>
        <pt x="269" y="754" on="0"/>
        <pt x="211" y="754" on="0"/>
        <pt x="169" y="795" on="0"/>
        <pt x="169" y="853" on="0"/>
        <pt x="211" y="894" on="0"/>
        <pt x="269" y="894" on="0"/>
        <pt x="310" y="853" on="0"/>
        <pt x="310" y="795" on="0"/>
      </contour>
      <contour>
        <pt x="479" y="685" on="1"/>
        <pt x="659" y="685" on="1"/>
        <pt x="659" y="677" on="1"/>
        <pt x="659" y="622" on="0"/>
        <pt x="615" y="618" on="1"/>
        <pt x="586" y="616" on="1"/>
        <pt x="586" y="290" on="1"/>
        <pt x="586" y="132" on="0"/>
        <pt x="459" y="-15" on="0"/>
        <pt x="211" y="-15" on="0"/>
        <pt x="83" y="124" on="0"/>
        <pt x="83" y="291" on="1"/>
        <pt x="83" y="614" on="1"/>
        <pt x="11" y="620" on="1"/>
        <pt x="8" y="626" on="0"/>
        <pt x="12" y="647" on="1"/>
        <pt x="21" y="685" on="0"/>
        <pt x="56" y="685" on="1"/>
        <pt x="281" y="685" on="1"/>
        <pt x="281" y="677" on="1"/>
        <pt x="281" y="622" on="0"/>
        <pt x="237" y="618" on="1"/>
        <pt x="208" y="616" on="1"/>
        <pt x="208" y="275" on="1"/>
        <pt x="208" y="165" on="0"/>
        <pt x="270" y="65" on="0"/>
        <pt x="348" y="65" on="1"/>
        <pt x="506" y="65" on="0"/>
        <pt x="506" y="263" on="1"/>
        <pt x="505" y="614" on="1"/>
        <pt x="434" y="620" on="1"/>
        <pt x="428" y="685" on="0"/>
      </contour>
    </TTGlyph>
    <TTGlyph name="Ugrave" xMin="11" yMin="-15" xMax="659" yMax="910">
      <contour>
        <pt x="395" y="732" on="1"/>
        <pt x="188" y="842" on="1"/>
        <pt x="197" y="860" on="0"/>
        <pt x="247" y="905" on="0"/>
        <pt x="270" y="910" on="1"/>
        <pt x="437" y="773" on="1"/>
        <pt x="426" y="748" on="0"/>
      </contour>
      <contour>
        <pt x="479" y="685" on="1"/>
        <pt x="659" y="685" on="1"/>
        <pt x="659" y="685" on="0"/>
        <pt x="659" y="677" on="1"/>
        <pt x="659" y="622" on="0"/>
        <pt x="615" y="618" on="1"/>
        <pt x="586" y="616" on="1"/>
        <pt x="586" y="290" on="1"/>
        <pt x="586" y="132" on="0"/>
        <pt x="459" y="-15" on="0"/>
        <pt x="211" y="-15" on="0"/>
        <pt x="83" y="124" on="0"/>
        <pt x="83" y="291" on="1"/>
        <pt x="83" y="614" on="1"/>
        <pt x="11" y="620" on="1"/>
        <pt x="8" y="626" on="0"/>
        <pt x="12" y="647" on="1"/>
        <pt x="21" y="685" on="0"/>
        <pt x="56" y="685" on="1"/>
        <pt x="281" y="685" on="1"/>
        <pt x="281" y="677" on="1"/>
        <pt x="281" y="622" on="0"/>
        <pt x="237" y="618" on="1"/>
        <pt x="208" y="616" on="1"/>
        <pt x="208" y="275" on="1"/>
        <pt x="208" y="165" on="0"/>
        <pt x="270" y="65" on="0"/>
        <pt x="348" y="65" on="1"/>
        <pt x="506" y="65" on="0"/>
        <pt x="506" y="263" on="1"/>
        <pt x="505" y="614" on="1"/>
        <pt x="434" y="620" on="1"/>
        <pt x="428" y="685" on="0"/>
      </contour>
    </TTGlyph>
    <TTGlyph name="Uhungarumlaut" xMin="11" yMin="-15" xMax="659" yMax="879">
      <contour>
        <pt x="479" y="685" on="1"/>
        <pt x="659" y="685" on="1"/>
        <pt x="659" y="685" on="0"/>
        <pt x="659" y="677" on="1"/>
        <pt x="659" y="622" on="0"/>
        <pt x="615" y="618" on="1"/>
        <pt x="586" y="616" on="1"/>
        <pt x="586" y="290" on="1"/>
        <pt x="586" y="132" on="0"/>
        <pt x="459" y="-15" on="0"/>
        <pt x="211" y="-15" on="0"/>
        <pt x="83" y="124" on="0"/>
        <pt x="83" y="291" on="1"/>
        <pt x="83" y="614" on="1"/>
        <pt x="11" y="620" on="1"/>
        <pt x="8" y="626" on="0"/>
        <pt x="12" y="647" on="1"/>
        <pt x="21" y="685" on="0"/>
        <pt x="56" y="685" on="1"/>
        <pt x="281" y="685" on="1"/>
        <pt x="281" y="677" on="1"/>
        <pt x="281" y="622" on="0"/>
        <pt x="237" y="618" on="1"/>
        <pt x="208" y="616" on="1"/>
        <pt x="208" y="275" on="1"/>
        <pt x="208" y="165" on="0"/>
        <pt x="270" y="65" on="0"/>
        <pt x="348" y="65" on="1"/>
        <pt x="506" y="65" on="0"/>
        <pt x="506" y="263" on="1"/>
        <pt x="505" y="614" on="1"/>
        <pt x="434" y="620" on="1"/>
        <pt x="428" y="685" on="0"/>
      </contour>
      <contour>
        <pt x="462" y="811" on="1"/>
        <pt x="255" y="701" on="1"/>
        <pt x="224" y="717" on="0"/>
        <pt x="213" y="742" on="1"/>
        <pt x="380" y="879" on="1"/>
        <pt x="403" y="874" on="0"/>
        <pt x="453" y="829" on="0"/>
      </contour>
      <contour>
        <pt x="641" y="811" on="1"/>
        <pt x="434" y="701" on="1"/>
        <pt x="403" y="717" on="0"/>
        <pt x="392" y="742" on="1"/>
        <pt x="559" y="879" on="1"/>
        <pt x="582" y="874" on="0"/>
        <pt x="632" y="829" on="0"/>
      </contour>
    </TTGlyph>
    <TTGlyph name="Umacron" xMin="11" yMin="-15" xMax="659" yMax="828">
      <contour>
        <pt x="192" y="828" on="1"/>
        <pt x="487" y="828" on="1"/>
        <pt x="487" y="758" on="1"/>
        <pt x="192" y="758" on="1"/>
      </contour>
      <contour>
        <pt x="479" y="685" on="1"/>
        <pt x="659" y="685" on="1"/>
        <pt x="659" y="685" on="0"/>
        <pt x="659" y="677" on="1"/>
        <pt x="659" y="622" on="0"/>
        <pt x="615" y="618" on="1"/>
        <pt x="586" y="616" on="1"/>
        <pt x="586" y="290" on="1"/>
        <pt x="586" y="132" on="0"/>
        <pt x="459" y="-15" on="0"/>
        <pt x="211" y="-15" on="0"/>
        <pt x="83" y="124" on="0"/>
        <pt x="83" y="291" on="1"/>
        <pt x="83" y="614" on="1"/>
        <pt x="11" y="620" on="1"/>
        <pt x="8" y="626" on="0"/>
        <pt x="12" y="647" on="1"/>
        <pt x="21" y="685" on="0"/>
        <pt x="56" y="685" on="1"/>
        <pt x="281" y="685" on="1"/>
        <pt x="281" y="677" on="1"/>
        <pt x="281" y="622" on="0"/>
        <pt x="237" y="618" on="1"/>
        <pt x="208" y="616" on="1"/>
        <pt x="208" y="275" on="1"/>
        <pt x="208" y="165" on="0"/>
        <pt x="270" y="65" on="0"/>
        <pt x="348" y="65" on="1"/>
        <pt x="506" y="65" on="0"/>
        <pt x="506" y="263" on="1"/>
        <pt x="505" y="614" on="1"/>
        <pt x="434" y="620" on="1"/>
        <pt x="428" y="685" on="0"/>
      </contour>
    </TTGlyph>
    <TTGlyph name="Uogonek" xMin="11" yMin="-197" xMax="659" yMax="685">
      <contour>
        <pt x="479" y="685" on="1"/>
        <pt x="659" y="685" on="1"/>
        <pt x="659" y="685" on="0"/>
        <pt x="659" y="677" on="1"/>
        <pt x="659" y="622" on="0"/>
        <pt x="615" y="618" on="1"/>
        <pt x="586" y="616" on="1"/>
        <pt x="586" y="290" on="1"/>
        <pt x="586" y="36" on="0"/>
        <pt x="413" y="-6" on="1"/>
        <pt x="353" y="-36" on="0"/>
        <pt x="353" y="-95" on="1"/>
        <pt x="353" y="-119" on="0"/>
        <pt x="376" y="-144" on="0"/>
        <pt x="420" y="-144" on="0"/>
        <pt x="446" y="-123" on="1"/>
        <pt x="450" y="-126" on="0"/>
        <pt x="455" y="-155" on="0"/>
        <pt x="453" y="-164" on="1"/>
        <pt x="430" y="-197" on="0"/>
        <pt x="326" y="-197" on="0"/>
        <pt x="276" y="-151" on="0"/>
        <pt x="276" y="-118" on="1"/>
        <pt x="276" y="-56" on="0"/>
        <pt x="333" y="-15" on="1"/>
        <pt x="330" y="-15" on="1"/>
        <pt x="211" y="-15" on="0"/>
        <pt x="83" y="124" on="0"/>
        <pt x="83" y="291" on="1"/>
        <pt x="83" y="614" on="1"/>
        <pt x="11" y="620" on="1"/>
        <pt x="8" y="626" on="0"/>
        <pt x="12" y="647" on="1"/>
        <pt x="21" y="685" on="0"/>
        <pt x="56" y="685" on="1"/>
        <pt x="281" y="685" on="1"/>
        <pt x="281" y="677" on="1"/>
        <pt x="281" y="622" on="0"/>
        <pt x="237" y="618" on="1"/>
        <pt x="208" y="616" on="1"/>
        <pt x="208" y="275" on="1"/>
        <pt x="208" y="165" on="0"/>
        <pt x="270" y="65" on="0"/>
        <pt x="348" y="65" on="1"/>
        <pt x="506" y="65" on="0"/>
        <pt x="506" y="263" on="1"/>
        <pt x="505" y="614" on="1"/>
        <pt x="434" y="620" on="1"/>
        <pt x="428" y="685" on="0"/>
      </contour>
    </TTGlyph>
    <TTGlyph name="Uring" xMin="11" yMin="-15" xMax="659" yMax="909">
      <contour>
        <pt x="386" y="837" on="0"/>
        <pt x="363" y="860" on="0"/>
        <pt x="324" y="860" on="0"/>
        <pt x="301" y="838" on="0"/>
        <pt x="301" y="798" on="0"/>
        <pt x="324" y="775" on="0"/>
        <pt x="362" y="775" on="0"/>
        <pt x="386" y="798" on="0"/>
      </contour>
      <contour>
        <pt x="248" y="858" on="0"/>
        <pt x="301" y="909" on="0"/>
        <pt x="388" y="909" on="0"/>
        <pt x="439" y="860" on="0"/>
        <pt x="437" y="778" on="0"/>
        <pt x="384" y="727" on="0"/>
        <pt x="299" y="727" on="0"/>
        <pt x="248" y="776" on="0"/>
      </contour>
      <contour>
        <pt x="479" y="685" on="1"/>
        <pt x="659" y="685" on="1"/>
        <pt x="659" y="677" on="1"/>
        <pt x="659" y="622" on="0"/>
        <pt x="615" y="618" on="1"/>
        <pt x="586" y="616" on="1"/>
        <pt x="586" y="290" on="1"/>
        <pt x="586" y="132" on="0"/>
        <pt x="459" y="-15" on="0"/>
        <pt x="211" y="-15" on="0"/>
        <pt x="83" y="124" on="0"/>
        <pt x="83" y="291" on="1"/>
        <pt x="83" y="614" on="1"/>
        <pt x="11" y="620" on="1"/>
        <pt x="8" y="626" on="0"/>
        <pt x="12" y="647" on="1"/>
        <pt x="21" y="685" on="0"/>
        <pt x="56" y="685" on="1"/>
        <pt x="281" y="685" on="1"/>
        <pt x="281" y="677" on="1"/>
        <pt x="281" y="622" on="0"/>
        <pt x="237" y="618" on="1"/>
        <pt x="208" y="616" on="1"/>
        <pt x="208" y="275" on="1"/>
        <pt x="208" y="165" on="0"/>
        <pt x="270" y="65" on="0"/>
        <pt x="348" y="65" on="1"/>
        <pt x="506" y="65" on="0"/>
        <pt x="506" y="263" on="1"/>
        <pt x="505" y="614" on="1"/>
        <pt x="434" y="620" on="1"/>
        <pt x="428" y="685" on="0"/>
      </contour>
    </TTGlyph>
    <TTGlyph name="Utilde" xMin="11" yMin="-15" xMax="659" yMax="890">
      <contour>
        <pt x="479" y="685" on="1"/>
        <pt x="659" y="685" on="1"/>
        <pt x="659" y="685" on="0"/>
        <pt x="659" y="677" on="1"/>
        <pt x="659" y="622" on="0"/>
        <pt x="615" y="618" on="1"/>
        <pt x="586" y="616" on="1"/>
        <pt x="586" y="290" on="1"/>
        <pt x="586" y="132" on="0"/>
        <pt x="459" y="-15" on="0"/>
        <pt x="211" y="-15" on="0"/>
        <pt x="83" y="124" on="0"/>
        <pt x="83" y="291" on="1"/>
        <pt x="83" y="614" on="1"/>
        <pt x="11" y="620" on="1"/>
        <pt x="8" y="626" on="0"/>
        <pt x="12" y="647" on="1"/>
        <pt x="21" y="685" on="0"/>
        <pt x="56" y="685" on="1"/>
        <pt x="281" y="685" on="1"/>
        <pt x="281" y="677" on="1"/>
        <pt x="281" y="622" on="0"/>
        <pt x="237" y="618" on="1"/>
        <pt x="208" y="616" on="1"/>
        <pt x="208" y="275" on="1"/>
        <pt x="208" y="165" on="0"/>
        <pt x="270" y="65" on="0"/>
        <pt x="348" y="65" on="1"/>
        <pt x="506" y="65" on="0"/>
        <pt x="506" y="263" on="1"/>
        <pt x="505" y="614" on="1"/>
        <pt x="434" y="620" on="1"/>
        <pt x="428" y="685" on="0"/>
      </contour>
      <contour>
        <pt x="178" y="819" on="0"/>
        <pt x="234" y="890" on="0"/>
        <pt x="308" y="890" on="0"/>
        <pt x="391" y="831" on="0"/>
        <pt x="443" y="831" on="0"/>
        <pt x="478" y="859" on="0"/>
        <pt x="483" y="882" on="1"/>
        <pt x="515" y="873" on="1"/>
        <pt x="498" y="742" on="0"/>
        <pt x="404" y="742" on="1"/>
        <pt x="364" y="742" on="0"/>
        <pt x="276" y="794" on="0"/>
        <pt x="240" y="794" on="0"/>
        <pt x="210" y="770" on="0"/>
        <pt x="204" y="750" on="1"/>
        <pt x="170" y="762" on="1"/>
      </contour>
    </TTGlyph>
    <TTGlyph name="V" xMin="1" yMin="0" xMax="645" yMax="685">
      <contour>
        <pt x="456" y="685" on="1"/>
        <pt x="645" y="685" on="1"/>
        <pt x="645" y="685" on="0"/>
        <pt x="645" y="677" on="1"/>
        <pt x="645" y="622" on="0"/>
        <pt x="601" y="618" on="1"/>
        <pt x="577" y="616" on="1"/>
        <pt x="366" y="0" on="1"/>
        <pt x="265" y="0" on="1"/>
        <pt x="65" y="614" on="1"/>
        <pt x="1" y="620" on="1"/>
        <pt x="-2" y="626" on="0"/>
        <pt x="2" y="647" on="1"/>
        <pt x="11" y="685" on="0"/>
        <pt x="46" y="685" on="1"/>
        <pt x="276" y="685" on="1"/>
        <pt x="274" y="646" on="0"/>
        <pt x="267" y="637" on="1"/>
        <pt x="254" y="620" on="0"/>
        <pt x="232" y="618" on="1"/>
        <pt x="202" y="616" on="1"/>
        <pt x="340" y="153" on="1"/>
        <pt x="490" y="614" on="1"/>
        <pt x="411" y="620" on="1"/>
        <pt x="408" y="626" on="0"/>
        <pt x="412" y="647" on="1"/>
        <pt x="421" y="685" on="0"/>
      </contour>
    </TTGlyph>
    <TTGlyph name="W" xMin="0" yMin="0" xMax="971" yMax="685">
      <contour>
        <pt x="799" y="685" on="1"/>
        <pt x="970" y="685" on="1"/>
        <pt x="970" y="684" on="0"/>
        <pt x="971" y="666" on="0"/>
        <pt x="968" y="651" on="0"/>
        <pt x="965" y="642" on="1"/>
        <pt x="958" y="620" on="0"/>
        <pt x="930" y="618" on="1"/>
        <pt x="912" y="616" on="1"/>
        <pt x="720" y="0" on="1"/>
        <pt x="614" y="0" on="1"/>
        <pt x="485" y="400" on="1"/>
        <pt x="351" y="0" on="1"/>
        <pt x="241" y="0" on="1"/>
        <pt x="59" y="614" on="1"/>
        <pt x="1" y="620" on="1"/>
        <pt x="0" y="631" on="0"/>
        <pt x="1" y="654" on="0"/>
        <pt x="23" y="685" on="0"/>
        <pt x="45" y="685" on="1"/>
        <pt x="269" y="685" on="1"/>
        <pt x="266" y="647" on="0"/>
        <pt x="260" y="638" on="1"/>
        <pt x="246" y="620" on="0"/>
        <pt x="225" y="618" on="1"/>
        <pt x="197" y="616" on="1"/>
        <pt x="317" y="145" on="1"/>
        <pt x="469" y="616" on="1"/>
        <pt x="552" y="616" on="1"/>
        <pt x="688" y="145" on="1"/>
        <pt x="824" y="614" on="1"/>
        <pt x="754" y="620" on="1"/>
        <pt x="748" y="685" on="0"/>
      </contour>
    </TTGlyph>
    <TTGlyph name="Wacute" xMin="0" yMin="0" xMax="971" yMax="910">
      <contour>
        <pt x="799" y="685" on="1"/>
        <pt x="970" y="685" on="1"/>
        <pt x="970" y="684" on="0"/>
        <pt x="971" y="666" on="0"/>
        <pt x="968" y="651" on="0"/>
        <pt x="965" y="642" on="1"/>
        <pt x="958" y="620" on="0"/>
        <pt x="930" y="618" on="1"/>
        <pt x="912" y="616" on="1"/>
        <pt x="720" y="0" on="1"/>
        <pt x="614" y="0" on="1"/>
        <pt x="485" y="400" on="1"/>
        <pt x="351" y="0" on="1"/>
        <pt x="241" y="0" on="1"/>
        <pt x="59" y="614" on="1"/>
        <pt x="1" y="620" on="1"/>
        <pt x="0" y="631" on="0"/>
        <pt x="1" y="654" on="0"/>
        <pt x="23" y="685" on="0"/>
        <pt x="45" y="685" on="1"/>
        <pt x="269" y="685" on="1"/>
        <pt x="266" y="647" on="0"/>
        <pt x="260" y="638" on="1"/>
        <pt x="246" y="620" on="0"/>
        <pt x="225" y="618" on="1"/>
        <pt x="197" y="616" on="1"/>
        <pt x="317" y="145" on="1"/>
        <pt x="469" y="616" on="1"/>
        <pt x="552" y="616" on="1"/>
        <pt x="688" y="145" on="1"/>
        <pt x="824" y="614" on="1"/>
        <pt x="754" y="620" on="1"/>
        <pt x="748" y="685" on="0"/>
      </contour>
      <contour>
        <pt x="685" y="842" on="1"/>
        <pt x="478" y="732" on="1"/>
        <pt x="447" y="748" on="0"/>
        <pt x="436" y="773" on="1"/>
        <pt x="603" y="910" on="1"/>
        <pt x="626" y="905" on="0"/>
        <pt x="676" y="860" on="0"/>
      </contour>
    </TTGlyph>
    <TTGlyph name="Wcircumflex" xMin="0" yMin="0" xMax="971" yMax="887">
      <contour>
        <pt x="799" y="685" on="1"/>
        <pt x="970" y="685" on="1"/>
        <pt x="970" y="684" on="0"/>
        <pt x="971" y="666" on="0"/>
        <pt x="968" y="651" on="0"/>
        <pt x="965" y="642" on="1"/>
        <pt x="958" y="620" on="0"/>
        <pt x="930" y="618" on="1"/>
        <pt x="912" y="616" on="1"/>
        <pt x="720" y="0" on="1"/>
        <pt x="614" y="0" on="1"/>
        <pt x="485" y="400" on="1"/>
        <pt x="351" y="0" on="1"/>
        <pt x="241" y="0" on="1"/>
        <pt x="59" y="614" on="1"/>
        <pt x="1" y="620" on="1"/>
        <pt x="0" y="631" on="0"/>
        <pt x="1" y="654" on="0"/>
        <pt x="23" y="685" on="0"/>
        <pt x="45" y="685" on="1"/>
        <pt x="269" y="685" on="1"/>
        <pt x="266" y="647" on="0"/>
        <pt x="260" y="638" on="1"/>
        <pt x="246" y="620" on="0"/>
        <pt x="225" y="618" on="1"/>
        <pt x="197" y="616" on="1"/>
        <pt x="317" y="145" on="1"/>
        <pt x="469" y="616" on="1"/>
        <pt x="552" y="616" on="1"/>
        <pt x="688" y="145" on="1"/>
        <pt x="824" y="614" on="1"/>
        <pt x="754" y="620" on="1"/>
        <pt x="748" y="685" on="0"/>
      </contour>
      <contour>
        <pt x="518" y="809" on="1"/>
        <pt x="378" y="723" on="1"/>
        <pt x="356" y="736" on="0"/>
        <pt x="343" y="761" on="1"/>
        <pt x="482" y="887" on="1"/>
        <pt x="523" y="896" on="0"/>
        <pt x="558" y="887" on="1"/>
        <pt x="693" y="761" on="1"/>
        <pt x="676" y="734" on="0"/>
        <pt x="656" y="723" on="1"/>
      </contour>
    </TTGlyph>
    <TTGlyph name="Wdieresis" xMin="0" yMin="0" xMax="971" yMax="894">
      <contour>
        <pt x="799" y="685" on="1"/>
        <pt x="970" y="685" on="1"/>
        <pt x="970" y="684" on="0"/>
        <pt x="971" y="666" on="0"/>
        <pt x="968" y="651" on="0"/>
        <pt x="965" y="642" on="1"/>
        <pt x="958" y="620" on="0"/>
        <pt x="930" y="618" on="1"/>
        <pt x="912" y="616" on="1"/>
        <pt x="720" y="0" on="1"/>
        <pt x="614" y="0" on="1"/>
        <pt x="485" y="400" on="1"/>
        <pt x="351" y="0" on="1"/>
        <pt x="241" y="0" on="1"/>
        <pt x="59" y="614" on="1"/>
        <pt x="1" y="620" on="1"/>
        <pt x="0" y="631" on="0"/>
        <pt x="1" y="654" on="0"/>
        <pt x="23" y="685" on="0"/>
        <pt x="45" y="685" on="1"/>
        <pt x="269" y="685" on="1"/>
        <pt x="266" y="647" on="0"/>
        <pt x="260" y="638" on="1"/>
        <pt x="246" y="620" on="0"/>
        <pt x="225" y="618" on="1"/>
        <pt x="197" y="616" on="1"/>
        <pt x="317" y="145" on="1"/>
        <pt x="469" y="616" on="1"/>
        <pt x="552" y="616" on="1"/>
        <pt x="688" y="145" on="1"/>
        <pt x="824" y="614" on="1"/>
        <pt x="754" y="620" on="1"/>
        <pt x="748" y="685" on="0"/>
      </contour>
      <contour>
        <pt x="447" y="754" on="0"/>
        <pt x="389" y="754" on="0"/>
        <pt x="347" y="795" on="0"/>
        <pt x="347" y="853" on="0"/>
        <pt x="389" y="894" on="0"/>
        <pt x="447" y="894" on="0"/>
        <pt x="488" y="853" on="0"/>
        <pt x="488" y="795" on="0"/>
      </contour>
      <contour>
        <pt x="679" y="795" on="0"/>
        <pt x="638" y="754" on="0"/>
        <pt x="579" y="754" on="0"/>
        <pt x="538" y="795" on="0"/>
        <pt x="538" y="852" on="0"/>
        <pt x="580" y="894" on="0"/>
        <pt x="638" y="894" on="0"/>
        <pt x="679" y="853" on="0"/>
      </contour>
    </TTGlyph>
    <TTGlyph name="Wgrave" xMin="0" yMin="0" xMax="971" yMax="910">
      <contour>
        <pt x="799" y="685" on="1"/>
        <pt x="970" y="685" on="1"/>
        <pt x="970" y="684" on="0"/>
        <pt x="971" y="666" on="0"/>
        <pt x="968" y="651" on="0"/>
        <pt x="965" y="642" on="1"/>
        <pt x="958" y="620" on="0"/>
        <pt x="930" y="618" on="1"/>
        <pt x="912" y="616" on="1"/>
        <pt x="720" y="0" on="1"/>
        <pt x="614" y="0" on="1"/>
        <pt x="485" y="400" on="1"/>
        <pt x="351" y="0" on="1"/>
        <pt x="241" y="0" on="1"/>
        <pt x="59" y="614" on="1"/>
        <pt x="1" y="620" on="1"/>
        <pt x="0" y="631" on="0"/>
        <pt x="1" y="654" on="0"/>
        <pt x="23" y="685" on="0"/>
        <pt x="45" y="685" on="1"/>
        <pt x="269" y="685" on="1"/>
        <pt x="266" y="647" on="0"/>
        <pt x="260" y="638" on="1"/>
        <pt x="246" y="620" on="0"/>
        <pt x="225" y="618" on="1"/>
        <pt x="197" y="616" on="1"/>
        <pt x="317" y="145" on="1"/>
        <pt x="469" y="616" on="1"/>
        <pt x="552" y="616" on="1"/>
        <pt x="688" y="145" on="1"/>
        <pt x="824" y="614" on="1"/>
        <pt x="754" y="620" on="1"/>
        <pt x="748" y="685" on="0"/>
      </contour>
      <contour>
        <pt x="448" y="910" on="1"/>
        <pt x="615" y="773" on="1"/>
        <pt x="604" y="748" on="0"/>
        <pt x="573" y="732" on="1"/>
        <pt x="366" y="842" on="1"/>
        <pt x="375" y="860" on="0"/>
        <pt x="425" y="905" on="0"/>
      </contour>
    </TTGlyph>
    <TTGlyph name="X" xMin="11" yMin="0" xMax="678" yMax="685">
      <contour>
        <pt x="631" y="0" on="1"/>
        <pt x="375" y="0" on="1"/>
        <pt x="377" y="39" on="0"/>
        <pt x="384" y="48" on="1"/>
        <pt x="397" y="65" on="0"/>
        <pt x="419" y="67" on="1"/>
        <pt x="451" y="69" on="1"/>
        <pt x="453" y="69" on="1"/>
        <pt x="321" y="262" on="1"/>
        <pt x="200" y="71" on="1"/>
        <pt x="201" y="71" on="1"/>
        <pt x="284" y="65" on="1"/>
        <pt x="290" y="0" on="0"/>
        <pt x="239" y="0" on="1"/>
        <pt x="19" y="0" on="1"/>
        <pt x="19" y="8" on="1"/>
        <pt x="19" y="63" on="0"/>
        <pt x="63" y="67" on="1"/>
        <pt x="99" y="69" on="1"/>
        <pt x="278" y="326" on="1"/>
        <pt x="83" y="614" on="1"/>
        <pt x="11" y="620" on="1"/>
        <pt x="8" y="626" on="0"/>
        <pt x="12" y="647" on="1"/>
        <pt x="21" y="685" on="0"/>
        <pt x="56" y="685" on="1"/>
        <pt x="309" y="685" on="1"/>
        <pt x="307" y="646" on="0"/>
        <pt x="300" y="637" on="1"/>
        <pt x="287" y="620" on="0"/>
        <pt x="265" y="618" on="1"/>
        <pt x="233" y="616" on="1"/>
        <pt x="232" y="616" on="1"/>
        <pt x="367" y="417" on="1"/>
        <pt x="496" y="614" on="1"/>
        <pt x="414" y="620" on="1"/>
        <pt x="408" y="685" on="0"/>
        <pt x="459" y="685" on="1"/>
        <pt x="678" y="685" on="1"/>
        <pt x="678" y="677" on="1"/>
        <pt x="678" y="622" on="0"/>
        <pt x="634" y="618" on="1"/>
        <pt x="598" y="616" on="1"/>
        <pt x="410" y="353" on="1"/>
        <pt x="602" y="71" on="1"/>
        <pt x="676" y="65" on="1"/>
        <pt x="682" y="0" on="0"/>
      </contour>
    </TTGlyph>
    <TTGlyph name="Y" xMin="1" yMin="0" xMax="634" yMax="685">
      <contour>
        <pt x="444" y="685" on="1"/>
        <pt x="634" y="685" on="1"/>
        <pt x="634" y="685" on="0"/>
        <pt x="634" y="677" on="1"/>
        <pt x="634" y="622" on="0"/>
        <pt x="590" y="618" on="1"/>
        <pt x="565" y="616" on="1"/>
        <pt x="380" y="288" on="1"/>
        <pt x="380" y="71" on="1"/>
        <pt x="381" y="71" on="1"/>
        <pt x="452" y="65" on="1"/>
        <pt x="458" y="0" on="0"/>
        <pt x="407" y="0" on="1"/>
        <pt x="182" y="0" on="1"/>
        <pt x="182" y="8" on="1"/>
        <pt x="182" y="63" on="0"/>
        <pt x="226" y="67" on="1"/>
        <pt x="255" y="69" on="1"/>
        <pt x="255" y="284" on="1"/>
        <pt x="65" y="614" on="1"/>
        <pt x="1" y="620" on="1"/>
        <pt x="-2" y="626" on="0"/>
        <pt x="2" y="647" on="1"/>
        <pt x="11" y="685" on="0"/>
        <pt x="46" y="685" on="1"/>
        <pt x="288" y="685" on="1"/>
        <pt x="286" y="646" on="0"/>
        <pt x="279" y="637" on="1"/>
        <pt x="266" y="620" on="0"/>
        <pt x="244" y="618" on="1"/>
        <pt x="212" y="616" on="1"/>
        <pt x="210" y="616" on="1"/>
        <pt x="345" y="373" on="1"/>
        <pt x="477" y="614" on="1"/>
        <pt x="399" y="620" on="1"/>
        <pt x="396" y="626" on="0"/>
        <pt x="400" y="647" on="1"/>
        <pt x="409" y="685" on="0"/>
      </contour>
    </TTGlyph>
    <TTGlyph name="Yacute" xMin="1" yMin="0" xMax="634" yMax="910">
      <contour>
        <pt x="444" y="685" on="1"/>
        <pt x="634" y="685" on="1"/>
        <pt x="634" y="685" on="0"/>
        <pt x="634" y="677" on="1"/>
        <pt x="634" y="622" on="0"/>
        <pt x="590" y="618" on="1"/>
        <pt x="565" y="616" on="1"/>
        <pt x="380" y="288" on="1"/>
        <pt x="380" y="71" on="1"/>
        <pt x="381" y="71" on="1"/>
        <pt x="452" y="65" on="1"/>
        <pt x="458" y="0" on="0"/>
        <pt x="407" y="0" on="1"/>
        <pt x="182" y="0" on="1"/>
        <pt x="182" y="8" on="1"/>
        <pt x="182" y="63" on="0"/>
        <pt x="226" y="67" on="1"/>
        <pt x="255" y="69" on="1"/>
        <pt x="255" y="284" on="1"/>
        <pt x="65" y="614" on="1"/>
        <pt x="1" y="620" on="1"/>
        <pt x="-2" y="626" on="0"/>
        <pt x="2" y="647" on="1"/>
        <pt x="11" y="685" on="0"/>
        <pt x="46" y="685" on="1"/>
        <pt x="288" y="685" on="1"/>
        <pt x="286" y="646" on="0"/>
        <pt x="279" y="637" on="1"/>
        <pt x="266" y="620" on="0"/>
        <pt x="244" y="618" on="1"/>
        <pt x="212" y="616" on="1"/>
        <pt x="210" y="616" on="1"/>
        <pt x="345" y="373" on="1"/>
        <pt x="477" y="614" on="1"/>
        <pt x="399" y="620" on="1"/>
        <pt x="396" y="626" on="0"/>
        <pt x="400" y="647" on="1"/>
        <pt x="409" y="685" on="0"/>
      </contour>
      <contour>
        <pt x="501" y="842" on="1"/>
        <pt x="294" y="732" on="1"/>
        <pt x="263" y="748" on="0"/>
        <pt x="252" y="773" on="1"/>
        <pt x="419" y="910" on="1"/>
        <pt x="442" y="905" on="0"/>
        <pt x="492" y="860" on="0"/>
      </contour>
    </TTGlyph>
    <TTGlyph name="Ycircumflex" xMin="1" yMin="0" xMax="634" yMax="887">
      <contour>
        <pt x="444" y="685" on="1"/>
        <pt x="634" y="685" on="1"/>
        <pt x="634" y="685" on="0"/>
        <pt x="634" y="677" on="1"/>
        <pt x="634" y="622" on="0"/>
        <pt x="590" y="618" on="1"/>
        <pt x="565" y="616" on="1"/>
        <pt x="380" y="288" on="1"/>
        <pt x="380" y="71" on="1"/>
        <pt x="381" y="71" on="1"/>
        <pt x="452" y="65" on="1"/>
        <pt x="458" y="0" on="0"/>
        <pt x="407" y="0" on="1"/>
        <pt x="182" y="0" on="1"/>
        <pt x="182" y="8" on="1"/>
        <pt x="182" y="63" on="0"/>
        <pt x="226" y="67" on="1"/>
        <pt x="255" y="69" on="1"/>
        <pt x="255" y="284" on="1"/>
        <pt x="65" y="614" on="1"/>
        <pt x="1" y="620" on="1"/>
        <pt x="-2" y="626" on="0"/>
        <pt x="2" y="647" on="1"/>
        <pt x="11" y="685" on="0"/>
        <pt x="46" y="685" on="1"/>
        <pt x="288" y="685" on="1"/>
        <pt x="286" y="646" on="0"/>
        <pt x="279" y="637" on="1"/>
        <pt x="266" y="620" on="0"/>
        <pt x="244" y="618" on="1"/>
        <pt x="212" y="616" on="1"/>
        <pt x="210" y="616" on="1"/>
        <pt x="345" y="373" on="1"/>
        <pt x="477" y="614" on="1"/>
        <pt x="399" y="620" on="1"/>
        <pt x="396" y="626" on="0"/>
        <pt x="400" y="647" on="1"/>
        <pt x="409" y="685" on="0"/>
      </contour>
      <contour>
        <pt x="334" y="809" on="1"/>
        <pt x="194" y="723" on="1"/>
        <pt x="172" y="736" on="0"/>
        <pt x="159" y="761" on="1"/>
        <pt x="298" y="887" on="1"/>
        <pt x="339" y="896" on="0"/>
        <pt x="374" y="887" on="1"/>
        <pt x="509" y="761" on="1"/>
        <pt x="492" y="734" on="0"/>
        <pt x="472" y="723" on="1"/>
      </contour>
    </TTGlyph>
    <TTGlyph name="Ydieresis" xMin="1" yMin="0" xMax="634" yMax="894">
      <contour>
        <pt x="444" y="685" on="1"/>
        <pt x="634" y="685" on="1"/>
        <pt x="634" y="685" on="0"/>
        <pt x="634" y="677" on="1"/>
        <pt x="634" y="622" on="0"/>
        <pt x="590" y="618" on="1"/>
        <pt x="565" y="616" on="1"/>
        <pt x="380" y="288" on="1"/>
        <pt x="380" y="71" on="1"/>
        <pt x="381" y="71" on="1"/>
        <pt x="452" y="65" on="1"/>
        <pt x="458" y="0" on="0"/>
        <pt x="407" y="0" on="1"/>
        <pt x="182" y="0" on="1"/>
        <pt x="182" y="8" on="1"/>
        <pt x="182" y="63" on="0"/>
        <pt x="226" y="67" on="1"/>
        <pt x="255" y="69" on="1"/>
        <pt x="255" y="284" on="1"/>
        <pt x="65" y="614" on="1"/>
        <pt x="1" y="620" on="1"/>
        <pt x="-2" y="626" on="0"/>
        <pt x="2" y="647" on="1"/>
        <pt x="11" y="685" on="0"/>
        <pt x="46" y="685" on="1"/>
        <pt x="288" y="685" on="1"/>
        <pt x="286" y="646" on="0"/>
        <pt x="279" y="637" on="1"/>
        <pt x="266" y="620" on="0"/>
        <pt x="244" y="618" on="1"/>
        <pt x="212" y="616" on="1"/>
        <pt x="210" y="616" on="1"/>
        <pt x="345" y="373" on="1"/>
        <pt x="477" y="614" on="1"/>
        <pt x="399" y="620" on="1"/>
        <pt x="396" y="626" on="0"/>
        <pt x="400" y="647" on="1"/>
        <pt x="409" y="685" on="0"/>
      </contour>
      <contour>
        <pt x="263" y="754" on="0"/>
        <pt x="205" y="754" on="0"/>
        <pt x="163" y="795" on="0"/>
        <pt x="163" y="853" on="0"/>
        <pt x="205" y="894" on="0"/>
        <pt x="263" y="894" on="0"/>
        <pt x="304" y="853" on="0"/>
        <pt x="304" y="795" on="0"/>
      </contour>
      <contour>
        <pt x="495" y="795" on="0"/>
        <pt x="454" y="754" on="0"/>
        <pt x="395" y="754" on="0"/>
        <pt x="354" y="795" on="0"/>
        <pt x="354" y="852" on="0"/>
        <pt x="396" y="894" on="0"/>
        <pt x="454" y="894" on="0"/>
        <pt x="495" y="853" on="0"/>
      </contour>
    </TTGlyph>
    <TTGlyph name="Ygrave" xMin="1" yMin="0" xMax="634" yMax="910">
      <contour>
        <pt x="444" y="685" on="1"/>
        <pt x="634" y="685" on="1"/>
        <pt x="634" y="685" on="0"/>
        <pt x="634" y="677" on="1"/>
        <pt x="634" y="622" on="0"/>
        <pt x="590" y="618" on="1"/>
        <pt x="565" y="616" on="1"/>
        <pt x="380" y="288" on="1"/>
        <pt x="380" y="71" on="1"/>
        <pt x="381" y="71" on="1"/>
        <pt x="452" y="65" on="1"/>
        <pt x="458" y="0" on="0"/>
        <pt x="407" y="0" on="1"/>
        <pt x="182" y="0" on="1"/>
        <pt x="182" y="8" on="1"/>
        <pt x="182" y="63" on="0"/>
        <pt x="226" y="67" on="1"/>
        <pt x="255" y="69" on="1"/>
        <pt x="255" y="284" on="1"/>
        <pt x="65" y="614" on="1"/>
        <pt x="1" y="620" on="1"/>
        <pt x="-2" y="626" on="0"/>
        <pt x="2" y="647" on="1"/>
        <pt x="11" y="685" on="0"/>
        <pt x="46" y="685" on="1"/>
        <pt x="288" y="685" on="1"/>
        <pt x="286" y="646" on="0"/>
        <pt x="279" y="637" on="1"/>
        <pt x="266" y="620" on="0"/>
        <pt x="244" y="618" on="1"/>
        <pt x="212" y="616" on="1"/>
        <pt x="210" y="616" on="1"/>
        <pt x="345" y="373" on="1"/>
        <pt x="477" y="614" on="1"/>
        <pt x="399" y="620" on="1"/>
        <pt x="396" y="626" on="0"/>
        <pt x="400" y="647" on="1"/>
        <pt x="409" y="685" on="0"/>
      </contour>
      <contour>
        <pt x="264" y="910" on="1"/>
        <pt x="431" y="773" on="1"/>
        <pt x="420" y="748" on="0"/>
        <pt x="389" y="732" on="1"/>
        <pt x="182" y="842" on="1"/>
        <pt x="191" y="860" on="0"/>
        <pt x="241" y="905" on="0"/>
      </contour>
    </TTGlyph>
    <TTGlyph name="Z" xMin="14" yMin="0" xMax="557" yMax="685">
      <contour>
        <pt x="556" y="0" on="1"/>
        <pt x="33" y="0" on="1"/>
        <pt x="17" y="35" on="0"/>
        <pt x="14" y="53" on="1"/>
        <pt x="393" y="610" on="1"/>
        <pt x="151" y="602" on="1"/>
        <pt x="142" y="519" on="1"/>
        <pt x="133" y="450" on="0"/>
        <pt x="65" y="464" on="1"/>
        <pt x="65" y="685" on="1"/>
        <pt x="530" y="685" on="1"/>
        <pt x="557" y="666" on="0"/>
        <pt x="557" y="636" on="1"/>
        <pt x="182" y="72" on="1"/>
        <pt x="469" y="87" on="1"/>
        <pt x="481" y="171" on="1"/>
        <pt x="486" y="208" on="0"/>
        <pt x="524" y="230" on="0"/>
        <pt x="556" y="224" on="1"/>
      </contour>
    </TTGlyph>
    <TTGlyph name="Zacute" xMin="14" yMin="0" xMax="557" yMax="910">
      <contour>
        <pt x="556" y="0" on="1"/>
        <pt x="33" y="0" on="1"/>
        <pt x="17" y="35" on="0"/>
        <pt x="14" y="53" on="1"/>
        <pt x="393" y="610" on="1"/>
        <pt x="151" y="602" on="1"/>
        <pt x="142" y="519" on="1"/>
        <pt x="133" y="450" on="0"/>
        <pt x="65" y="464" on="1"/>
        <pt x="65" y="685" on="1"/>
        <pt x="530" y="685" on="1"/>
        <pt x="557" y="666" on="0"/>
        <pt x="557" y="636" on="1"/>
        <pt x="182" y="72" on="1"/>
        <pt x="469" y="87" on="1"/>
        <pt x="481" y="171" on="1"/>
        <pt x="486" y="208" on="0"/>
        <pt x="524" y="230" on="0"/>
        <pt x="556" y="224" on="1"/>
      </contour>
      <contour>
        <pt x="476" y="842" on="1"/>
        <pt x="269" y="732" on="1"/>
        <pt x="238" y="748" on="0"/>
        <pt x="227" y="773" on="1"/>
        <pt x="394" y="910" on="1"/>
        <pt x="417" y="905" on="0"/>
        <pt x="467" y="860" on="0"/>
      </contour>
    </TTGlyph>
    <TTGlyph name="Zcaron" xMin="14" yMin="0" xMax="557" yMax="905">
      <contour>
        <pt x="556" y="0" on="1"/>
        <pt x="33" y="0" on="1"/>
        <pt x="17" y="35" on="0"/>
        <pt x="14" y="53" on="1"/>
        <pt x="393" y="610" on="1"/>
        <pt x="151" y="602" on="1"/>
        <pt x="142" y="519" on="1"/>
        <pt x="133" y="450" on="0"/>
        <pt x="65" y="464" on="1"/>
        <pt x="65" y="685" on="1"/>
        <pt x="530" y="685" on="1"/>
        <pt x="557" y="666" on="0"/>
        <pt x="557" y="636" on="1"/>
        <pt x="182" y="72" on="1"/>
        <pt x="469" y="87" on="1"/>
        <pt x="481" y="171" on="1"/>
        <pt x="486" y="208" on="0"/>
        <pt x="524" y="230" on="0"/>
        <pt x="556" y="224" on="1"/>
      </contour>
      <contour>
        <pt x="482" y="867" on="1"/>
        <pt x="347" y="741" on="1"/>
        <pt x="312" y="732" on="0"/>
        <pt x="271" y="741" on="1"/>
        <pt x="132" y="867" on="1"/>
        <pt x="145" y="892" on="0"/>
        <pt x="167" y="905" on="1"/>
        <pt x="307" y="819" on="1"/>
        <pt x="445" y="905" on="1"/>
        <pt x="465" y="894" on="0"/>
      </contour>
    </TTGlyph>
    <TTGlyph name="Zdotaccent" xMin="14" yMin="0" xMax="557" yMax="894">
      <contour>
        <pt x="556" y="0" on="1"/>
        <pt x="33" y="0" on="1"/>
        <pt x="17" y="35" on="0"/>
        <pt x="14" y="53" on="1"/>
        <pt x="393" y="610" on="1"/>
        <pt x="151" y="602" on="1"/>
        <pt x="142" y="519" on="1"/>
        <pt x="133" y="450" on="0"/>
        <pt x="65" y="464" on="1"/>
        <pt x="65" y="685" on="1"/>
        <pt x="530" y="685" on="1"/>
        <pt x="557" y="666" on="0"/>
        <pt x="557" y="636" on="1"/>
        <pt x="182" y="72" on="1"/>
        <pt x="469" y="87" on="1"/>
        <pt x="481" y="171" on="1"/>
        <pt x="486" y="208" on="0"/>
        <pt x="524" y="230" on="0"/>
        <pt x="556" y="224" on="1"/>
      </contour>
      <contour>
        <pt x="346" y="746" on="0"/>
        <pt x="284" y="746" on="0"/>
        <pt x="241" y="789" on="0"/>
        <pt x="241" y="851" on="0"/>
        <pt x="284" y="894" on="0"/>
        <pt x="346" y="894" on="0"/>
        <pt x="389" y="851" on="0"/>
        <pt x="389" y="788" on="0"/>
      </contour>
    </TTGlyph>
    <TTGlyph name="a" xMin="30" yMin="-15" xMax="511" yMax="520">
      <contour>
        <pt x="511" y="45" on="1"/>
        <pt x="511" y="-15" on="0"/>
        <pt x="355" y="-15" on="0"/>
        <pt x="332" y="37" on="1"/>
        <pt x="269" y="-15" on="0"/>
        <pt x="117" y="-15" on="0"/>
        <pt x="30" y="60" on="0"/>
        <pt x="30" y="191" on="0"/>
        <pt x="132" y="275" on="0"/>
        <pt x="242" y="275" on="1"/>
        <pt x="285" y="275" on="0"/>
        <pt x="324" y="269" on="1"/>
        <pt x="324" y="313" on="1"/>
        <pt x="324" y="382" on="0"/>
        <pt x="279" y="440" on="0"/>
        <pt x="201" y="440" on="0"/>
        <pt x="154" y="390" on="0"/>
        <pt x="154" y="347" on="1"/>
        <pt x="114" y="343" on="0"/>
        <pt x="61" y="376" on="0"/>
        <pt x="61" y="410" on="1"/>
        <pt x="61" y="458" on="0"/>
        <pt x="161" y="520" on="0"/>
        <pt x="240" y="520" on="1"/>
        <pt x="446" y="520" on="0"/>
        <pt x="446" y="320" on="1"/>
        <pt x="446" y="53" on="1"/>
      </contour>
      <contour>
        <pt x="324" y="194" on="1"/>
        <pt x="288" y="207" on="0"/>
        <pt x="209" y="207" on="0"/>
        <pt x="157" y="170" on="0"/>
        <pt x="157" y="136" on="1"/>
        <pt x="157" y="66" on="0"/>
        <pt x="229" y="66" on="1"/>
        <pt x="280" y="66" on="0"/>
        <pt x="324" y="95" on="1"/>
      </contour>
    </TTGlyph>
    <TTGlyph name="aacute" xMin="30" yMin="-15" xMax="511" yMax="730">
      <contour>
        <pt x="511" y="45" on="1"/>
        <pt x="511" y="-15" on="0"/>
        <pt x="355" y="-15" on="0"/>
        <pt x="332" y="37" on="1"/>
        <pt x="269" y="-15" on="0"/>
        <pt x="117" y="-15" on="0"/>
        <pt x="30" y="60" on="0"/>
        <pt x="30" y="191" on="0"/>
        <pt x="132" y="275" on="0"/>
        <pt x="242" y="275" on="1"/>
        <pt x="285" y="275" on="0"/>
        <pt x="324" y="269" on="1"/>
        <pt x="324" y="313" on="1"/>
        <pt x="324" y="382" on="0"/>
        <pt x="279" y="440" on="0"/>
        <pt x="201" y="440" on="0"/>
        <pt x="154" y="390" on="0"/>
        <pt x="154" y="347" on="1"/>
        <pt x="114" y="343" on="0"/>
        <pt x="61" y="376" on="0"/>
        <pt x="61" y="410" on="1"/>
        <pt x="61" y="458" on="0"/>
        <pt x="161" y="520" on="0"/>
        <pt x="240" y="520" on="1"/>
        <pt x="446" y="520" on="0"/>
        <pt x="446" y="320" on="1"/>
        <pt x="446" y="53" on="1"/>
      </contour>
      <contour>
        <pt x="324" y="194" on="1"/>
        <pt x="288" y="207" on="0"/>
        <pt x="209" y="207" on="0"/>
        <pt x="157" y="170" on="0"/>
        <pt x="157" y="136" on="1"/>
        <pt x="157" y="66" on="0"/>
        <pt x="229" y="66" on="1"/>
        <pt x="280" y="66" on="0"/>
        <pt x="324" y="95" on="1"/>
      </contour>
      <contour>
        <pt x="415" y="662" on="1"/>
        <pt x="208" y="552" on="1"/>
        <pt x="177" y="568" on="0"/>
        <pt x="166" y="593" on="1"/>
        <pt x="333" y="730" on="1"/>
        <pt x="356" y="725" on="0"/>
        <pt x="406" y="680" on="0"/>
      </contour>
    </TTGlyph>
    <TTGlyph name="abreve" xMin="30" yMin="-15" xMax="511" yMax="726">
      <contour>
        <pt x="511" y="45" on="1"/>
        <pt x="511" y="-15" on="0"/>
        <pt x="355" y="-15" on="0"/>
        <pt x="332" y="37" on="1"/>
        <pt x="269" y="-15" on="0"/>
        <pt x="117" y="-15" on="0"/>
        <pt x="30" y="60" on="0"/>
        <pt x="30" y="191" on="0"/>
        <pt x="132" y="275" on="0"/>
        <pt x="242" y="275" on="1"/>
        <pt x="285" y="275" on="0"/>
        <pt x="324" y="269" on="1"/>
        <pt x="324" y="313" on="1"/>
        <pt x="324" y="382" on="0"/>
        <pt x="279" y="440" on="0"/>
        <pt x="201" y="440" on="0"/>
        <pt x="154" y="390" on="0"/>
        <pt x="154" y="347" on="1"/>
        <pt x="114" y="343" on="0"/>
        <pt x="61" y="376" on="0"/>
        <pt x="61" y="410" on="1"/>
        <pt x="61" y="458" on="0"/>
        <pt x="161" y="520" on="0"/>
        <pt x="240" y="520" on="1"/>
        <pt x="446" y="520" on="0"/>
        <pt x="446" y="320" on="1"/>
        <pt x="446" y="53" on="1"/>
      </contour>
      <contour>
        <pt x="324" y="194" on="1"/>
        <pt x="288" y="207" on="0"/>
        <pt x="209" y="207" on="0"/>
        <pt x="157" y="170" on="0"/>
        <pt x="157" y="136" on="1"/>
        <pt x="157" y="66" on="0"/>
        <pt x="229" y="66" on="1"/>
        <pt x="280" y="66" on="0"/>
        <pt x="324" y="95" on="1"/>
      </contour>
      <contour>
        <pt x="322" y="559" on="0"/>
        <pt x="176" y="559" on="0"/>
        <pt x="92" y="646" on="0"/>
        <pt x="84" y="706" on="1"/>
        <pt x="120" y="726" on="1"/>
        <pt x="133" y="696" on="0"/>
        <pt x="197" y="644" on="0"/>
        <pt x="250" y="644" on="1"/>
        <pt x="343" y="644" on="0"/>
        <pt x="378" y="726" on="1"/>
        <pt x="414" y="706" on="1"/>
        <pt x="406" y="646" on="0"/>
      </contour>
    </TTGlyph>
    <TTGlyph name="acircumflex" xMin="30" yMin="-15" xMax="511" yMax="707">
      <contour>
        <pt x="511" y="45" on="1"/>
        <pt x="511" y="-15" on="0"/>
        <pt x="355" y="-15" on="0"/>
        <pt x="332" y="37" on="1"/>
        <pt x="269" y="-15" on="0"/>
        <pt x="117" y="-15" on="0"/>
        <pt x="30" y="60" on="0"/>
        <pt x="30" y="191" on="0"/>
        <pt x="132" y="275" on="0"/>
        <pt x="242" y="275" on="1"/>
        <pt x="285" y="275" on="0"/>
        <pt x="324" y="269" on="1"/>
        <pt x="324" y="313" on="1"/>
        <pt x="324" y="382" on="0"/>
        <pt x="279" y="440" on="0"/>
        <pt x="201" y="440" on="0"/>
        <pt x="154" y="390" on="0"/>
        <pt x="154" y="347" on="1"/>
        <pt x="114" y="343" on="0"/>
        <pt x="61" y="376" on="0"/>
        <pt x="61" y="410" on="1"/>
        <pt x="61" y="458" on="0"/>
        <pt x="161" y="520" on="0"/>
        <pt x="240" y="520" on="1"/>
        <pt x="446" y="520" on="0"/>
        <pt x="446" y="320" on="1"/>
        <pt x="446" y="53" on="1"/>
      </contour>
      <contour>
        <pt x="324" y="194" on="1"/>
        <pt x="288" y="207" on="0"/>
        <pt x="209" y="207" on="0"/>
        <pt x="157" y="170" on="0"/>
        <pt x="157" y="136" on="1"/>
        <pt x="157" y="66" on="0"/>
        <pt x="229" y="66" on="1"/>
        <pt x="280" y="66" on="0"/>
        <pt x="324" y="95" on="1"/>
      </contour>
      <contour>
        <pt x="248" y="629" on="1"/>
        <pt x="108" y="543" on="1"/>
        <pt x="86" y="556" on="0"/>
        <pt x="73" y="581" on="1"/>
        <pt x="212" y="707" on="1"/>
        <pt x="253" y="716" on="0"/>
        <pt x="288" y="707" on="1"/>
        <pt x="423" y="581" on="1"/>
        <pt x="406" y="554" on="0"/>
        <pt x="386" y="543" on="1"/>
      </contour>
    </TTGlyph>
    <TTGlyph name="acute" xMin="158" yMin="552" xMax="407" yMax="730">
      <contour>
        <pt x="407" y="662" on="1"/>
        <pt x="200" y="552" on="1"/>
        <pt x="169" y="568" on="0"/>
        <pt x="158" y="593" on="1"/>
        <pt x="325" y="730" on="1"/>
        <pt x="348" y="725" on="0"/>
        <pt x="398" y="680" on="0"/>
      </contour>
    </TTGlyph>
    <TTGlyph name="acute.cap" xMin="158" yMin="552" xMax="407" yMax="730">
      <contour>
        <pt x="407" y="662" on="1"/>
        <pt x="200" y="552" on="1"/>
        <pt x="169" y="568" on="0"/>
        <pt x="158" y="593" on="1"/>
        <pt x="325" y="730" on="1"/>
        <pt x="348" y="725" on="0"/>
        <pt x="398" y="680" on="0"/>
      </contour>
    </TTGlyph>
    <TTGlyph name="adieresis" xMin="30" yMin="-15" xMax="511" yMax="714">
      <contour>
        <pt x="511" y="45" on="1"/>
        <pt x="511" y="-15" on="0"/>
        <pt x="355" y="-15" on="0"/>
        <pt x="332" y="37" on="1"/>
        <pt x="269" y="-15" on="0"/>
        <pt x="117" y="-15" on="0"/>
        <pt x="30" y="60" on="0"/>
        <pt x="30" y="191" on="0"/>
        <pt x="132" y="275" on="0"/>
        <pt x="242" y="275" on="1"/>
        <pt x="285" y="275" on="0"/>
        <pt x="324" y="269" on="1"/>
        <pt x="324" y="313" on="1"/>
        <pt x="324" y="382" on="0"/>
        <pt x="279" y="440" on="0"/>
        <pt x="201" y="440" on="0"/>
        <pt x="154" y="390" on="0"/>
        <pt x="154" y="347" on="1"/>
        <pt x="114" y="343" on="0"/>
        <pt x="61" y="376" on="0"/>
        <pt x="61" y="410" on="1"/>
        <pt x="61" y="458" on="0"/>
        <pt x="161" y="520" on="0"/>
        <pt x="240" y="520" on="1"/>
        <pt x="446" y="520" on="0"/>
        <pt x="446" y="320" on="1"/>
        <pt x="446" y="53" on="1"/>
      </contour>
      <contour>
        <pt x="324" y="194" on="1"/>
        <pt x="288" y="207" on="0"/>
        <pt x="209" y="207" on="0"/>
        <pt x="157" y="170" on="0"/>
        <pt x="157" y="136" on="1"/>
        <pt x="157" y="66" on="0"/>
        <pt x="229" y="66" on="1"/>
        <pt x="280" y="66" on="0"/>
        <pt x="324" y="95" on="1"/>
      </contour>
      <contour>
        <pt x="177" y="574" on="0"/>
        <pt x="119" y="574" on="0"/>
        <pt x="77" y="615" on="0"/>
        <pt x="77" y="673" on="0"/>
        <pt x="119" y="714" on="0"/>
        <pt x="177" y="714" on="0"/>
        <pt x="218" y="673" on="0"/>
        <pt x="218" y="615" on="0"/>
      </contour>
      <contour>
        <pt x="409" y="615" on="0"/>
        <pt x="368" y="574" on="0"/>
        <pt x="309" y="574" on="0"/>
        <pt x="268" y="615" on="0"/>
        <pt x="268" y="672" on="0"/>
        <pt x="310" y="714" on="0"/>
        <pt x="368" y="714" on="0"/>
        <pt x="409" y="673" on="0"/>
      </contour>
    </TTGlyph>
    <TTGlyph name="ae" xMin="30" yMin="-15" xMax="755" yMax="520">
      <contour>
        <pt x="324" y="313" on="1"/>
        <pt x="324" y="440" on="0"/>
        <pt x="239" y="440" on="1"/>
        <pt x="198" y="440" on="0"/>
        <pt x="154" y="388" on="0"/>
        <pt x="154" y="347" on="1"/>
        <pt x="113" y="343" on="0"/>
        <pt x="61" y="376" on="0"/>
        <pt x="61" y="410" on="1"/>
        <pt x="61" y="458" on="0"/>
        <pt x="161" y="520" on="0"/>
        <pt x="241" y="520" on="1"/>
        <pt x="351" y="520" on="0"/>
        <pt x="403" y="460" on="1"/>
        <pt x="464" y="520" on="0"/>
        <pt x="663" y="520" on="0"/>
        <pt x="757" y="398" on="0"/>
        <pt x="755" y="302" on="1"/>
        <pt x="755" y="245" on="1"/>
        <pt x="451" y="245" on="1"/>
        <pt x="451" y="234" on="1"/>
        <pt x="451" y="153" on="0"/>
        <pt x="509" y="74" on="0"/>
        <pt x="657" y="74" on="0"/>
        <pt x="725" y="129" on="1"/>
        <pt x="745" y="114" on="0"/>
        <pt x="745" y="51" on="0"/>
        <pt x="634" y="-15" on="0"/>
        <pt x="551" y="-15" on="1"/>
        <pt x="430" y="-15" on="0"/>
        <pt x="371" y="63" on="1"/>
        <pt x="293" y="-15" on="0"/>
        <pt x="187" y="-15" on="1"/>
        <pt x="116" y="-15" on="0"/>
        <pt x="30" y="60" on="0"/>
        <pt x="30" y="191" on="0"/>
        <pt x="132" y="275" on="0"/>
        <pt x="243" y="275" on="1"/>
        <pt x="285" y="275" on="0"/>
        <pt x="324" y="269" on="1"/>
      </contour>
      <contour>
        <pt x="324" y="194" on="1"/>
        <pt x="288" y="207" on="0"/>
        <pt x="209" y="207" on="0"/>
        <pt x="157" y="170" on="0"/>
        <pt x="157" y="132" on="1"/>
        <pt x="157" y="66" on="0"/>
        <pt x="232" y="66" on="1"/>
        <pt x="281" y="66" on="0"/>
        <pt x="324" y="95" on="1"/>
      </contour>
      <contour>
        <pt x="555" y="440" on="1"/>
        <pt x="473" y="440" on="0"/>
        <pt x="456" y="314" on="1"/>
        <pt x="638" y="314" on="1"/>
        <pt x="634" y="440" on="0"/>
      </contour>
    </TTGlyph>
    <TTGlyph name="agrave" xMin="30" yMin="-15" xMax="511" yMax="730">
      <contour>
        <pt x="511" y="45" on="1"/>
        <pt x="511" y="-15" on="0"/>
        <pt x="355" y="-15" on="0"/>
        <pt x="332" y="37" on="1"/>
        <pt x="269" y="-15" on="0"/>
        <pt x="117" y="-15" on="0"/>
        <pt x="30" y="60" on="0"/>
        <pt x="30" y="191" on="0"/>
        <pt x="132" y="275" on="0"/>
        <pt x="242" y="275" on="1"/>
        <pt x="285" y="275" on="0"/>
        <pt x="324" y="269" on="1"/>
        <pt x="324" y="313" on="1"/>
        <pt x="324" y="382" on="0"/>
        <pt x="279" y="440" on="0"/>
        <pt x="201" y="440" on="0"/>
        <pt x="154" y="390" on="0"/>
        <pt x="154" y="347" on="1"/>
        <pt x="114" y="343" on="0"/>
        <pt x="61" y="376" on="0"/>
        <pt x="61" y="410" on="1"/>
        <pt x="61" y="458" on="0"/>
        <pt x="161" y="520" on="0"/>
        <pt x="240" y="520" on="1"/>
        <pt x="446" y="520" on="0"/>
        <pt x="446" y="320" on="1"/>
        <pt x="446" y="53" on="1"/>
      </contour>
      <contour>
        <pt x="324" y="194" on="1"/>
        <pt x="288" y="207" on="0"/>
        <pt x="209" y="207" on="0"/>
        <pt x="157" y="170" on="0"/>
        <pt x="157" y="136" on="1"/>
        <pt x="157" y="66" on="0"/>
        <pt x="229" y="66" on="1"/>
        <pt x="280" y="66" on="0"/>
        <pt x="324" y="95" on="1"/>
      </contour>
      <contour>
        <pt x="178" y="730" on="1"/>
        <pt x="345" y="593" on="1"/>
        <pt x="334" y="568" on="0"/>
        <pt x="303" y="552" on="1"/>
        <pt x="96" y="662" on="1"/>
        <pt x="105" y="680" on="0"/>
        <pt x="155" y="725" on="0"/>
      </contour>
    </TTGlyph>
    <TTGlyph name="amacron" xMin="30" yMin="-15" xMax="511" yMax="648">
      <contour>
        <pt x="511" y="45" on="1"/>
        <pt x="511" y="-15" on="0"/>
        <pt x="355" y="-15" on="0"/>
        <pt x="332" y="37" on="1"/>
        <pt x="269" y="-15" on="0"/>
        <pt x="117" y="-15" on="0"/>
        <pt x="30" y="60" on="0"/>
        <pt x="30" y="191" on="0"/>
        <pt x="132" y="275" on="0"/>
        <pt x="242" y="275" on="1"/>
        <pt x="285" y="275" on="0"/>
        <pt x="324" y="269" on="1"/>
        <pt x="324" y="313" on="1"/>
        <pt x="324" y="382" on="0"/>
        <pt x="279" y="440" on="0"/>
        <pt x="201" y="440" on="0"/>
        <pt x="154" y="390" on="0"/>
        <pt x="154" y="347" on="1"/>
        <pt x="114" y="343" on="0"/>
        <pt x="61" y="376" on="0"/>
        <pt x="61" y="410" on="1"/>
        <pt x="61" y="458" on="0"/>
        <pt x="161" y="520" on="0"/>
        <pt x="240" y="520" on="1"/>
        <pt x="446" y="520" on="0"/>
        <pt x="446" y="320" on="1"/>
        <pt x="446" y="53" on="1"/>
      </contour>
      <contour>
        <pt x="324" y="194" on="1"/>
        <pt x="288" y="207" on="0"/>
        <pt x="209" y="207" on="0"/>
        <pt x="157" y="170" on="0"/>
        <pt x="157" y="136" on="1"/>
        <pt x="157" y="66" on="0"/>
        <pt x="229" y="66" on="1"/>
        <pt x="280" y="66" on="0"/>
        <pt x="324" y="95" on="1"/>
      </contour>
      <contour>
        <pt x="395" y="648" on="1"/>
        <pt x="395" y="578" on="1"/>
        <pt x="100" y="578" on="1"/>
        <pt x="100" y="648" on="1"/>
      </contour>
    </TTGlyph>
    <TTGlyph name="ampersand" xMin="35" yMin="-18" xMax="731" yMax="675">
      <contour>
        <pt x="645" y="83" on="1"/>
        <pt x="665" y="83" on="0"/>
        <pt x="709" y="99" on="0"/>
        <pt x="717" y="111" on="1"/>
        <pt x="731" y="99" on="0"/>
        <pt x="731" y="37" on="0"/>
        <pt x="681" y="-17" on="0"/>
        <pt x="631" y="-17" on="1"/>
        <pt x="556" y="-17" on="0"/>
        <pt x="458" y="49" on="1"/>
        <pt x="374" y="-18" on="0"/>
        <pt x="148" y="-18" on="0"/>
        <pt x="35" y="79" on="0"/>
        <pt x="35" y="156" on="1"/>
        <pt x="35" y="275" on="0"/>
        <pt x="158" y="342" on="1"/>
        <pt x="85" y="439" on="0"/>
        <pt x="85" y="578" on="0"/>
        <pt x="186" y="675" on="0"/>
        <pt x="350" y="675" on="0"/>
        <pt x="441" y="598" on="0"/>
        <pt x="441" y="464" on="0"/>
        <pt x="358" y="368" on="0"/>
        <pt x="296" y="346" on="1"/>
        <pt x="302" y="339" on="1"/>
        <pt x="383" y="242" on="0"/>
        <pt x="470" y="171" on="1"/>
        <pt x="496" y="211" on="0"/>
        <pt x="512" y="266" on="1"/>
        <pt x="446" y="271" on="1"/>
        <pt x="440" y="335" on="0"/>
        <pt x="488" y="335" on="1"/>
        <pt x="660" y="335" on="1"/>
        <pt x="660" y="326" on="1"/>
        <pt x="660" y="273" on="0"/>
        <pt x="622" y="270" on="1"/>
        <pt x="589" y="268" on="1"/>
        <pt x="567" y="187" on="0"/>
        <pt x="529" y="128" on="1"/>
        <pt x="599" y="83" on="0"/>
      </contour>
      <contour>
        <pt x="335" y="574" on="0"/>
        <pt x="297" y="615" on="0"/>
        <pt x="241" y="615" on="0"/>
        <pt x="197" y="569" on="0"/>
        <pt x="197" y="532" on="1"/>
        <pt x="197" y="477" on="0"/>
        <pt x="261" y="391" on="1"/>
        <pt x="335" y="436" on="0"/>
        <pt x="335" y="530" on="1"/>
      </contour>
      <contour>
        <pt x="395" y="97" on="1"/>
        <pt x="314" y="163" on="0"/>
        <pt x="200" y="291" on="1"/>
        <pt x="150" y="243" on="0"/>
        <pt x="150" y="126" on="0"/>
        <pt x="222" y="66" on="0"/>
        <pt x="346" y="66" on="0"/>
      </contour>
    </TTGlyph>
    <TTGlyph name="aogonek" xMin="30" yMin="-186" xMax="533" yMax="520">
      <contour>
        <pt x="433" y="-84" on="1"/>
        <pt x="433" y="-108" on="0"/>
        <pt x="456" y="-133" on="0"/>
        <pt x="500" y="-133" on="0"/>
        <pt x="526" y="-112" on="1"/>
        <pt x="530" y="-115" on="0"/>
        <pt x="535" y="-144" on="0"/>
        <pt x="533" y="-153" on="1"/>
        <pt x="510" y="-186" on="0"/>
        <pt x="406" y="-186" on="0"/>
        <pt x="356" y="-140" on="0"/>
        <pt x="356" y="-107" on="1"/>
        <pt x="356" y="-54" on="0"/>
        <pt x="402" y="-13" on="1"/>
        <pt x="350" y="-5" on="0"/>
        <pt x="332" y="37" on="1"/>
        <pt x="269" y="-15" on="0"/>
        <pt x="117" y="-15" on="0"/>
        <pt x="30" y="60" on="0"/>
        <pt x="30" y="191" on="0"/>
        <pt x="132" y="275" on="0"/>
        <pt x="242" y="275" on="1"/>
        <pt x="285" y="275" on="0"/>
        <pt x="324" y="269" on="1"/>
        <pt x="324" y="313" on="1"/>
        <pt x="324" y="382" on="0"/>
        <pt x="279" y="440" on="0"/>
        <pt x="201" y="440" on="0"/>
        <pt x="154" y="390" on="0"/>
        <pt x="154" y="347" on="1"/>
        <pt x="114" y="343" on="0"/>
        <pt x="61" y="376" on="0"/>
        <pt x="61" y="410" on="1"/>
        <pt x="61" y="458" on="0"/>
        <pt x="161" y="520" on="0"/>
        <pt x="240" y="520" on="1"/>
        <pt x="446" y="520" on="0"/>
        <pt x="446" y="320" on="1"/>
        <pt x="446" y="53" on="1"/>
        <pt x="511" y="45" on="1"/>
        <pt x="511" y="3" on="0"/>
        <pt x="469" y="-10" on="1"/>
        <pt x="433" y="-37" on="0"/>
      </contour>
      <contour>
        <pt x="324" y="194" on="1"/>
        <pt x="288" y="207" on="0"/>
        <pt x="209" y="207" on="0"/>
        <pt x="157" y="170" on="0"/>
        <pt x="157" y="136" on="1"/>
        <pt x="157" y="66" on="0"/>
        <pt x="229" y="66" on="1"/>
        <pt x="280" y="66" on="0"/>
        <pt x="324" y="95" on="1"/>
      </contour>
    </TTGlyph>
    <TTGlyph name="approxequal" xMin="100" yMin="164" xMax="500" yMax="491">
      <contour>
        <pt x="109" y="241" on="0"/>
        <pt x="174" y="312" on="0"/>
        <pt x="260" y="312" on="0"/>
        <pt x="357" y="253" on="0"/>
        <pt x="417" y="253" on="0"/>
        <pt x="457" y="281" on="0"/>
        <pt x="463" y="304" on="1"/>
        <pt x="500" y="295" on="1"/>
        <pt x="490" y="229" on="0"/>
        <pt x="428" y="164" on="0"/>
        <pt x="325" y="164" on="0"/>
        <pt x="223" y="216" on="0"/>
        <pt x="181" y="216" on="0"/>
        <pt x="147" y="192" on="0"/>
        <pt x="139" y="172" on="1"/>
        <pt x="100" y="184" on="1"/>
      </contour>
      <contour>
        <pt x="109" y="420" on="0"/>
        <pt x="174" y="491" on="0"/>
        <pt x="260" y="491" on="0"/>
        <pt x="357" y="432" on="0"/>
        <pt x="417" y="432" on="0"/>
        <pt x="457" y="460" on="0"/>
        <pt x="463" y="483" on="1"/>
        <pt x="500" y="474" on="1"/>
        <pt x="490" y="408" on="0"/>
        <pt x="428" y="343" on="0"/>
        <pt x="325" y="343" on="0"/>
        <pt x="223" y="395" on="0"/>
        <pt x="181" y="395" on="0"/>
        <pt x="147" y="371" on="0"/>
        <pt x="139" y="351" on="1"/>
        <pt x="100" y="363" on="1"/>
      </contour>
    </TTGlyph>
</ttFont>
